<svg width="423" height="363" viewBox="0 0 423 363" fill="none" xmlns="http://www.w3.org/2000/svg">
<path d="M73.222 84.677V93H39.848V84.677H51.656V52.123C51.656 51.4123 51.6697 50.688 51.697 49.95C51.7243 49.212 51.7653 48.4603 51.82 47.695L44.03 54.173C43.4833 54.583 42.9503 54.8427 42.431 54.952C41.9117 55.0613 41.4197 55.075 40.955 54.993C40.4903 54.8837 40.0803 54.7197 39.725 54.501C39.3697 54.255 39.0963 54.009 38.905 53.763L35.338 48.966L53.624 33.468H62.931V84.677H73.222Z" fill="url(#paint0_linear_301_6898)"/>
<g filter="url(#filter0_d_301_6898)">
<rect x="30.5" y="71" width="362" height="258" rx="10" fill="white"/>
</g>
<circle cx="93.5" cy="141" r="40" fill="url(#paint1_linear_301_6898)"/>
<g clip-path="url(#clip0_301_6898)">
<path d="M100.718 144.769C104.919 138.836 103.514 130.621 97.5815 126.421C91.6488 122.22 83.4337 123.625 79.2334 129.558C75.033 135.491 76.4371 143.705 82.3708 147.905C86.6053 150.903 92.2038 151.134 96.6702 148.497L106.375 158.143C107.423 159.246 109.166 159.29 110.269 158.242C111.372 157.195 111.416 155.452 110.369 154.349C110.336 154.314 110.304 154.282 110.269 154.249L100.718 144.769ZM89.9676 145.668C85.2795 145.669 81.4786 141.871 81.4756 137.183C81.4746 132.495 85.2725 128.694 89.9616 128.692C94.6437 128.69 98.4426 132.482 98.4517 137.164C98.4597 141.853 94.6638 145.66 89.9737 145.668C89.9717 145.668 89.9707 145.668 89.9676 145.668Z" fill="white"/>
</g>
<path d="M64.894 208.076L59.647 219.29C59.479 219.65 59.296 219.95 59.098 220.19C58.906 220.424 58.696 220.61 58.468 220.748C58.246 220.886 58.006 220.982 57.748 221.036C57.49 221.096 57.214 221.126 56.92 221.126C56.212 221.126 55.858 221 55.858 220.748V219.533H56.506C56.65 219.533 56.794 219.518 56.938 219.488C57.088 219.458 57.232 219.404 57.37 219.326C57.508 219.242 57.637 219.131 57.757 218.993C57.883 218.855 58 218.678 58.108 218.462L58.711 217.22L53.518 208.076H55.309C55.477 208.076 55.609 208.118 55.705 208.202C55.807 208.28 55.894 208.385 55.966 208.517L58.981 214.079C59.221 214.529 59.41 214.988 59.548 215.456C59.614 215.222 59.692 214.991 59.782 214.763C59.872 214.529 59.971 214.298 60.079 214.07L62.662 208.517C62.71 208.409 62.788 208.31 62.896 208.22C63.01 208.124 63.148 208.076 63.31 208.076H64.894ZM64.1765 212.81C64.5185 212.486 64.9385 212.222 65.4365 212.018C65.9345 211.814 66.5315 211.712 67.2275 211.712C67.7855 211.712 68.2775 211.781 68.7035 211.919C69.1295 212.051 69.4865 212.231 69.7745 212.459C70.0685 212.681 70.2875 212.936 70.4315 213.224C70.5815 213.512 70.6565 213.812 70.6565 214.124C70.6565 214.304 70.6265 214.493 70.5665 214.691C70.5125 214.883 70.4225 215.069 70.2965 215.249C70.1705 215.429 70.0025 215.597 69.7925 215.753C69.5885 215.903 69.3335 216.029 69.0275 216.131C69.5915 216.305 70.0385 216.581 70.3685 216.959C70.6985 217.337 70.8635 217.808 70.8635 218.372C70.8635 218.798 70.7645 219.182 70.5665 219.524C70.3745 219.866 70.1135 220.157 69.7835 220.397C69.4535 220.631 69.0725 220.811 68.6405 220.937C68.2085 221.063 67.7585 221.126 67.2905 221.126C67.0025 221.126 66.7055 221.099 66.3995 221.045C66.0995 220.991 65.8025 220.907 65.5085 220.793C65.2145 220.679 64.9355 220.532 64.6715 220.352C64.4075 220.172 64.1705 219.953 63.9605 219.695L64.4645 219.047C64.5425 218.939 64.6535 218.885 64.7975 218.885C64.9115 218.885 65.0285 218.933 65.1485 219.029C65.2745 219.119 65.4245 219.218 65.5985 219.326C65.7785 219.434 65.9915 219.536 66.2375 219.632C66.4895 219.722 66.8015 219.767 67.1735 219.767C67.4915 219.767 67.7735 219.728 68.0195 219.65C68.2715 219.572 68.4815 219.464 68.6495 219.326C68.8235 219.188 68.9555 219.026 69.0455 218.84C69.1355 218.654 69.1805 218.45 69.1805 218.228C69.1805 217.796 69.0035 217.451 68.6495 217.193C68.2955 216.935 67.7495 216.806 67.0115 216.806H65.9765V215.636H67.0115C67.6595 215.636 68.1635 215.516 68.5235 215.276C68.8835 215.03 69.0635 214.715 69.0635 214.331C69.0635 214.163 69.0245 214.004 68.9465 213.854C68.8685 213.698 68.7485 213.563 68.5865 213.449C68.4305 213.329 68.2325 213.236 67.9925 213.17C67.7585 213.104 67.4855 213.071 67.1735 213.071C66.8255 213.071 66.5315 213.107 66.2915 213.179C66.0515 213.245 65.8475 213.32 65.6795 213.404C65.5115 213.488 65.3705 213.566 65.2565 213.638C65.1485 213.704 65.0555 213.737 64.9775 213.737C64.8935 213.737 64.8215 213.722 64.7615 213.692C64.7075 213.656 64.6475 213.587 64.5815 213.485L64.1765 212.81ZM80.5425 211.856V221H78.7785V216.788H74.5935V221H72.8385V211.856H74.5935V215.456H78.7785V211.856H80.5425ZM87.9126 216.941C87.1986 216.965 86.5926 217.022 86.0946 217.112C85.5966 217.196 85.1916 217.31 84.8796 217.454C84.5676 217.598 84.3426 217.769 84.2046 217.967C84.0666 218.159 83.9976 218.375 83.9976 218.615C83.9976 218.843 84.0336 219.041 84.1056 219.209C84.1836 219.371 84.2856 219.506 84.4116 219.614C84.5436 219.716 84.6966 219.791 84.8706 219.839C85.0446 219.887 85.2336 219.911 85.4376 219.911C85.7076 219.911 85.9536 219.884 86.1756 219.83C86.4036 219.776 86.6166 219.701 86.8146 219.605C87.0126 219.503 87.2016 219.38 87.3816 219.236C87.5616 219.092 87.7386 218.927 87.9126 218.741V216.941ZM82.7646 213.134C83.2746 212.648 83.8266 212.285 84.4206 212.045C85.0206 211.805 85.6776 211.685 86.3916 211.685C86.9136 211.685 87.3756 211.772 87.7776 211.946C88.1796 212.114 88.5186 212.351 88.7946 212.657C89.0706 212.963 89.2776 213.329 89.4156 213.755C89.5596 214.181 89.6316 214.652 89.6316 215.168V221H88.8486C88.6746 221 88.5426 220.973 88.4526 220.919C88.3626 220.859 88.2906 220.751 88.2366 220.595L88.0476 219.794C87.8136 220.01 87.5826 220.202 87.3546 220.37C87.1266 220.532 86.8866 220.673 86.6346 220.793C86.3886 220.907 86.1246 220.994 85.8426 221.054C85.5606 221.114 85.2486 221.144 84.9066 221.144C84.5466 221.144 84.2076 221.096 83.8896 221C83.5776 220.898 83.3046 220.745 83.0706 220.541C82.8366 220.337 82.6506 220.082 82.5126 219.776C82.3806 219.47 82.3146 219.113 82.3146 218.705C82.3146 218.345 82.4106 218 82.6026 217.67C82.8006 217.334 83.1186 217.034 83.5566 216.77C84.0006 216.506 84.5766 216.29 85.2846 216.122C85.9986 215.954 86.8746 215.858 87.9126 215.834V215.168C87.9126 214.478 87.7656 213.962 87.4716 213.62C87.1776 213.278 86.7456 213.107 86.1756 213.107C85.7916 213.107 85.4676 213.155 85.2036 213.251C84.9456 213.347 84.7206 213.455 84.5286 213.575C84.3426 213.689 84.1776 213.794 84.0336 213.89C83.8956 213.986 83.7516 214.034 83.6016 214.034C83.4816 214.034 83.3766 214.001 83.2866 213.935C83.2026 213.869 83.1336 213.791 83.0796 213.701L82.7646 213.134ZM99.919 211.856V221H98.155V215.024C98.155 214.904 98.161 214.772 98.173 214.628C98.185 214.478 98.203 214.328 98.227 214.178C98.167 214.304 98.107 214.424 98.047 214.538C97.993 214.646 97.936 214.742 97.876 214.826L93.673 220.559C93.607 220.667 93.52 220.769 93.412 220.865C93.304 220.961 93.181 221.009 93.043 221.009H91.981V211.856H93.736V217.841C93.736 217.961 93.73 218.096 93.718 218.246C93.706 218.39 93.688 218.534 93.664 218.678C93.784 218.414 93.901 218.201 94.015 218.039L98.218 212.297C98.284 212.195 98.371 212.096 98.479 212C98.593 211.904 98.719 211.856 98.857 211.856H99.919ZM96.058 209.606C96.298 209.606 96.499 209.579 96.661 209.525C96.829 209.471 96.961 209.384 97.057 209.264C97.159 209.144 97.231 208.988 97.273 208.796C97.321 208.598 97.345 208.358 97.345 208.076H98.38C98.5 208.076 98.593 208.13 98.659 208.238C98.725 208.346 98.758 208.466 98.758 208.598C98.758 208.898 98.695 209.168 98.569 209.408C98.449 209.648 98.272 209.855 98.038 210.029C97.804 210.197 97.519 210.329 97.183 210.425C96.853 210.515 96.478 210.56 96.058 210.56C95.638 210.56 95.26 210.515 94.924 210.425C94.594 210.329 94.312 210.197 94.078 210.029C93.844 209.855 93.664 209.648 93.538 209.408C93.418 209.168 93.358 208.898 93.358 208.598C93.358 208.466 93.391 208.346 93.457 208.238C93.523 208.13 93.616 208.076 93.736 208.076H94.771C94.771 208.358 94.792 208.598 94.834 208.796C94.882 208.988 94.954 209.144 95.05 209.264C95.152 209.384 95.284 209.471 95.446 209.525C95.614 209.579 95.818 209.606 96.058 209.606ZM110.029 213.188H106.582V221H104.818V213.188H101.371V211.856H110.029V213.188ZM117.216 215.411C117.216 215.063 117.165 214.742 117.063 214.448C116.967 214.154 116.823 213.899 116.631 213.683C116.439 213.467 116.205 213.299 115.929 213.179C115.653 213.059 115.335 212.999 114.975 212.999C114.237 212.999 113.655 213.212 113.229 213.638C112.809 214.064 112.542 214.655 112.428 215.411H117.216ZM118.665 219.695C118.449 219.947 118.2 220.166 117.918 220.352C117.636 220.532 117.336 220.679 117.018 220.793C116.7 220.907 116.37 220.991 116.028 221.045C115.692 221.099 115.359 221.126 115.029 221.126C114.399 221.126 113.814 221.021 113.274 220.811C112.74 220.595 112.275 220.283 111.879 219.875C111.489 219.461 111.183 218.951 110.961 218.345C110.745 217.733 110.637 217.031 110.637 216.239C110.637 215.603 110.736 215.012 110.934 214.466C111.132 213.914 111.414 213.434 111.78 213.026C112.152 212.618 112.605 212.297 113.139 212.063C113.673 211.829 114.273 211.712 114.939 211.712C115.497 211.712 116.01 211.805 116.478 211.991C116.952 212.171 117.36 212.435 117.702 212.783C118.044 213.131 118.311 213.56 118.503 214.07C118.701 214.58 118.8 215.162 118.8 215.816C118.8 216.086 118.77 216.269 118.71 216.365C118.65 216.455 118.539 216.5 118.377 216.5H112.383C112.401 217.046 112.479 217.523 112.617 217.931C112.755 218.333 112.944 218.669 113.184 218.939C113.43 219.209 113.721 219.41 114.057 219.542C114.393 219.674 114.768 219.74 115.182 219.74C115.572 219.74 115.908 219.695 116.19 219.605C116.478 219.515 116.724 219.419 116.928 219.317C117.138 219.209 117.312 219.11 117.45 219.02C117.594 218.93 117.72 218.885 117.828 218.885C117.972 218.885 118.083 218.939 118.161 219.047L118.665 219.695ZM121.478 221C121.316 221 121.166 220.97 121.028 220.91C120.896 220.85 120.779 220.769 120.677 220.667C120.581 220.559 120.506 220.433 120.452 220.289C120.398 220.145 120.371 219.989 120.371 219.821C120.371 219.677 120.398 219.542 120.452 219.416C120.506 219.284 120.581 219.17 120.677 219.074C120.779 218.978 120.899 218.903 121.037 218.849C121.175 218.789 121.328 218.759 121.496 218.759C121.688 218.759 121.856 218.795 122 218.867C122.15 218.933 122.273 219.029 122.369 219.155C122.471 219.275 122.546 219.416 122.594 219.578C122.642 219.74 122.666 219.914 122.666 220.1C122.666 220.37 122.627 220.655 122.549 220.955C122.471 221.255 122.357 221.552 122.207 221.846C122.057 222.14 121.871 222.425 121.649 222.701C121.427 222.977 121.175 223.232 120.893 223.466L120.596 223.187C120.506 223.103 120.461 223.01 120.461 222.908C120.461 222.866 120.473 222.821 120.497 222.773C120.527 222.731 120.563 222.689 120.605 222.647C120.665 222.581 120.743 222.494 120.839 222.386C120.935 222.278 121.028 222.152 121.118 222.008C121.214 221.87 121.301 221.714 121.379 221.54C121.463 221.372 121.523 221.192 121.559 221H121.478ZM132.916 219.767C133.48 219.767 133.927 219.635 134.257 219.371C134.587 219.101 134.752 218.738 134.752 218.282C134.752 218.084 134.722 217.901 134.662 217.733C134.602 217.559 134.5 217.409 134.356 217.283C134.212 217.157 134.023 217.061 133.789 216.995C133.555 216.923 133.267 216.887 132.925 216.887H131.026V219.767H132.916ZM131.026 213.026V215.771H132.709C132.961 215.771 133.192 215.735 133.402 215.663C133.618 215.591 133.801 215.492 133.951 215.366C134.107 215.234 134.227 215.078 134.311 214.898C134.401 214.712 134.446 214.511 134.446 214.295C134.446 214.133 134.416 213.977 134.356 213.827C134.302 213.677 134.206 213.542 134.068 213.422C133.936 213.302 133.759 213.206 133.537 213.134C133.315 213.062 133.039 213.026 132.709 213.026H131.026ZM132.763 211.856C133.327 211.856 133.813 211.913 134.221 212.027C134.629 212.135 134.965 212.288 135.229 212.486C135.493 212.684 135.685 212.915 135.805 213.179C135.931 213.443 135.994 213.728 135.994 214.034C135.994 214.232 135.967 214.439 135.913 214.655C135.859 214.871 135.766 215.078 135.634 215.276C135.502 215.468 135.322 215.645 135.094 215.807C134.872 215.969 134.587 216.095 134.239 216.185C134.911 216.305 135.433 216.545 135.805 216.905C136.183 217.265 136.372 217.742 136.372 218.336C136.372 218.786 136.279 219.179 136.093 219.515C135.913 219.845 135.667 220.121 135.355 220.343C135.043 220.565 134.677 220.73 134.257 220.838C133.837 220.946 133.393 221 132.925 221H129.352V211.856H132.763ZM145.792 221H144.1C143.962 221 143.851 220.964 143.767 220.892C143.689 220.814 143.626 220.733 143.578 220.649L141.373 217.166C141.343 217.256 141.313 217.343 141.283 217.427C141.253 217.511 141.214 217.589 141.166 217.661L139.141 220.649C139.081 220.733 139.012 220.814 138.934 220.892C138.856 220.964 138.754 221 138.628 221H137.062L140.248 216.293L137.188 211.856H138.88C139.018 211.856 139.117 211.877 139.177 211.919C139.243 211.961 139.3 212.024 139.348 212.108L141.517 215.447C141.547 215.357 141.58 215.27 141.616 215.186C141.652 215.096 141.7 215.003 141.76 214.907L143.623 212.144C143.731 211.952 143.875 211.856 144.055 211.856H145.666L142.606 216.212L145.792 221ZM150.687 211.712C151.359 211.712 151.965 211.823 152.505 212.045C153.051 212.261 153.513 212.576 153.891 212.99C154.275 213.398 154.569 213.893 154.773 214.475C154.977 215.051 155.079 215.699 155.079 216.419C155.079 217.139 154.977 217.79 154.773 218.372C154.569 218.954 154.275 219.449 153.891 219.857C153.513 220.265 153.051 220.58 152.505 220.802C151.965 221.018 151.359 221.126 150.687 221.126C150.009 221.126 149.397 221.018 148.851 220.802C148.311 220.58 147.849 220.265 147.465 219.857C147.081 219.449 146.784 218.954 146.574 218.372C146.37 217.79 146.268 217.139 146.268 216.419C146.268 215.699 146.37 215.051 146.574 214.475C146.784 213.893 147.081 213.398 147.465 212.99C147.849 212.576 148.311 212.261 148.851 212.045C149.397 211.823 150.009 211.712 150.687 211.712ZM150.687 219.758C151.551 219.758 152.196 219.467 152.622 218.885C153.048 218.303 153.261 217.484 153.261 216.428C153.261 215.372 153.048 214.553 152.622 213.971C152.196 213.383 151.551 213.089 150.687 213.089C149.811 213.089 149.157 213.383 148.725 213.971C148.299 214.553 148.086 215.372 148.086 216.428C148.086 217.484 148.299 218.303 148.725 218.885C149.157 219.467 149.811 219.758 150.687 219.758ZM162.967 219.722V213.233H160.231C160.171 214.121 160.09 214.913 159.988 215.609C159.886 216.305 159.766 216.917 159.628 217.445C159.496 217.967 159.349 218.417 159.187 218.795C159.025 219.167 158.854 219.476 158.674 219.722H162.967ZM166.342 219.668V223.583C166.342 223.751 166.294 223.883 166.198 223.979C166.108 224.075 165.988 224.123 165.838 224.123H164.749V221H157.279V223.619C157.279 223.751 157.24 223.868 157.162 223.97C157.084 224.072 156.961 224.123 156.793 224.123H155.677V219.722H155.974C156.184 219.722 156.391 219.689 156.595 219.623C156.799 219.557 156.994 219.425 157.18 219.227C157.372 219.029 157.552 218.75 157.72 218.39C157.888 218.03 158.041 217.559 158.179 216.977C158.317 216.395 158.437 215.687 158.539 214.853C158.641 214.013 158.722 213.014 158.782 211.856H164.668V219.668H166.342ZM175.857 211.856V221H174.093V215.024C174.093 214.904 174.099 214.772 174.111 214.628C174.123 214.478 174.141 214.328 174.165 214.178C174.105 214.304 174.045 214.424 173.985 214.538C173.931 214.646 173.874 214.742 173.814 214.826L169.611 220.559C169.545 220.667 169.458 220.769 169.35 220.865C169.242 220.961 169.119 221.009 168.981 221.009H167.919V211.856H169.674V217.841C169.674 217.961 169.668 218.096 169.656 218.246C169.644 218.39 169.626 218.534 169.602 218.678C169.722 218.414 169.839 218.201 169.953 218.039L174.156 212.297C174.222 212.195 174.309 212.096 174.417 212C174.531 211.904 174.657 211.856 174.795 211.856H175.857ZM185.966 213.188H182.519V221H180.755V213.188H177.308V211.856H185.966V213.188ZM200.11 221H198.355V213.233H195.628C195.556 214.385 195.448 215.381 195.304 216.221C195.16 217.055 194.986 217.766 194.782 218.354C194.578 218.936 194.35 219.41 194.098 219.776C193.852 220.136 193.588 220.418 193.306 220.622C193.03 220.82 192.745 220.952 192.451 221.018C192.157 221.09 191.863 221.126 191.569 221.126C191.023 221.126 190.75 221.036 190.75 220.856V219.749H191.236C191.44 219.749 191.644 219.716 191.848 219.65C192.058 219.578 192.262 219.443 192.46 219.245C192.664 219.041 192.856 218.759 193.036 218.399C193.216 218.039 193.381 217.568 193.531 216.986C193.681 216.398 193.81 215.684 193.918 214.844C194.026 214.004 194.11 213.008 194.17 211.856H200.11V221ZM210.521 211.856V221H208.757V215.024C208.757 214.904 208.763 214.772 208.775 214.628C208.787 214.478 208.805 214.328 208.829 214.178C208.769 214.304 208.709 214.424 208.649 214.538C208.595 214.646 208.538 214.742 208.478 214.826L204.275 220.559C204.209 220.667 204.122 220.769 204.014 220.865C203.906 220.961 203.783 221.009 203.645 221.009H202.583V211.856H204.338V217.841C204.338 217.961 204.332 218.096 204.32 218.246C204.308 218.39 204.29 218.534 204.266 218.678C204.386 218.414 204.503 218.201 204.617 218.039L208.82 212.297C208.886 212.195 208.973 212.096 209.081 212C209.195 211.904 209.321 211.856 209.459 211.856H210.521ZM225.462 211.856V221H223.698V215.024C223.698 214.904 223.704 214.772 223.716 214.628C223.728 214.478 223.746 214.328 223.77 214.178C223.71 214.304 223.65 214.424 223.59 214.538C223.536 214.646 223.479 214.742 223.419 214.826L219.216 220.559C219.15 220.667 219.063 220.769 218.955 220.865C218.847 220.961 218.724 221.009 218.586 221.009H217.524V211.856H219.279V217.841C219.279 217.961 219.273 218.096 219.261 218.246C219.249 218.39 219.231 218.534 219.207 218.678C219.327 218.414 219.444 218.201 219.558 218.039L223.761 212.297C223.827 212.195 223.914 212.096 224.022 212C224.136 211.904 224.262 211.856 224.4 211.856H225.462ZM235.617 211.856V221H233.853V216.788H229.668V221H227.913V211.856H229.668V215.456H233.853V211.856H235.617ZM245.732 213.188H242.285V221H240.521V213.188H237.074V211.856H245.732V213.188ZM252.919 215.411C252.919 215.063 252.868 214.742 252.766 214.448C252.67 214.154 252.526 213.899 252.334 213.683C252.142 213.467 251.908 213.299 251.632 213.179C251.356 213.059 251.038 212.999 250.678 212.999C249.94 212.999 249.358 213.212 248.932 213.638C248.512 214.064 248.245 214.655 248.131 215.411H252.919ZM254.368 219.695C254.152 219.947 253.903 220.166 253.621 220.352C253.339 220.532 253.039 220.679 252.721 220.793C252.403 220.907 252.073 220.991 251.731 221.045C251.395 221.099 251.062 221.126 250.732 221.126C250.102 221.126 249.517 221.021 248.977 220.811C248.443 220.595 247.978 220.283 247.582 219.875C247.192 219.461 246.886 218.951 246.664 218.345C246.448 217.733 246.34 217.031 246.34 216.239C246.34 215.603 246.439 215.012 246.637 214.466C246.835 213.914 247.117 213.434 247.483 213.026C247.855 212.618 248.308 212.297 248.842 212.063C249.376 211.829 249.976 211.712 250.642 211.712C251.2 211.712 251.713 211.805 252.181 211.991C252.655 212.171 253.063 212.435 253.405 212.783C253.747 213.131 254.014 213.56 254.206 214.07C254.404 214.58 254.503 215.162 254.503 215.816C254.503 216.086 254.473 216.269 254.413 216.365C254.353 216.455 254.242 216.5 254.08 216.5H248.086C248.104 217.046 248.182 217.523 248.32 217.931C248.458 218.333 248.647 218.669 248.887 218.939C249.133 219.209 249.424 219.41 249.76 219.542C250.096 219.674 250.471 219.74 250.885 219.74C251.275 219.74 251.611 219.695 251.893 219.605C252.181 219.515 252.427 219.419 252.631 219.317C252.841 219.209 253.015 219.11 253.153 219.02C253.297 218.93 253.423 218.885 253.531 218.885C253.675 218.885 253.786 218.939 253.864 219.047L254.368 219.695ZM258.144 218.75C258.432 219.128 258.741 219.392 259.071 219.542C259.407 219.692 259.782 219.767 260.196 219.767C261 219.767 261.621 219.479 262.059 218.903C262.503 218.321 262.725 217.475 262.725 216.365C262.725 215.783 262.674 215.288 262.572 214.88C262.476 214.466 262.332 214.13 262.14 213.872C261.954 213.608 261.723 213.416 261.447 213.296C261.171 213.17 260.859 213.107 260.511 213.107C260.001 213.107 259.557 213.221 259.179 213.449C258.807 213.677 258.462 214.001 258.144 214.421V218.75ZM258.054 213.224C258.246 212.996 258.45 212.789 258.666 212.603C258.888 212.411 259.125 212.249 259.377 212.117C259.629 211.979 259.896 211.874 260.178 211.802C260.466 211.724 260.772 211.685 261.096 211.685C261.618 211.685 262.089 211.787 262.509 211.991C262.935 212.195 263.298 212.495 263.598 212.891C263.898 213.287 264.129 213.776 264.291 214.358C264.459 214.94 264.543 215.609 264.543 216.365C264.543 217.043 264.45 217.673 264.264 218.255C264.084 218.831 263.823 219.332 263.481 219.758C263.145 220.184 262.731 220.52 262.239 220.766C261.753 221.006 261.204 221.126 260.592 221.126C260.046 221.126 259.578 221.036 259.188 220.856C258.798 220.676 258.45 220.424 258.144 220.1V224.069H256.389V211.856H257.442C257.688 211.856 257.841 211.973 257.901 212.207L258.054 213.224ZM272.554 215.411C272.554 215.063 272.503 214.742 272.401 214.448C272.305 214.154 272.161 213.899 271.969 213.683C271.777 213.467 271.543 213.299 271.267 213.179C270.991 213.059 270.673 212.999 270.313 212.999C269.575 212.999 268.993 213.212 268.567 213.638C268.147 214.064 267.88 214.655 267.766 215.411H272.554ZM274.003 219.695C273.787 219.947 273.538 220.166 273.256 220.352C272.974 220.532 272.674 220.679 272.356 220.793C272.038 220.907 271.708 220.991 271.366 221.045C271.03 221.099 270.697 221.126 270.367 221.126C269.737 221.126 269.152 221.021 268.612 220.811C268.078 220.595 267.613 220.283 267.217 219.875C266.827 219.461 266.521 218.951 266.299 218.345C266.083 217.733 265.975 217.031 265.975 216.239C265.975 215.603 266.074 215.012 266.272 214.466C266.47 213.914 266.752 213.434 267.118 213.026C267.49 212.618 267.943 212.297 268.477 212.063C269.011 211.829 269.611 211.712 270.277 211.712C270.835 211.712 271.348 211.805 271.816 211.991C272.29 212.171 272.698 212.435 273.04 212.783C273.382 213.131 273.649 213.56 273.841 214.07C274.039 214.58 274.138 215.162 274.138 215.816C274.138 216.086 274.108 216.269 274.048 216.365C273.988 216.455 273.877 216.5 273.715 216.5H267.721C267.739 217.046 267.817 217.523 267.955 217.931C268.093 218.333 268.282 218.669 268.522 218.939C268.768 219.209 269.059 219.41 269.395 219.542C269.731 219.674 270.106 219.74 270.52 219.74C270.91 219.74 271.246 219.695 271.528 219.605C271.816 219.515 272.062 219.419 272.266 219.317C272.476 219.209 272.65 219.11 272.788 219.02C272.932 218.93 273.058 218.885 273.166 218.885C273.31 218.885 273.421 218.939 273.499 219.047L274.003 219.695ZM282.432 213.566C282.378 213.632 282.324 213.686 282.27 213.728C282.222 213.764 282.15 213.782 282.054 213.782C281.958 213.782 281.856 213.746 281.748 213.674C281.646 213.596 281.514 213.515 281.352 213.431C281.196 213.341 281.004 213.26 280.776 213.188C280.554 213.11 280.278 213.071 279.948 213.071C279.516 213.071 279.135 213.149 278.805 213.305C278.475 213.461 278.199 213.683 277.977 213.971C277.761 214.259 277.596 214.61 277.482 215.024C277.368 215.438 277.311 215.903 277.311 216.419C277.311 216.953 277.371 217.43 277.491 217.85C277.611 218.264 277.782 218.615 278.004 218.903C278.226 219.185 278.496 219.401 278.814 219.551C279.132 219.695 279.486 219.767 279.876 219.767C280.254 219.767 280.566 219.722 280.812 219.632C281.058 219.536 281.262 219.434 281.424 219.326C281.586 219.218 281.721 219.119 281.829 219.029C281.937 218.933 282.048 218.885 282.162 218.885C282.306 218.885 282.417 218.939 282.495 219.047L282.999 219.695C282.789 219.953 282.552 220.172 282.288 220.352C282.03 220.532 281.754 220.679 281.46 220.793C281.166 220.907 280.857 220.991 280.533 221.045C280.215 221.099 279.891 221.126 279.561 221.126C278.991 221.126 278.457 221.021 277.959 220.811C277.467 220.601 277.038 220.295 276.672 219.893C276.312 219.491 276.027 218.999 275.817 218.417C275.607 217.829 275.502 217.163 275.502 216.419C275.502 215.741 275.595 215.114 275.781 214.538C275.973 213.962 276.252 213.467 276.618 213.053C276.99 212.633 277.446 212.306 277.986 212.072C278.526 211.832 279.144 211.712 279.84 211.712C280.494 211.712 281.07 211.817 281.568 212.027C282.066 212.237 282.51 212.534 282.9 212.918L282.432 213.566ZM292.629 211.856L287.553 223.655C287.499 223.787 287.427 223.889 287.337 223.961C287.247 224.033 287.115 224.069 286.941 224.069H285.636L287.31 220.424L283.557 211.856H285.087C285.237 211.856 285.354 211.892 285.438 211.964C285.522 212.036 285.582 212.117 285.618 212.207L287.94 217.697C287.988 217.835 288.033 217.976 288.075 218.12C288.123 218.258 288.162 218.396 288.192 218.534C288.234 218.39 288.279 218.249 288.327 218.111C288.375 217.967 288.426 217.826 288.48 217.688L290.721 212.207C290.763 212.105 290.829 212.021 290.919 211.955C291.009 211.889 291.111 211.856 291.225 211.856H292.629ZM301.972 219.758C302.788 219.758 303.391 219.467 303.781 218.885C304.177 218.303 304.375 217.484 304.375 216.428C304.375 215.372 304.177 214.553 303.781 213.971C303.391 213.383 302.788 213.089 301.972 213.089C301.162 213.089 300.559 213.383 300.163 213.971C299.773 214.553 299.578 215.372 299.578 216.428C299.578 217.484 299.773 218.303 300.163 218.885C300.559 219.467 301.162 219.758 301.972 219.758ZM297.841 215.735C297.901 215.117 298.039 214.559 298.255 214.061C298.471 213.563 298.756 213.14 299.11 212.792C299.464 212.444 299.881 212.177 300.361 211.991C300.841 211.805 301.378 211.712 301.972 211.712C302.62 211.712 303.202 211.823 303.718 212.045C304.24 212.261 304.684 212.576 305.05 212.99C305.416 213.398 305.698 213.893 305.896 214.475C306.094 215.051 306.193 215.699 306.193 216.419C306.193 217.139 306.091 217.79 305.887 218.372C305.683 218.954 305.395 219.449 305.023 219.857C304.657 220.265 304.213 220.58 303.691 220.802C303.175 221.018 302.602 221.126 301.972 221.126C301.36 221.126 300.811 221.033 300.325 220.847C299.839 220.655 299.419 220.382 299.065 220.028C298.717 219.668 298.438 219.236 298.228 218.732C298.018 218.222 297.889 217.649 297.841 217.013H295.726V221H293.971V211.856H295.726V215.735H297.841ZM322.206 219.668V223.583C322.206 223.751 322.158 223.883 322.062 223.979C321.966 224.075 321.843 224.123 321.693 224.123H320.604V221H308.139V211.856H309.894V219.668H313.449V211.856H315.213V219.668H318.759V211.856H320.523V219.668H322.206ZM329.665 215.411C329.665 215.063 329.614 214.742 329.512 214.448C329.416 214.154 329.272 213.899 329.08 213.683C328.888 213.467 328.654 213.299 328.378 213.179C328.102 213.059 327.784 212.999 327.424 212.999C326.686 212.999 326.104 213.212 325.678 213.638C325.258 214.064 324.991 214.655 324.877 215.411H329.665ZM331.114 219.695C330.898 219.947 330.649 220.166 330.367 220.352C330.085 220.532 329.785 220.679 329.467 220.793C329.149 220.907 328.819 220.991 328.477 221.045C328.141 221.099 327.808 221.126 327.478 221.126C326.848 221.126 326.263 221.021 325.723 220.811C325.189 220.595 324.724 220.283 324.328 219.875C323.938 219.461 323.632 218.951 323.41 218.345C323.194 217.733 323.086 217.031 323.086 216.239C323.086 215.603 323.185 215.012 323.383 214.466C323.581 213.914 323.863 213.434 324.229 213.026C324.601 212.618 325.054 212.297 325.588 212.063C326.122 211.829 326.722 211.712 327.388 211.712C327.946 211.712 328.459 211.805 328.927 211.991C329.401 212.171 329.809 212.435 330.151 212.783C330.493 213.131 330.76 213.56 330.952 214.07C331.15 214.58 331.249 215.162 331.249 215.816C331.249 216.086 331.219 216.269 331.159 216.365C331.099 216.455 330.988 216.5 330.826 216.5H324.832C324.85 217.046 324.928 217.523 325.066 217.931C325.204 218.333 325.393 218.669 325.633 218.939C325.879 219.209 326.17 219.41 326.506 219.542C326.842 219.674 327.217 219.74 327.631 219.74C328.021 219.74 328.357 219.695 328.639 219.605C328.927 219.515 329.173 219.419 329.377 219.317C329.587 219.209 329.761 219.11 329.899 219.02C330.043 218.93 330.169 218.885 330.277 218.885C330.421 218.885 330.532 218.939 330.61 219.047L331.114 219.695ZM339.192 215.411C339.192 215.063 339.141 214.742 339.039 214.448C338.943 214.154 338.799 213.899 338.607 213.683C338.415 213.467 338.181 213.299 337.905 213.179C337.629 213.059 337.311 212.999 336.951 212.999C336.213 212.999 335.631 213.212 335.205 213.638C334.785 214.064 334.518 214.655 334.404 215.411H339.192ZM340.641 219.695C340.425 219.947 340.176 220.166 339.894 220.352C339.612 220.532 339.312 220.679 338.994 220.793C338.676 220.907 338.346 220.991 338.004 221.045C337.668 221.099 337.335 221.126 337.005 221.126C336.375 221.126 335.79 221.021 335.25 220.811C334.716 220.595 334.251 220.283 333.855 219.875C333.465 219.461 333.159 218.951 332.937 218.345C332.721 217.733 332.613 217.031 332.613 216.239C332.613 215.603 332.712 215.012 332.91 214.466C333.108 213.914 333.39 213.434 333.756 213.026C334.128 212.618 334.581 212.297 335.115 212.063C335.649 211.829 336.249 211.712 336.915 211.712C337.473 211.712 337.986 211.805 338.454 211.991C338.928 212.171 339.336 212.435 339.678 212.783C340.02 213.131 340.287 213.56 340.479 214.07C340.677 214.58 340.776 215.162 340.776 215.816C340.776 216.086 340.746 216.269 340.686 216.365C340.626 216.455 340.515 216.5 340.353 216.5H334.359C334.377 217.046 334.455 217.523 334.593 217.931C334.731 218.333 334.92 218.669 335.16 218.939C335.406 219.209 335.697 219.41 336.033 219.542C336.369 219.674 336.744 219.74 337.158 219.74C337.548 219.74 337.884 219.695 338.166 219.605C338.454 219.515 338.7 219.419 338.904 219.317C339.114 219.209 339.288 219.11 339.426 219.02C339.57 218.93 339.696 218.885 339.804 218.885C339.948 218.885 340.059 218.939 340.137 219.047L340.641 219.695ZM58.297 246.767C58.861 246.767 59.308 246.635 59.638 246.371C59.968 246.101 60.133 245.738 60.133 245.282C60.133 245.084 60.103 244.901 60.043 244.733C59.983 244.559 59.881 244.409 59.737 244.283C59.593 244.157 59.404 244.061 59.17 243.995C58.936 243.923 58.648 243.887 58.306 243.887H56.407V246.767H58.297ZM56.407 240.026V242.771H58.09C58.342 242.771 58.573 242.735 58.783 242.663C58.999 242.591 59.182 242.492 59.332 242.366C59.488 242.234 59.608 242.078 59.692 241.898C59.782 241.712 59.827 241.511 59.827 241.295C59.827 241.133 59.797 240.977 59.737 240.827C59.683 240.677 59.587 240.542 59.449 240.422C59.317 240.302 59.14 240.206 58.918 240.134C58.696 240.062 58.42 240.026 58.09 240.026H56.407ZM58.144 238.856C58.708 238.856 59.194 238.913 59.602 239.027C60.01 239.135 60.346 239.288 60.61 239.486C60.874 239.684 61.066 239.915 61.186 240.179C61.312 240.443 61.375 240.728 61.375 241.034C61.375 241.232 61.348 241.439 61.294 241.655C61.24 241.871 61.147 242.078 61.015 242.276C60.883 242.468 60.703 242.645 60.475 242.807C60.253 242.969 59.968 243.095 59.62 243.185C60.292 243.305 60.814 243.545 61.186 243.905C61.564 244.265 61.753 244.742 61.753 245.336C61.753 245.786 61.66 246.179 61.474 246.515C61.294 246.845 61.048 247.121 60.736 247.343C60.424 247.565 60.058 247.73 59.638 247.838C59.218 247.946 58.774 248 58.306 248H54.733V238.856H58.144ZM68.6118 243.941C67.8978 243.965 67.2918 244.022 66.7938 244.112C66.2958 244.196 65.8908 244.31 65.5788 244.454C65.2668 244.598 65.0418 244.769 64.9038 244.967C64.7658 245.159 64.6968 245.375 64.6968 245.615C64.6968 245.843 64.7328 246.041 64.8048 246.209C64.8828 246.371 64.9848 246.506 65.1108 246.614C65.2428 246.716 65.3958 246.791 65.5698 246.839C65.7438 246.887 65.9328 246.911 66.1368 246.911C66.4068 246.911 66.6528 246.884 66.8748 246.83C67.1028 246.776 67.3158 246.701 67.5138 246.605C67.7118 246.503 67.9008 246.38 68.0808 246.236C68.2608 246.092 68.4378 245.927 68.6118 245.741V243.941ZM63.4638 240.134C63.9738 239.648 64.5258 239.285 65.1198 239.045C65.7198 238.805 66.3768 238.685 67.0908 238.685C67.6128 238.685 68.0748 238.772 68.4768 238.946C68.8788 239.114 69.2178 239.351 69.4938 239.657C69.7698 239.963 69.9768 240.329 70.1148 240.755C70.2588 241.181 70.3308 241.652 70.3308 242.168V248H69.5478C69.3738 248 69.2418 247.973 69.1518 247.919C69.0618 247.859 68.9898 247.751 68.9358 247.595L68.7468 246.794C68.5128 247.01 68.2818 247.202 68.0538 247.37C67.8258 247.532 67.5858 247.673 67.3338 247.793C67.0878 247.907 66.8238 247.994 66.5418 248.054C66.2598 248.114 65.9478 248.144 65.6058 248.144C65.2458 248.144 64.9068 248.096 64.5888 248C64.2768 247.898 64.0038 247.745 63.7698 247.541C63.5358 247.337 63.3498 247.082 63.2118 246.776C63.0798 246.47 63.0138 246.113 63.0138 245.705C63.0138 245.345 63.1098 245 63.3018 244.67C63.4998 244.334 63.8178 244.034 64.2558 243.77C64.6998 243.506 65.2758 243.29 65.9838 243.122C66.6978 242.954 67.5738 242.858 68.6118 242.834V242.168C68.6118 241.478 68.4648 240.962 68.1708 240.62C67.8768 240.278 67.4448 240.107 66.8748 240.107C66.4908 240.107 66.1668 240.155 65.9028 240.251C65.6448 240.347 65.4198 240.455 65.2278 240.575C65.0418 240.689 64.8768 240.794 64.7328 240.89C64.5948 240.986 64.4508 241.034 64.3008 241.034C64.1808 241.034 64.0758 241.001 63.9858 240.935C63.9018 240.869 63.8328 240.791 63.7788 240.701L63.4638 240.134ZM79.0883 240.566C79.0343 240.632 78.9803 240.686 78.9263 240.728C78.8783 240.764 78.8063 240.782 78.7103 240.782C78.6143 240.782 78.5123 240.746 78.4043 240.674C78.3023 240.596 78.1703 240.515 78.0083 240.431C77.8523 240.341 77.6603 240.26 77.4323 240.188C77.2103 240.11 76.9343 240.071 76.6043 240.071C76.1723 240.071 75.7913 240.149 75.4613 240.305C75.1313 240.461 74.8553 240.683 74.6333 240.971C74.4173 241.259 74.2523 241.61 74.1383 242.024C74.0243 242.438 73.9673 242.903 73.9673 243.419C73.9673 243.953 74.0273 244.43 74.1473 244.85C74.2673 245.264 74.4383 245.615 74.6603 245.903C74.8823 246.185 75.1523 246.401 75.4703 246.551C75.7883 246.695 76.1423 246.767 76.5323 246.767C76.9103 246.767 77.2223 246.722 77.4683 246.632C77.7143 246.536 77.9183 246.434 78.0803 246.326C78.2423 246.218 78.3773 246.119 78.4853 246.029C78.5933 245.933 78.7043 245.885 78.8183 245.885C78.9623 245.885 79.0733 245.939 79.1513 246.047L79.6553 246.695C79.4453 246.953 79.2083 247.172 78.9443 247.352C78.6863 247.532 78.4103 247.679 78.1163 247.793C77.8223 247.907 77.5133 247.991 77.1893 248.045C76.8713 248.099 76.5473 248.126 76.2173 248.126C75.6473 248.126 75.1133 248.021 74.6153 247.811C74.1233 247.601 73.6943 247.295 73.3283 246.893C72.9683 246.491 72.6833 245.999 72.4733 245.417C72.2633 244.829 72.1583 244.163 72.1583 243.419C72.1583 242.741 72.2513 242.114 72.4373 241.538C72.6293 240.962 72.9083 240.467 73.2743 240.053C73.6463 239.633 74.1023 239.306 74.6423 239.072C75.1823 238.832 75.8003 238.712 76.4963 238.712C77.1503 238.712 77.7263 238.817 78.2243 239.027C78.7223 239.237 79.1663 239.534 79.5563 239.918L79.0883 240.566ZM93.9733 248H92.2183V240.233H89.4913C89.4193 241.385 89.3113 242.381 89.1673 243.221C89.0233 244.055 88.8493 244.766 88.6453 245.354C88.4413 245.936 88.2133 246.41 87.9613 246.776C87.7153 247.136 87.4513 247.418 87.1693 247.622C86.8933 247.82 86.6083 247.952 86.3143 248.018C86.0203 248.09 85.7263 248.126 85.4323 248.126C84.8863 248.126 84.6133 248.036 84.6133 247.856V246.749H85.0993C85.3033 246.749 85.5073 246.716 85.7113 246.65C85.9213 246.578 86.1253 246.443 86.3233 246.245C86.5273 246.041 86.7193 245.759 86.8993 245.399C87.0793 245.039 87.2443 244.568 87.3943 243.986C87.5443 243.398 87.6733 242.684 87.7813 241.844C87.8893 241.004 87.9733 240.008 88.0333 238.856H93.9733V248ZM102.503 242.411C102.503 242.063 102.452 241.742 102.35 241.448C102.254 241.154 102.11 240.899 101.918 240.683C101.726 240.467 101.492 240.299 101.216 240.179C100.94 240.059 100.622 239.999 100.262 239.999C99.5239 239.999 98.9419 240.212 98.5159 240.638C98.0959 241.064 97.8289 241.655 97.7149 242.411H102.503ZM103.952 246.695C103.736 246.947 103.487 247.166 103.205 247.352C102.923 247.532 102.623 247.679 102.305 247.793C101.987 247.907 101.657 247.991 101.315 248.045C100.979 248.099 100.646 248.126 100.316 248.126C99.6859 248.126 99.1009 248.021 98.5609 247.811C98.0269 247.595 97.5619 247.283 97.1659 246.875C96.7759 246.461 96.4699 245.951 96.2479 245.345C96.0319 244.733 95.9239 244.031 95.9239 243.239C95.9239 242.603 96.0229 242.012 96.2209 241.466C96.4189 240.914 96.7009 240.434 97.0669 240.026C97.4389 239.618 97.8919 239.297 98.4259 239.063C98.9599 238.829 99.5599 238.712 100.226 238.712C100.784 238.712 101.297 238.805 101.765 238.991C102.239 239.171 102.647 239.435 102.989 239.783C103.331 240.131 103.598 240.56 103.79 241.07C103.988 241.58 104.087 242.162 104.087 242.816C104.087 243.086 104.057 243.269 103.997 243.365C103.937 243.455 103.826 243.5 103.664 243.5H97.6699C97.6879 244.046 97.7659 244.523 97.9039 244.931C98.0419 245.333 98.2309 245.669 98.4709 245.939C98.7169 246.209 99.0079 246.41 99.3439 246.542C99.6799 246.674 100.055 246.74 100.469 246.74C100.859 246.74 101.195 246.695 101.477 246.605C101.765 246.515 102.011 246.419 102.215 246.317C102.425 246.209 102.599 246.11 102.737 246.02C102.881 245.93 103.007 245.885 103.115 245.885C103.259 245.885 103.37 245.939 103.448 246.047L103.952 246.695ZM112.831 238.856V248H111.076V244.193C110.29 244.397 109.555 244.523 108.871 244.571C108.187 244.613 107.59 244.553 107.08 244.391C106.57 244.223 106.168 243.938 105.874 243.536C105.586 243.128 105.442 242.576 105.442 241.88V238.856H107.206V241.61C107.206 242.03 107.287 242.366 107.449 242.618C107.611 242.864 107.854 243.038 108.178 243.14C108.502 243.236 108.904 243.266 109.384 243.23C109.87 243.188 110.434 243.095 111.076 242.951V238.856H112.831ZM121.347 242.411C121.347 242.063 121.296 241.742 121.194 241.448C121.098 241.154 120.954 240.899 120.762 240.683C120.57 240.467 120.336 240.299 120.06 240.179C119.784 240.059 119.466 239.999 119.106 239.999C118.368 239.999 117.786 240.212 117.36 240.638C116.94 241.064 116.673 241.655 116.559 242.411H121.347ZM122.796 246.695C122.58 246.947 122.331 247.166 122.049 247.352C121.767 247.532 121.467 247.679 121.149 247.793C120.831 247.907 120.501 247.991 120.159 248.045C119.823 248.099 119.49 248.126 119.16 248.126C118.53 248.126 117.945 248.021 117.405 247.811C116.871 247.595 116.406 247.283 116.01 246.875C115.62 246.461 115.314 245.951 115.092 245.345C114.876 244.733 114.768 244.031 114.768 243.239C114.768 242.603 114.867 242.012 115.065 241.466C115.263 240.914 115.545 240.434 115.911 240.026C116.283 239.618 116.736 239.297 117.27 239.063C117.804 238.829 118.404 238.712 119.07 238.712C119.628 238.712 120.141 238.805 120.609 238.991C121.083 239.171 121.491 239.435 121.833 239.783C122.175 240.131 122.442 240.56 122.634 241.07C122.832 241.58 122.931 242.162 122.931 242.816C122.931 243.086 122.901 243.269 122.841 243.365C122.781 243.455 122.67 243.5 122.508 243.5H116.514C116.532 244.046 116.61 244.523 116.748 244.931C116.886 245.333 117.075 245.669 117.315 245.939C117.561 246.209 117.852 246.41 118.188 246.542C118.524 246.674 118.899 246.74 119.313 246.74C119.703 246.74 120.039 246.695 120.321 246.605C120.609 246.515 120.855 246.419 121.059 246.317C121.269 246.209 121.443 246.11 121.581 246.02C121.725 245.93 121.851 245.885 121.959 245.885C122.103 245.885 122.214 245.939 122.292 246.047L122.796 246.695ZM132.521 238.856V248H130.757V243.788H126.572V248H124.817V238.856H126.572V242.456H130.757V238.856H132.521ZM142.915 238.856V248H141.151V242.024C141.151 241.904 141.157 241.772 141.169 241.628C141.181 241.478 141.199 241.328 141.223 241.178C141.163 241.304 141.103 241.424 141.043 241.538C140.989 241.646 140.932 241.742 140.872 241.826L136.669 247.559C136.603 247.667 136.516 247.769 136.408 247.865C136.3 247.961 136.177 248.009 136.039 248.009H134.977V238.856H136.732V244.841C136.732 244.961 136.726 245.096 136.714 245.246C136.702 245.39 136.684 245.534 136.66 245.678C136.78 245.414 136.897 245.201 137.011 245.039L141.214 239.297C141.28 239.195 141.367 239.096 141.475 239C141.589 238.904 141.715 238.856 141.853 238.856H142.915ZM151.423 242.411C151.423 242.063 151.372 241.742 151.27 241.448C151.174 241.154 151.03 240.899 150.838 240.683C150.646 240.467 150.412 240.299 150.136 240.179C149.86 240.059 149.542 239.999 149.182 239.999C148.444 239.999 147.862 240.212 147.436 240.638C147.016 241.064 146.749 241.655 146.635 242.411H151.423ZM152.872 246.695C152.656 246.947 152.407 247.166 152.125 247.352C151.843 247.532 151.543 247.679 151.225 247.793C150.907 247.907 150.577 247.991 150.235 248.045C149.899 248.099 149.566 248.126 149.236 248.126C148.606 248.126 148.021 248.021 147.481 247.811C146.947 247.595 146.482 247.283 146.086 246.875C145.696 246.461 145.39 245.951 145.168 245.345C144.952 244.733 144.844 244.031 144.844 243.239C144.844 242.603 144.943 242.012 145.141 241.466C145.339 240.914 145.621 240.434 145.987 240.026C146.359 239.618 146.812 239.297 147.346 239.063C147.88 238.829 148.48 238.712 149.146 238.712C149.704 238.712 150.217 238.805 150.685 238.991C151.159 239.171 151.567 239.435 151.909 239.783C152.251 240.131 152.518 240.56 152.71 241.07C152.908 241.58 153.007 242.162 153.007 242.816C153.007 243.086 152.977 243.269 152.917 243.365C152.857 243.455 152.746 243.5 152.584 243.5H146.59C146.608 244.046 146.686 244.523 146.824 244.931C146.962 245.333 147.151 245.669 147.391 245.939C147.637 246.209 147.928 246.41 148.264 246.542C148.6 246.674 148.975 246.74 149.389 246.74C149.779 246.74 150.115 246.695 150.397 246.605C150.685 246.515 150.931 246.419 151.135 246.317C151.345 246.209 151.519 246.11 151.657 246.02C151.801 245.93 151.927 245.885 152.035 245.885C152.179 245.885 152.29 245.939 152.368 246.047L152.872 246.695ZM163.01 246.767C163.574 246.767 164.021 246.635 164.351 246.371C164.681 246.101 164.846 245.738 164.846 245.282C164.846 245.084 164.816 244.901 164.756 244.733C164.696 244.559 164.594 244.409 164.45 244.283C164.306 244.157 164.117 244.061 163.883 243.995C163.649 243.923 163.361 243.887 163.019 243.887H161.12V246.767H163.01ZM161.12 240.026V242.771H162.803C163.055 242.771 163.286 242.735 163.496 242.663C163.712 242.591 163.895 242.492 164.045 242.366C164.201 242.234 164.321 242.078 164.405 241.898C164.495 241.712 164.54 241.511 164.54 241.295C164.54 241.133 164.51 240.977 164.45 240.827C164.396 240.677 164.3 240.542 164.162 240.422C164.03 240.302 163.853 240.206 163.631 240.134C163.409 240.062 163.133 240.026 162.803 240.026H161.12ZM162.857 238.856C163.421 238.856 163.907 238.913 164.315 239.027C164.723 239.135 165.059 239.288 165.323 239.486C165.587 239.684 165.779 239.915 165.899 240.179C166.025 240.443 166.088 240.728 166.088 241.034C166.088 241.232 166.061 241.439 166.007 241.655C165.953 241.871 165.86 242.078 165.728 242.276C165.596 242.468 165.416 242.645 165.188 242.807C164.966 242.969 164.681 243.095 164.333 243.185C165.005 243.305 165.527 243.545 165.899 243.905C166.277 244.265 166.466 244.742 166.466 245.336C166.466 245.786 166.373 246.179 166.187 246.515C166.007 246.845 165.761 247.121 165.449 247.343C165.137 247.565 164.771 247.73 164.351 247.838C163.931 247.946 163.487 248 163.019 248H159.446V238.856H162.857ZM180.667 248H178.903V240.188H174.718V248H172.963V238.856H180.667V248ZM184.879 245.75C185.167 246.128 185.476 246.392 185.806 246.542C186.142 246.692 186.517 246.767 186.931 246.767C187.735 246.767 188.356 246.479 188.794 245.903C189.238 245.321 189.46 244.475 189.46 243.365C189.46 242.783 189.409 242.288 189.307 241.88C189.211 241.466 189.067 241.13 188.875 240.872C188.689 240.608 188.458 240.416 188.182 240.296C187.906 240.17 187.594 240.107 187.246 240.107C186.736 240.107 186.292 240.221 185.914 240.449C185.542 240.677 185.197 241.001 184.879 241.421V245.75ZM184.789 240.224C184.981 239.996 185.185 239.789 185.401 239.603C185.623 239.411 185.86 239.249 186.112 239.117C186.364 238.979 186.631 238.874 186.913 238.802C187.201 238.724 187.507 238.685 187.831 238.685C188.353 238.685 188.824 238.787 189.244 238.991C189.67 239.195 190.033 239.495 190.333 239.891C190.633 240.287 190.864 240.776 191.026 241.358C191.194 241.94 191.278 242.609 191.278 243.365C191.278 244.043 191.185 244.673 190.999 245.255C190.819 245.831 190.558 246.332 190.216 246.758C189.88 247.184 189.466 247.52 188.974 247.766C188.488 248.006 187.939 248.126 187.327 248.126C186.781 248.126 186.313 248.036 185.923 247.856C185.533 247.676 185.185 247.424 184.879 247.1V251.069H183.124V238.856H184.177C184.423 238.856 184.576 238.973 184.636 239.207L184.789 240.224ZM197.128 238.712C197.8 238.712 198.406 238.823 198.946 239.045C199.492 239.261 199.954 239.576 200.332 239.99C200.716 240.398 201.01 240.893 201.214 241.475C201.418 242.051 201.52 242.699 201.52 243.419C201.52 244.139 201.418 244.79 201.214 245.372C201.01 245.954 200.716 246.449 200.332 246.857C199.954 247.265 199.492 247.58 198.946 247.802C198.406 248.018 197.8 248.126 197.128 248.126C196.45 248.126 195.838 248.018 195.292 247.802C194.752 247.58 194.29 247.265 193.906 246.857C193.522 246.449 193.225 245.954 193.015 245.372C192.811 244.79 192.709 244.139 192.709 243.419C192.709 242.699 192.811 242.051 193.015 241.475C193.225 240.893 193.522 240.398 193.906 239.99C194.29 239.576 194.752 239.261 195.292 239.045C195.838 238.823 196.45 238.712 197.128 238.712ZM197.128 246.758C197.992 246.758 198.637 246.467 199.063 245.885C199.489 245.303 199.702 244.484 199.702 243.428C199.702 242.372 199.489 241.553 199.063 240.971C198.637 240.383 197.992 240.089 197.128 240.089C196.252 240.089 195.598 240.383 195.166 240.971C194.74 241.553 194.527 242.372 194.527 243.428C194.527 244.484 194.74 245.303 195.166 245.885C195.598 246.467 196.252 246.758 197.128 246.758ZM209.473 240.188H205.234V248H203.479V238.856H209.473V240.188ZM212.705 245.75C212.993 246.128 213.302 246.392 213.632 246.542C213.968 246.692 214.343 246.767 214.757 246.767C215.561 246.767 216.182 246.479 216.62 245.903C217.064 245.321 217.286 244.475 217.286 243.365C217.286 242.783 217.235 242.288 217.133 241.88C217.037 241.466 216.893 241.13 216.701 240.872C216.515 240.608 216.284 240.416 216.008 240.296C215.732 240.17 215.42 240.107 215.072 240.107C214.562 240.107 214.118 240.221 213.74 240.449C213.368 240.677 213.023 241.001 212.705 241.421V245.75ZM212.615 240.224C212.807 239.996 213.011 239.789 213.227 239.603C213.449 239.411 213.686 239.249 213.938 239.117C214.19 238.979 214.457 238.874 214.739 238.802C215.027 238.724 215.333 238.685 215.657 238.685C216.179 238.685 216.65 238.787 217.07 238.991C217.496 239.195 217.859 239.495 218.159 239.891C218.459 240.287 218.69 240.776 218.852 241.358C219.02 241.94 219.104 242.609 219.104 243.365C219.104 244.043 219.011 244.673 218.825 245.255C218.645 245.831 218.384 246.332 218.042 246.758C217.706 247.184 217.292 247.52 216.8 247.766C216.314 248.006 215.765 248.126 215.153 248.126C214.607 248.126 214.139 248.036 213.749 247.856C213.359 247.676 213.011 247.424 212.705 247.1V251.069H210.95V238.856H212.003C212.249 238.856 212.402 238.973 212.462 239.207L212.615 240.224ZM225.971 243.941C225.257 243.965 224.651 244.022 224.153 244.112C223.655 244.196 223.25 244.31 222.938 244.454C222.626 244.598 222.401 244.769 222.263 244.967C222.125 245.159 222.056 245.375 222.056 245.615C222.056 245.843 222.092 246.041 222.164 246.209C222.242 246.371 222.344 246.506 222.47 246.614C222.602 246.716 222.755 246.791 222.929 246.839C223.103 246.887 223.292 246.911 223.496 246.911C223.766 246.911 224.012 246.884 224.234 246.83C224.462 246.776 224.675 246.701 224.873 246.605C225.071 246.503 225.26 246.38 225.44 246.236C225.62 246.092 225.797 245.927 225.971 245.741V243.941ZM220.823 240.134C221.333 239.648 221.885 239.285 222.479 239.045C223.079 238.805 223.736 238.685 224.45 238.685C224.972 238.685 225.434 238.772 225.836 238.946C226.238 239.114 226.577 239.351 226.853 239.657C227.129 239.963 227.336 240.329 227.474 240.755C227.618 241.181 227.69 241.652 227.69 242.168V248H226.907C226.733 248 226.601 247.973 226.511 247.919C226.421 247.859 226.349 247.751 226.295 247.595L226.106 246.794C225.872 247.01 225.641 247.202 225.413 247.37C225.185 247.532 224.945 247.673 224.693 247.793C224.447 247.907 224.183 247.994 223.901 248.054C223.619 248.114 223.307 248.144 222.965 248.144C222.605 248.144 222.266 248.096 221.948 248C221.636 247.898 221.363 247.745 221.129 247.541C220.895 247.337 220.709 247.082 220.571 246.776C220.439 246.47 220.373 246.113 220.373 245.705C220.373 245.345 220.469 245 220.661 244.67C220.859 244.334 221.177 244.034 221.615 243.77C222.059 243.506 222.635 243.29 223.343 243.122C224.057 242.954 224.933 242.858 225.971 242.834V242.168C225.971 241.478 225.824 240.962 225.53 240.62C225.236 240.278 224.804 240.107 224.234 240.107C223.85 240.107 223.526 240.155 223.262 240.251C223.004 240.347 222.779 240.455 222.587 240.575C222.401 240.689 222.236 240.794 222.092 240.89C221.954 240.986 221.81 241.034 221.66 241.034C221.54 241.034 221.435 241.001 221.345 240.935C221.261 240.869 221.192 240.791 221.138 240.701L220.823 240.134ZM240.327 238.829V248H238.743V242.186C238.743 242.006 238.752 241.802 238.77 241.574C238.794 241.346 238.827 241.136 238.869 240.944L235.809 246.362C235.755 246.464 235.686 246.545 235.602 246.605C235.518 246.659 235.419 246.686 235.305 246.686H235.107C234.999 246.686 234.9 246.659 234.81 246.605C234.726 246.545 234.657 246.464 234.603 246.362L231.498 240.926C231.534 241.118 231.564 241.331 231.588 241.565C231.612 241.793 231.624 242 231.624 242.186V248H230.04V238.829H231.462C231.582 238.829 231.702 238.856 231.822 238.91C231.942 238.964 232.044 239.069 232.128 239.225L234.801 243.743C234.879 243.887 234.951 244.04 235.017 244.202C235.083 244.364 235.146 244.526 235.206 244.688C235.266 244.526 235.326 244.364 235.386 244.202C235.452 244.04 235.524 243.887 235.602 243.743L238.239 239.225C238.323 239.063 238.425 238.958 238.545 238.91C238.665 238.856 238.785 238.829 238.905 238.829H240.327ZM253.071 238.829V248H251.487V242.186C251.487 242.006 251.496 241.802 251.514 241.574C251.538 241.346 251.571 241.136 251.613 240.944L248.553 246.362C248.499 246.464 248.43 246.545 248.346 246.605C248.262 246.659 248.163 246.686 248.049 246.686H247.851C247.743 246.686 247.644 246.659 247.554 246.605C247.47 246.545 247.401 246.464 247.347 246.362L244.242 240.926C244.278 241.118 244.308 241.331 244.332 241.565C244.356 241.793 244.368 242 244.368 242.186V248H242.784V238.829H244.206C244.326 238.829 244.446 238.856 244.566 238.91C244.686 238.964 244.788 239.069 244.872 239.225L247.545 243.743C247.623 243.887 247.695 244.04 247.761 244.202C247.827 244.364 247.89 244.526 247.95 244.688C248.01 244.526 248.07 244.364 248.13 244.202C248.196 244.04 248.268 243.887 248.346 243.743L250.983 239.225C251.067 239.063 251.169 238.958 251.289 238.91C251.409 238.856 251.529 238.829 251.649 238.829H253.071ZM263.52 238.856L258.444 250.655C258.39 250.787 258.318 250.889 258.228 250.961C258.138 251.033 258.006 251.069 257.832 251.069H256.527L258.201 247.424L254.448 238.856H255.978C256.128 238.856 256.245 238.892 256.329 238.964C256.413 239.036 256.473 239.117 256.509 239.207L258.831 244.697C258.879 244.835 258.924 244.976 258.966 245.12C259.014 245.258 259.053 245.396 259.083 245.534C259.125 245.39 259.17 245.249 259.218 245.111C259.266 244.967 259.317 244.826 259.371 244.688L261.612 239.207C261.654 239.105 261.72 239.021 261.81 238.955C261.9 238.889 262.002 238.856 262.116 238.856H263.52ZM275.661 246.722V240.233H272.925C272.865 241.121 272.784 241.913 272.682 242.609C272.58 243.305 272.46 243.917 272.322 244.445C272.19 244.967 272.043 245.417 271.881 245.795C271.719 246.167 271.548 246.476 271.368 246.722H275.661ZM279.036 246.668V250.583C279.036 250.751 278.988 250.883 278.892 250.979C278.802 251.075 278.682 251.123 278.532 251.123H277.443V248H269.973V250.619C269.973 250.751 269.934 250.868 269.856 250.97C269.778 251.072 269.655 251.123 269.487 251.123H268.371V246.722H268.668C268.878 246.722 269.085 246.689 269.289 246.623C269.493 246.557 269.688 246.425 269.874 246.227C270.066 246.029 270.246 245.75 270.414 245.39C270.582 245.03 270.735 244.559 270.873 243.977C271.011 243.395 271.131 242.687 271.233 241.853C271.335 241.013 271.416 240.014 271.476 238.856H277.362V246.668H279.036ZM288.739 248H286.984V240.233H284.257C284.185 241.385 284.077 242.381 283.933 243.221C283.789 244.055 283.615 244.766 283.411 245.354C283.207 245.936 282.979 246.41 282.727 246.776C282.481 247.136 282.217 247.418 281.935 247.622C281.659 247.82 281.374 247.952 281.08 248.018C280.786 248.09 280.492 248.126 280.198 248.126C279.652 248.126 279.379 248.036 279.379 247.856V246.749H279.865C280.069 246.749 280.273 246.716 280.477 246.65C280.687 246.578 280.891 246.443 281.089 246.245C281.293 246.041 281.485 245.759 281.665 245.399C281.845 245.039 282.01 244.568 282.16 243.986C282.31 243.398 282.439 242.684 282.547 241.844C282.655 241.004 282.739 240.008 282.799 238.856H288.739V248ZM296.009 243.077V240.026H294.56C294.23 240.026 293.954 240.074 293.732 240.17C293.51 240.26 293.33 240.38 293.192 240.53C293.06 240.68 292.964 240.845 292.904 241.025C292.85 241.205 292.823 241.385 292.823 241.565C292.823 242.039 292.994 242.411 293.336 242.681C293.678 242.945 294.143 243.077 294.731 243.077H296.009ZM297.683 238.856V248H296.009V244.193H295.388C295.214 244.193 295.07 244.208 294.956 244.238C294.842 244.262 294.743 244.301 294.659 244.355C294.581 244.409 294.512 244.475 294.452 244.553C294.392 244.631 294.332 244.718 294.272 244.814L292.409 247.388C292.349 247.49 292.286 247.58 292.22 247.658C292.154 247.73 292.079 247.793 291.995 247.847C291.911 247.895 291.812 247.934 291.698 247.964C291.584 247.988 291.449 248 291.293 248H290.078L292.643 244.607C292.865 244.229 293.168 243.974 293.552 243.842C293.096 243.782 292.709 243.674 292.391 243.518C292.079 243.356 291.824 243.17 291.626 242.96C291.428 242.744 291.284 242.51 291.194 242.258C291.104 242 291.059 241.739 291.059 241.475C291.059 241.151 291.122 240.833 291.248 240.521C291.374 240.209 291.575 239.93 291.851 239.684C292.127 239.438 292.484 239.24 292.922 239.09C293.36 238.934 293.888 238.856 294.506 238.856H297.683ZM308.258 246.767C308.822 246.767 309.269 246.635 309.599 246.371C309.929 246.101 310.094 245.738 310.094 245.282C310.094 245.084 310.064 244.901 310.004 244.733C309.944 244.559 309.842 244.409 309.698 244.283C309.554 244.157 309.365 244.061 309.131 243.995C308.897 243.923 308.609 243.887 308.267 243.887H306.368V246.767H308.258ZM306.368 240.026V242.771H308.051C308.303 242.771 308.534 242.735 308.744 242.663C308.96 242.591 309.143 242.492 309.293 242.366C309.449 242.234 309.569 242.078 309.653 241.898C309.743 241.712 309.788 241.511 309.788 241.295C309.788 241.133 309.758 240.977 309.698 240.827C309.644 240.677 309.548 240.542 309.41 240.422C309.278 240.302 309.101 240.206 308.879 240.134C308.657 240.062 308.381 240.026 308.051 240.026H306.368ZM308.105 238.856C308.669 238.856 309.155 238.913 309.563 239.027C309.971 239.135 310.307 239.288 310.571 239.486C310.835 239.684 311.027 239.915 311.147 240.179C311.273 240.443 311.336 240.728 311.336 241.034C311.336 241.232 311.309 241.439 311.255 241.655C311.201 241.871 311.108 242.078 310.976 242.276C310.844 242.468 310.664 242.645 310.436 242.807C310.214 242.969 309.929 243.095 309.581 243.185C310.253 243.305 310.775 243.545 311.147 243.905C311.525 244.265 311.714 244.742 311.714 245.336C311.714 245.786 311.621 246.179 311.435 246.515C311.255 246.845 311.009 247.121 310.697 247.343C310.385 247.565 310.019 247.73 309.599 247.838C309.179 247.946 308.735 248 308.267 248H304.694V238.856H308.105ZM318.573 243.941C317.859 243.965 317.253 244.022 316.755 244.112C316.257 244.196 315.852 244.31 315.54 244.454C315.228 244.598 315.003 244.769 314.865 244.967C314.727 245.159 314.658 245.375 314.658 245.615C314.658 245.843 314.694 246.041 314.766 246.209C314.844 246.371 314.946 246.506 315.072 246.614C315.204 246.716 315.357 246.791 315.531 246.839C315.705 246.887 315.894 246.911 316.098 246.911C316.368 246.911 316.614 246.884 316.836 246.83C317.064 246.776 317.277 246.701 317.475 246.605C317.673 246.503 317.862 246.38 318.042 246.236C318.222 246.092 318.399 245.927 318.573 245.741V243.941ZM313.425 240.134C313.935 239.648 314.487 239.285 315.081 239.045C315.681 238.805 316.338 238.685 317.052 238.685C317.574 238.685 318.036 238.772 318.438 238.946C318.84 239.114 319.179 239.351 319.455 239.657C319.731 239.963 319.938 240.329 320.076 240.755C320.22 241.181 320.292 241.652 320.292 242.168V248H319.509C319.335 248 319.203 247.973 319.113 247.919C319.023 247.859 318.951 247.751 318.897 247.595L318.708 246.794C318.474 247.01 318.243 247.202 318.015 247.37C317.787 247.532 317.547 247.673 317.295 247.793C317.049 247.907 316.785 247.994 316.503 248.054C316.221 248.114 315.909 248.144 315.567 248.144C315.207 248.144 314.868 248.096 314.55 248C314.238 247.898 313.965 247.745 313.731 247.541C313.497 247.337 313.311 247.082 313.173 246.776C313.041 246.47 312.975 246.113 312.975 245.705C312.975 245.345 313.071 245 313.263 244.67C313.461 244.334 313.779 244.034 314.217 243.77C314.661 243.506 315.237 243.29 315.945 243.122C316.659 242.954 317.535 242.858 318.573 242.834V242.168C318.573 241.478 318.426 240.962 318.132 240.62C317.838 240.278 317.406 240.107 316.836 240.107C316.452 240.107 316.128 240.155 315.864 240.251C315.606 240.347 315.381 240.455 315.189 240.575C315.003 240.689 314.838 240.794 314.694 240.89C314.556 240.986 314.412 241.034 314.262 241.034C314.142 241.034 314.037 241.001 313.947 240.935C313.863 240.869 313.794 240.791 313.74 240.701L313.425 240.134ZM335.025 238.856V248H322.641V238.856H324.396V246.668H327.951V238.856H329.715V246.668H333.261V238.856H335.025ZM343.552 242.411C343.552 242.063 343.501 241.742 343.399 241.448C343.303 241.154 343.159 240.899 342.967 240.683C342.775 240.467 342.541 240.299 342.265 240.179C341.989 240.059 341.671 239.999 341.311 239.999C340.573 239.999 339.991 240.212 339.565 240.638C339.145 241.064 338.878 241.655 338.764 242.411H343.552ZM345.001 246.695C344.785 246.947 344.536 247.166 344.254 247.352C343.972 247.532 343.672 247.679 343.354 247.793C343.036 247.907 342.706 247.991 342.364 248.045C342.028 248.099 341.695 248.126 341.365 248.126C340.735 248.126 340.15 248.021 339.61 247.811C339.076 247.595 338.611 247.283 338.215 246.875C337.825 246.461 337.519 245.951 337.297 245.345C337.081 244.733 336.973 244.031 336.973 243.239C336.973 242.603 337.072 242.012 337.27 241.466C337.468 240.914 337.75 240.434 338.116 240.026C338.488 239.618 338.941 239.297 339.475 239.063C340.009 238.829 340.609 238.712 341.275 238.712C341.833 238.712 342.346 238.805 342.814 238.991C343.288 239.171 343.696 239.435 344.038 239.783C344.38 240.131 344.647 240.56 344.839 241.07C345.037 241.58 345.136 242.162 345.136 242.816C345.136 243.086 345.106 243.269 345.046 243.365C344.986 243.455 344.875 243.5 344.713 243.5H338.719C338.737 244.046 338.815 244.523 338.953 244.931C339.091 245.333 339.28 245.669 339.52 245.939C339.766 246.209 340.057 246.41 340.393 246.542C340.729 246.674 341.104 246.74 341.518 246.74C341.908 246.74 342.244 246.695 342.526 246.605C342.814 246.515 343.06 246.419 343.264 246.317C343.474 246.209 343.648 246.11 343.786 246.02C343.93 245.93 344.056 245.885 344.164 245.885C344.308 245.885 344.419 245.939 344.497 246.047L345.001 246.695ZM353.016 240.188H348.777V248H347.022V238.856H353.016V240.188ZM357.985 238.712C358.657 238.712 359.263 238.823 359.803 239.045C360.349 239.261 360.811 239.576 361.189 239.99C361.573 240.398 361.867 240.893 362.071 241.475C362.275 242.051 362.377 242.699 362.377 243.419C362.377 244.139 362.275 244.79 362.071 245.372C361.867 245.954 361.573 246.449 361.189 246.857C360.811 247.265 360.349 247.58 359.803 247.802C359.263 248.018 358.657 248.126 357.985 248.126C357.307 248.126 356.695 248.018 356.149 247.802C355.609 247.58 355.147 247.265 354.763 246.857C354.379 246.449 354.082 245.954 353.872 245.372C353.668 244.79 353.566 244.139 353.566 243.419C353.566 242.699 353.668 242.051 353.872 241.475C354.082 240.893 354.379 240.398 354.763 239.99C355.147 239.576 355.609 239.261 356.149 239.045C356.695 238.823 357.307 238.712 357.985 238.712ZM357.985 246.758C358.849 246.758 359.494 246.467 359.92 245.885C360.346 245.303 360.559 244.484 360.559 243.428C360.559 242.372 360.346 241.553 359.92 240.971C359.494 240.383 358.849 240.089 357.985 240.089C357.109 240.089 356.455 240.383 356.023 240.971C355.597 241.553 355.384 242.372 355.384 243.428C355.384 244.484 355.597 245.303 356.023 245.885C356.455 246.467 357.109 246.758 357.985 246.758ZM56.488 272.75C56.776 273.128 57.085 273.392 57.415 273.542C57.751 273.692 58.126 273.767 58.54 273.767C59.344 273.767 59.965 273.479 60.403 272.903C60.847 272.321 61.069 271.475 61.069 270.365C61.069 269.783 61.018 269.288 60.916 268.88C60.82 268.466 60.676 268.13 60.484 267.872C60.298 267.608 60.067 267.416 59.791 267.296C59.515 267.17 59.203 267.107 58.855 267.107C58.345 267.107 57.901 267.221 57.523 267.449C57.151 267.677 56.806 268.001 56.488 268.421V272.75ZM56.398 267.224C56.59 266.996 56.794 266.789 57.01 266.603C57.232 266.411 57.469 266.249 57.721 266.117C57.973 265.979 58.24 265.874 58.522 265.802C58.81 265.724 59.116 265.685 59.44 265.685C59.962 265.685 60.433 265.787 60.853 265.991C61.279 266.195 61.642 266.495 61.942 266.891C62.242 267.287 62.473 267.776 62.635 268.358C62.803 268.94 62.887 269.609 62.887 270.365C62.887 271.043 62.794 271.673 62.608 272.255C62.428 272.831 62.167 273.332 61.825 273.758C61.489 274.184 61.075 274.52 60.583 274.766C60.097 275.006 59.548 275.126 58.936 275.126C58.39 275.126 57.922 275.036 57.532 274.856C57.142 274.676 56.794 274.424 56.488 274.1V278.069H54.733V265.856H55.786C56.032 265.856 56.185 265.973 56.245 266.207L56.398 267.224ZM70.8974 269.411C70.8974 269.063 70.8464 268.742 70.7444 268.448C70.6484 268.154 70.5044 267.899 70.3124 267.683C70.1204 267.467 69.8864 267.299 69.6104 267.179C69.3344 267.059 69.0164 266.999 68.6564 266.999C67.9184 266.999 67.3364 267.212 66.9104 267.638C66.4904 268.064 66.2234 268.655 66.1094 269.411H70.8974ZM72.3464 273.695C72.1304 273.947 71.8814 274.166 71.5994 274.352C71.3174 274.532 71.0174 274.679 70.6994 274.793C70.3814 274.907 70.0514 274.991 69.7094 275.045C69.3734 275.099 69.0404 275.126 68.7104 275.126C68.0804 275.126 67.4954 275.021 66.9554 274.811C66.4214 274.595 65.9564 274.283 65.5604 273.875C65.1704 273.461 64.8644 272.951 64.6424 272.345C64.4264 271.733 64.3184 271.031 64.3184 270.239C64.3184 269.603 64.4174 269.012 64.6154 268.466C64.8134 267.914 65.0954 267.434 65.4614 267.026C65.8334 266.618 66.2864 266.297 66.8204 266.063C67.3544 265.829 67.9544 265.712 68.6204 265.712C69.1784 265.712 69.6914 265.805 70.1594 265.991C70.6334 266.171 71.0414 266.435 71.3834 266.783C71.7254 267.131 71.9924 267.56 72.1844 268.07C72.3824 268.58 72.4814 269.162 72.4814 269.816C72.4814 270.086 72.4514 270.269 72.3914 270.365C72.3314 270.455 72.2204 270.5 72.0584 270.5H66.0644C66.0824 271.046 66.1604 271.523 66.2984 271.931C66.4364 272.333 66.6254 272.669 66.8654 272.939C67.1114 273.209 67.4024 273.41 67.7384 273.542C68.0744 273.674 68.4494 273.74 68.8634 273.74C69.2534 273.74 69.5894 273.695 69.8714 273.605C70.1594 273.515 70.4054 273.419 70.6094 273.317C70.8194 273.209 70.9934 273.11 71.1314 273.02C71.2754 272.93 71.4014 272.885 71.5094 272.885C71.6534 272.885 71.7644 272.939 71.8424 273.047L72.3464 273.695ZM80.3618 267.188H76.1228V275H74.3678V265.856H80.3618V267.188ZM89.7765 265.856V275H88.0125V269.024C88.0125 268.904 88.0185 268.772 88.0305 268.628C88.0425 268.478 88.0605 268.328 88.0845 268.178C88.0245 268.304 87.9645 268.424 87.9045 268.538C87.8505 268.646 87.7935 268.742 87.7335 268.826L83.5305 274.559C83.4645 274.667 83.3775 274.769 83.2695 274.865C83.1615 274.961 83.0385 275.009 82.9005 275.009H81.8385V265.856H83.5935V271.841C83.5935 271.961 83.5875 272.096 83.5755 272.246C83.5635 272.39 83.5455 272.534 83.5215 272.678C83.6415 272.414 83.7585 272.201 83.8725 272.039L88.0755 266.297C88.1415 266.195 88.2285 266.096 88.3365 266C88.4505 265.904 88.5765 265.856 88.7145 265.856H89.7765ZM96.1241 265.712C96.7961 265.712 97.4021 265.823 97.9421 266.045C98.4881 266.261 98.9501 266.576 99.3281 266.99C99.7121 267.398 100.006 267.893 100.21 268.475C100.414 269.051 100.516 269.699 100.516 270.419C100.516 271.139 100.414 271.79 100.21 272.372C100.006 272.954 99.7121 273.449 99.3281 273.857C98.9501 274.265 98.4881 274.58 97.9421 274.802C97.4021 275.018 96.7961 275.126 96.1241 275.126C95.4461 275.126 94.8341 275.018 94.2881 274.802C93.7481 274.58 93.2861 274.265 92.9021 273.857C92.5181 273.449 92.2211 272.954 92.0111 272.372C91.8071 271.79 91.7051 271.139 91.7051 270.419C91.7051 269.699 91.8071 269.051 92.0111 268.475C92.2211 267.893 92.5181 267.398 92.9021 266.99C93.2861 266.576 93.7481 266.261 94.2881 266.045C94.8341 265.823 95.4461 265.712 96.1241 265.712ZM96.1241 273.758C96.9881 273.758 97.6331 273.467 98.0591 272.885C98.4851 272.303 98.6981 271.484 98.6981 270.428C98.6981 269.372 98.4851 268.553 98.0591 267.971C97.6331 267.383 96.9881 267.089 96.1241 267.089C95.2481 267.089 94.5941 267.383 94.1621 267.971C93.7361 268.553 93.5231 269.372 93.5231 270.428C93.5231 271.484 93.7361 272.303 94.1621 272.885C94.5941 273.467 95.2481 273.758 96.1241 273.758ZM110.179 265.856V275H108.415V270.788H104.23V275H102.475V265.856H104.23V269.456H108.415V265.856H110.179ZM117.549 270.941C116.835 270.965 116.229 271.022 115.731 271.112C115.233 271.196 114.828 271.31 114.516 271.454C114.204 271.598 113.979 271.769 113.841 271.967C113.703 272.159 113.634 272.375 113.634 272.615C113.634 272.843 113.67 273.041 113.742 273.209C113.82 273.371 113.922 273.506 114.048 273.614C114.18 273.716 114.333 273.791 114.507 273.839C114.681 273.887 114.87 273.911 115.074 273.911C115.344 273.911 115.59 273.884 115.812 273.83C116.04 273.776 116.253 273.701 116.451 273.605C116.649 273.503 116.838 273.38 117.018 273.236C117.198 273.092 117.375 272.927 117.549 272.741V270.941ZM112.401 267.134C112.911 266.648 113.463 266.285 114.057 266.045C114.657 265.805 115.314 265.685 116.028 265.685C116.55 265.685 117.012 265.772 117.414 265.946C117.816 266.114 118.155 266.351 118.431 266.657C118.707 266.963 118.914 267.329 119.052 267.755C119.196 268.181 119.268 268.652 119.268 269.168V275H118.485C118.311 275 118.179 274.973 118.089 274.919C117.999 274.859 117.927 274.751 117.873 274.595L117.684 273.794C117.45 274.01 117.219 274.202 116.991 274.37C116.763 274.532 116.523 274.673 116.271 274.793C116.025 274.907 115.761 274.994 115.479 275.054C115.197 275.114 114.885 275.144 114.543 275.144C114.183 275.144 113.844 275.096 113.526 275C113.214 274.898 112.941 274.745 112.707 274.541C112.473 274.337 112.287 274.082 112.149 273.776C112.017 273.47 111.951 273.113 111.951 272.705C111.951 272.345 112.047 272 112.239 271.67C112.437 271.334 112.755 271.034 113.193 270.77C113.637 270.506 114.213 270.29 114.921 270.122C115.635 269.954 116.511 269.858 117.549 269.834V269.168C117.549 268.478 117.402 267.962 117.108 267.62C116.814 267.278 116.382 267.107 115.812 267.107C115.428 267.107 115.104 267.155 114.84 267.251C114.582 267.347 114.357 267.455 114.165 267.575C113.979 267.689 113.814 267.794 113.67 267.89C113.532 267.986 113.388 268.034 113.238 268.034C113.118 268.034 113.013 268.001 112.923 267.935C112.839 267.869 112.77 267.791 112.716 267.701L112.401 267.134Z" fill="#434343"/>
<defs>
<filter id="filter0_d_301_6898" x="0.5" y="45" width="422" height="318" filterUnits="userSpaceOnUse" color-interpolation-filters="sRGB">
<feFlood flood-opacity="0" result="BackgroundImageFix"/>
<feColorMatrix in="SourceAlpha" type="matrix" values="0 0 0 0 0 0 0 0 0 0 0 0 0 0 0 0 0 0 127 0" result="hardAlpha"/>
<feOffset dy="4"/>
<feGaussianBlur stdDeviation="15"/>
<feComposite in2="hardAlpha" operator="out"/>
<feColorMatrix type="matrix" values="0 0 0 0 0 0 0 0 0 0 0 0 0 0 0 0 0 0 0.15 0"/>
<feBlend mode="normal" in2="BackgroundImageFix" result="effect1_dropShadow_301_6898"/>
<feBlend mode="normal" in="SourceGraphic" in2="effect1_dropShadow_301_6898" result="shape"/>
</filter>
<linearGradient id="paint0_linear_301_6898" x1="54.5" y1="0" x2="54.5" y2="123" gradientUnits="userSpaceOnUse">
<stop stop-color="#3BB96D"/>
<stop offset="1" stop-color="#279A59"/>
</linearGradient>
<linearGradient id="paint1_linear_301_6898" x1="93.5" y1="101" x2="93.5" y2="181" gradientUnits="userSpaceOnUse">
<stop stop-color="#3BB96D"/>
<stop offset="1" stop-color="#279A59"/>
</linearGradient>
<clipPath id="clip0_301_6898">
<rect width="35" height="35" fill="white" transform="translate(76.5 124)"/>
</clipPath>
</defs>
</svg>
