<svg width="423" height="363" viewBox="0 0 423 363" fill="none" xmlns="http://www.w3.org/2000/svg">
<path d="M62.639 82.627C63.869 82.627 64.8257 82.9687 65.509 83.652C66.2197 84.3353 66.575 85.2373 66.575 86.358V93H25.329V89.31C25.329 88.5993 25.4793 87.834 25.78 87.014C26.0807 86.1667 26.5863 85.4013 27.297 84.718L44.927 67.047C46.4303 65.5437 47.756 64.1087 48.904 62.742C50.052 61.348 51.0087 59.995 51.774 58.683C52.5393 57.3437 53.1133 55.9907 53.496 54.624C53.8787 53.2573 54.07 51.8223 54.07 50.319C54.07 47.6677 53.3867 45.6587 52.02 44.292C50.6533 42.898 48.7263 42.201 46.239 42.201C45.1457 42.201 44.1343 42.365 43.205 42.693C42.303 42.9937 41.483 43.4173 40.745 43.964C40.0343 44.5107 39.4193 45.153 38.9 45.891C38.3807 46.629 37.998 47.4353 37.752 48.31C37.26 49.6767 36.5903 50.5923 35.743 51.057C34.923 51.4943 33.7477 51.59 32.217 51.344L26.231 50.278C26.6683 47.3807 27.4883 44.8387 28.691 42.652C29.8937 40.4653 31.397 38.6477 33.201 37.199C35.005 35.7503 37.0687 34.6707 39.392 33.96C41.7153 33.222 44.2163 32.853 46.895 32.853C49.7103 32.853 52.266 33.2767 54.562 34.124C56.8853 34.944 58.867 36.1057 60.507 37.609C62.147 39.085 63.418 40.8753 64.32 42.98C65.222 45.0847 65.673 47.408 65.673 49.95C65.673 52.1367 65.3587 54.1593 64.73 56.018C64.1013 57.8767 63.2403 59.6533 62.147 61.348C61.081 63.0153 59.8373 64.6417 58.416 66.227C56.9947 67.8123 55.4913 69.4113 53.906 71.024L41.278 83.939C42.672 83.529 44.0523 83.2147 45.419 82.996C46.7857 82.75 48.0703 82.627 49.273 82.627H62.639Z" fill="url(#paint0_linear_301_6910)"/>
<g filter="url(#filter0_d_301_6910)">
<rect x="30.5" y="71" width="362" height="258" rx="10" fill="white"/>
</g>
<circle cx="93.5" cy="141" r="40" fill="url(#paint1_linear_301_6910)"/>
<path d="M82.5742 161H105.426C107.316 161 108.854 159.462 108.854 157.572V133.426H100.855C98.9653 133.426 97.4277 131.888 97.4277 129.998V122H82.5742C80.6841 122 79.1465 123.538 79.1465 125.428V157.572C79.1465 159.462 80.6841 161 82.5742 161ZM87.1445 138.072H100.855C101.487 138.072 101.998 138.583 101.998 139.215C101.998 139.846 101.487 140.357 100.855 140.357H87.1445C86.513 140.357 86.002 139.846 86.002 139.215C86.002 138.583 86.513 138.072 87.1445 138.072ZM87.1445 142.643H100.855C101.487 142.643 101.998 143.154 101.998 143.785C101.998 144.417 101.487 144.928 100.855 144.928H87.1445C86.513 144.928 86.002 144.417 86.002 143.785C86.002 143.154 86.513 142.643 87.1445 142.643ZM87.1445 147.213H100.855C101.487 147.213 101.998 147.724 101.998 148.355C101.998 148.987 101.487 149.498 100.855 149.498H87.1445C86.513 149.498 86.002 148.987 86.002 148.355C86.002 147.724 86.513 147.213 87.1445 147.213ZM87.1445 151.783H96.2852C96.9167 151.783 97.4277 152.294 97.4277 152.926C97.4277 153.557 96.9167 154.068 96.2852 154.068H87.1445C86.513 154.068 86.002 153.557 86.002 152.926C86.002 152.294 86.513 151.783 87.1445 151.783Z" fill="white"/>
<path d="M100.855 131.141H108.184L99.7129 122.669V129.998C99.7129 130.628 100.225 131.141 100.855 131.141Z" fill="white"/>
<path d="M65.182 221H63.265V209.579H57.019V221H55.093V208.076H65.182V221ZM71.6378 211.712C72.3098 211.712 72.9158 211.823 73.4558 212.045C74.0018 212.261 74.4638 212.576 74.8418 212.99C75.2258 213.398 75.5198 213.893 75.7238 214.475C75.9278 215.051 76.0298 215.699 76.0298 216.419C76.0298 217.139 75.9278 217.79 75.7238 218.372C75.5198 218.954 75.2258 219.449 74.8418 219.857C74.4638 220.265 74.0018 220.58 73.4558 220.802C72.9158 221.018 72.3098 221.126 71.6378 221.126C70.9598 221.126 70.3478 221.018 69.8018 220.802C69.2618 220.58 68.7998 220.265 68.4158 219.857C68.0318 219.449 67.7348 218.954 67.5248 218.372C67.3208 217.79 67.2188 217.139 67.2188 216.419C67.2188 215.699 67.3208 215.051 67.5248 214.475C67.7348 213.893 68.0318 213.398 68.4158 212.99C68.7998 212.576 69.2618 212.261 69.8018 212.045C70.3478 211.823 70.9598 211.712 71.6378 211.712ZM71.6378 219.758C72.5018 219.758 73.1468 219.467 73.5728 218.885C73.9988 218.303 74.2118 217.484 74.2118 216.428C74.2118 215.372 73.9988 214.553 73.5728 213.971C73.1468 213.383 72.5018 213.089 71.6378 213.089C70.7618 213.089 70.1078 213.383 69.6758 213.971C69.2498 214.553 69.0368 215.372 69.0368 216.428C69.0368 217.484 69.2498 218.303 69.6758 218.885C70.1078 219.467 70.7618 219.758 71.6378 219.758ZM83.9185 219.722V213.233H81.1825C81.1225 214.121 81.0415 214.913 80.9395 215.609C80.8375 216.305 80.7175 216.917 80.5795 217.445C80.4475 217.967 80.3005 218.417 80.1385 218.795C79.9765 219.167 79.8055 219.476 79.6255 219.722H83.9185ZM87.2935 219.668V223.583C87.2935 223.751 87.2455 223.883 87.1495 223.979C87.0595 224.075 86.9395 224.123 86.7895 224.123H85.7005V221H78.2305V223.619C78.2305 223.751 78.1915 223.868 78.1135 223.97C78.0355 224.072 77.9125 224.123 77.7445 224.123H76.6285V219.722H76.9255C77.1355 219.722 77.3425 219.689 77.5465 219.623C77.7505 219.557 77.9455 219.425 78.1315 219.227C78.3235 219.029 78.5035 218.75 78.6715 218.39C78.8395 218.03 78.9925 217.559 79.1305 216.977C79.2685 216.395 79.3885 215.687 79.4905 214.853C79.5925 214.013 79.6735 213.014 79.7335 211.856H85.6195V219.668H87.2935ZM94.8637 213.188H90.6247V221H88.8697V211.856H94.8637V213.188ZM99.8331 211.712C100.505 211.712 101.111 211.823 101.651 212.045C102.197 212.261 102.659 212.576 103.037 212.99C103.421 213.398 103.715 213.893 103.919 214.475C104.123 215.051 104.225 215.699 104.225 216.419C104.225 217.139 104.123 217.79 103.919 218.372C103.715 218.954 103.421 219.449 103.037 219.857C102.659 220.265 102.197 220.58 101.651 220.802C101.111 221.018 100.505 221.126 99.8331 221.126C99.1551 221.126 98.5431 221.018 97.9971 220.802C97.4571 220.58 96.9951 220.265 96.6111 219.857C96.2271 219.449 95.9301 218.954 95.7201 218.372C95.5161 217.79 95.4141 217.139 95.4141 216.419C95.4141 215.699 95.5161 215.051 95.7201 214.475C95.9301 213.893 96.2271 213.398 96.6111 212.99C96.9951 212.576 97.4571 212.261 97.9971 212.045C98.5431 211.823 99.1551 211.712 99.8331 211.712ZM99.8331 219.758C100.697 219.758 101.342 219.467 101.768 218.885C102.194 218.303 102.407 217.484 102.407 216.428C102.407 215.372 102.194 214.553 101.768 213.971C101.342 213.383 100.697 213.089 99.8331 213.089C98.9571 213.089 98.3031 213.383 97.8711 213.971C97.4451 214.553 97.2321 215.372 97.2321 216.428C97.2321 217.484 97.4451 218.303 97.8711 218.885C98.3031 219.467 98.9571 219.758 99.8331 219.758ZM113.509 213.188H110.062V221H108.298V213.188H104.851V211.856H113.509V213.188ZM118.536 211.712C119.208 211.712 119.814 211.823 120.354 212.045C120.9 212.261 121.362 212.576 121.74 212.99C122.124 213.398 122.418 213.893 122.622 214.475C122.826 215.051 122.928 215.699 122.928 216.419C122.928 217.139 122.826 217.79 122.622 218.372C122.418 218.954 122.124 219.449 121.74 219.857C121.362 220.265 120.9 220.58 120.354 220.802C119.814 221.018 119.208 221.126 118.536 221.126C117.858 221.126 117.246 221.018 116.7 220.802C116.16 220.58 115.698 220.265 115.314 219.857C114.93 219.449 114.633 218.954 114.423 218.372C114.219 217.79 114.117 217.139 114.117 216.419C114.117 215.699 114.219 215.051 114.423 214.475C114.633 213.893 114.93 213.398 115.314 212.99C115.698 212.576 116.16 212.261 116.7 212.045C117.246 211.823 117.858 211.712 118.536 211.712ZM118.536 219.758C119.4 219.758 120.045 219.467 120.471 218.885C120.897 218.303 121.11 217.484 121.11 216.428C121.11 215.372 120.897 214.553 120.471 213.971C120.045 213.383 119.4 213.089 118.536 213.089C117.66 213.089 117.006 213.383 116.574 213.971C116.148 214.553 115.935 215.372 115.935 216.428C115.935 217.484 116.148 218.303 116.574 218.885C117.006 219.467 117.66 219.758 118.536 219.758ZM128.451 219.767C129.015 219.767 129.462 219.635 129.792 219.371C130.122 219.101 130.287 218.738 130.287 218.282C130.287 218.084 130.257 217.901 130.197 217.733C130.137 217.559 130.035 217.409 129.891 217.283C129.747 217.157 129.558 217.061 129.324 216.995C129.09 216.923 128.802 216.887 128.46 216.887H126.561V219.767H128.451ZM126.561 213.026V215.771H128.244C128.496 215.771 128.727 215.735 128.937 215.663C129.153 215.591 129.336 215.492 129.486 215.366C129.642 215.234 129.762 215.078 129.846 214.898C129.936 214.712 129.981 214.511 129.981 214.295C129.981 214.133 129.951 213.977 129.891 213.827C129.837 213.677 129.741 213.542 129.603 213.422C129.471 213.302 129.294 213.206 129.072 213.134C128.85 213.062 128.574 213.026 128.244 213.026H126.561ZM128.298 211.856C128.862 211.856 129.348 211.913 129.756 212.027C130.164 212.135 130.5 212.288 130.764 212.486C131.028 212.684 131.22 212.915 131.34 213.179C131.466 213.443 131.529 213.728 131.529 214.034C131.529 214.232 131.502 214.439 131.448 214.655C131.394 214.871 131.301 215.078 131.169 215.276C131.037 215.468 130.857 215.645 130.629 215.807C130.407 215.969 130.122 216.095 129.774 216.185C130.446 216.305 130.968 216.545 131.34 216.905C131.718 217.265 131.907 217.742 131.907 218.336C131.907 218.786 131.814 219.179 131.628 219.515C131.448 219.845 131.202 220.121 130.89 220.343C130.578 220.565 130.212 220.73 129.792 220.838C129.372 220.946 128.928 221 128.46 221H124.887V211.856H128.298ZM137.416 219.713C138.016 219.713 138.466 219.569 138.766 219.281C139.066 218.987 139.216 218.615 139.216 218.165C139.216 217.961 139.183 217.769 139.117 217.589C139.051 217.403 138.946 217.244 138.802 217.112C138.658 216.974 138.469 216.866 138.235 216.788C138.007 216.704 137.725 216.662 137.389 216.662H135.526V219.713H137.416ZM137.389 215.384C138.019 215.384 138.55 215.462 138.982 215.618C139.42 215.768 139.771 215.972 140.035 216.23C140.299 216.482 140.488 216.776 140.602 217.112C140.722 217.442 140.782 217.787 140.782 218.147C140.782 218.561 140.707 218.945 140.557 219.299C140.413 219.647 140.197 219.947 139.909 220.199C139.621 220.451 139.267 220.649 138.847 220.793C138.433 220.931 137.956 221 137.416 221H133.852V211.856H135.526V215.384H137.389ZM148.929 213.188H145.482V221H143.718V213.188H140.271V211.856H148.929V213.188ZM156.116 215.411C156.116 215.063 156.065 214.742 155.963 214.448C155.867 214.154 155.723 213.899 155.531 213.683C155.339 213.467 155.105 213.299 154.829 213.179C154.553 213.059 154.235 212.999 153.875 212.999C153.137 212.999 152.555 213.212 152.129 213.638C151.709 214.064 151.442 214.655 151.328 215.411H156.116ZM157.565 219.695C157.349 219.947 157.1 220.166 156.818 220.352C156.536 220.532 156.236 220.679 155.918 220.793C155.6 220.907 155.27 220.991 154.928 221.045C154.592 221.099 154.259 221.126 153.929 221.126C153.299 221.126 152.714 221.021 152.174 220.811C151.64 220.595 151.175 220.283 150.779 219.875C150.389 219.461 150.083 218.951 149.861 218.345C149.645 217.733 149.537 217.031 149.537 216.239C149.537 215.603 149.636 215.012 149.834 214.466C150.032 213.914 150.314 213.434 150.68 213.026C151.052 212.618 151.505 212.297 152.039 212.063C152.573 211.829 153.173 211.712 153.839 211.712C154.397 211.712 154.91 211.805 155.378 211.991C155.852 212.171 156.26 212.435 156.602 212.783C156.944 213.131 157.211 213.56 157.403 214.07C157.601 214.58 157.7 215.162 157.7 215.816C157.7 216.086 157.67 216.269 157.61 216.365C157.55 216.455 157.439 216.5 157.277 216.5H151.283C151.301 217.046 151.379 217.523 151.517 217.931C151.655 218.333 151.844 218.669 152.084 218.939C152.33 219.209 152.621 219.41 152.957 219.542C153.293 219.674 153.668 219.74 154.082 219.74C154.472 219.74 154.808 219.695 155.09 219.605C155.378 219.515 155.624 219.419 155.828 219.317C156.038 219.209 156.212 219.11 156.35 219.02C156.494 218.93 156.62 218.885 156.728 218.885C156.872 218.885 156.983 218.939 157.061 219.047L157.565 219.695ZM171.843 211.856V221H170.079V216.788H165.894V221H164.139V211.856H165.894V215.456H170.079V211.856H171.843ZM180.356 215.411C180.356 215.063 180.305 214.742 180.203 214.448C180.107 214.154 179.963 213.899 179.771 213.683C179.579 213.467 179.345 213.299 179.069 213.179C178.793 213.059 178.475 212.999 178.115 212.999C177.377 212.999 176.795 213.212 176.369 213.638C175.949 214.064 175.682 214.655 175.568 215.411H180.356ZM181.805 219.695C181.589 219.947 181.34 220.166 181.058 220.352C180.776 220.532 180.476 220.679 180.158 220.793C179.84 220.907 179.51 220.991 179.168 221.045C178.832 221.099 178.499 221.126 178.169 221.126C177.539 221.126 176.954 221.021 176.414 220.811C175.88 220.595 175.415 220.283 175.019 219.875C174.629 219.461 174.323 218.951 174.101 218.345C173.885 217.733 173.777 217.031 173.777 216.239C173.777 215.603 173.876 215.012 174.074 214.466C174.272 213.914 174.554 213.434 174.92 213.026C175.292 212.618 175.745 212.297 176.279 212.063C176.813 211.829 177.413 211.712 178.079 211.712C178.637 211.712 179.15 211.805 179.618 211.991C180.092 212.171 180.5 212.435 180.842 212.783C181.184 213.131 181.451 213.56 181.643 214.07C181.841 214.58 181.94 215.162 181.94 215.816C181.94 216.086 181.91 216.269 181.85 216.365C181.79 216.455 181.679 216.5 181.517 216.5H175.523C175.541 217.046 175.619 217.523 175.757 217.931C175.895 218.333 176.084 218.669 176.324 218.939C176.57 219.209 176.861 219.41 177.197 219.542C177.533 219.674 177.908 219.74 178.322 219.74C178.712 219.74 179.048 219.695 179.33 219.605C179.618 219.515 179.864 219.419 180.068 219.317C180.278 219.209 180.452 219.11 180.59 219.02C180.734 218.93 180.86 218.885 180.968 218.885C181.112 218.885 181.223 218.939 181.301 219.047L181.805 219.695ZM187.724 211.712C188.396 211.712 189.002 211.823 189.542 212.045C190.088 212.261 190.55 212.576 190.928 212.99C191.312 213.398 191.606 213.893 191.81 214.475C192.014 215.051 192.116 215.699 192.116 216.419C192.116 217.139 192.014 217.79 191.81 218.372C191.606 218.954 191.312 219.449 190.928 219.857C190.55 220.265 190.088 220.58 189.542 220.802C189.002 221.018 188.396 221.126 187.724 221.126C187.046 221.126 186.434 221.018 185.888 220.802C185.348 220.58 184.886 220.265 184.502 219.857C184.118 219.449 183.821 218.954 183.611 218.372C183.407 217.79 183.305 217.139 183.305 216.419C183.305 215.699 183.407 215.051 183.611 214.475C183.821 213.893 184.118 213.398 184.502 212.99C184.886 212.576 185.348 212.261 185.888 212.045C186.434 211.823 187.046 211.712 187.724 211.712ZM187.724 219.758C188.588 219.758 189.233 219.467 189.659 218.885C190.085 218.303 190.298 217.484 190.298 216.428C190.298 215.372 190.085 214.553 189.659 213.971C189.233 213.383 188.588 213.089 187.724 213.089C186.848 213.089 186.194 213.383 185.762 213.971C185.336 214.553 185.123 215.372 185.123 216.428C185.123 217.484 185.336 218.303 185.762 218.885C186.194 219.467 186.848 219.758 187.724 219.758ZM198.242 219.821C199.112 219.821 199.763 219.548 200.195 219.002C200.633 218.45 200.852 217.67 200.852 216.662C200.852 215.66 200.639 214.883 200.213 214.331C199.793 213.773 199.16 213.494 198.314 213.494C197.9 213.494 197.528 213.56 197.198 213.692C196.874 213.818 196.595 214.007 196.361 214.259C196.133 214.511 195.959 214.823 195.839 215.195C195.719 215.561 195.659 215.984 195.659 216.464C195.659 217.526 195.875 218.351 196.307 218.939C196.739 219.527 197.384 219.821 198.242 219.821ZM198.863 209.84C198.269 209.888 197.756 210.017 197.324 210.227C196.898 210.431 196.544 210.71 196.262 211.064C195.986 211.418 195.776 211.841 195.632 212.333C195.488 212.819 195.404 213.368 195.38 213.98C195.53 213.71 195.716 213.464 195.938 213.242C196.166 213.02 196.424 212.831 196.712 212.675C197 212.513 197.315 212.39 197.657 212.306C197.999 212.222 198.359 212.18 198.737 212.18C199.349 212.18 199.898 212.288 200.384 212.504C200.87 212.72 201.281 213.023 201.617 213.413C201.959 213.803 202.22 214.274 202.4 214.826C202.58 215.372 202.67 215.981 202.67 216.653C202.67 217.337 202.565 217.955 202.355 218.507C202.145 219.053 201.845 219.521 201.455 219.911C201.071 220.301 200.606 220.601 200.06 220.811C199.514 221.021 198.908 221.126 198.242 221.126C197.612 221.126 197.027 221.024 196.487 220.82C195.953 220.61 195.488 220.268 195.092 219.794C194.696 219.32 194.384 218.699 194.156 217.931C193.934 217.163 193.823 216.218 193.823 215.096C193.823 214.142 193.91 213.263 194.084 212.459C194.258 211.655 194.537 210.953 194.921 210.353C195.311 209.753 195.818 209.27 196.442 208.904C197.066 208.538 197.825 208.319 198.719 208.247L201.977 207.977L202.076 208.895C202.1 209.093 202.07 209.261 201.986 209.399C201.908 209.537 201.77 209.612 201.572 209.624L198.863 209.84ZM211.868 221H210.176C210.038 221 209.927 220.964 209.843 220.892C209.765 220.814 209.702 220.733 209.654 220.649L207.449 217.166C207.419 217.256 207.389 217.343 207.359 217.427C207.329 217.511 207.29 217.589 207.242 217.661L205.217 220.649C205.157 220.733 205.088 220.814 205.01 220.892C204.932 220.964 204.83 221 204.704 221H203.138L206.324 216.293L203.264 211.856H204.956C205.094 211.856 205.193 211.877 205.253 211.919C205.319 211.961 205.376 212.024 205.424 212.108L207.593 215.447C207.623 215.357 207.656 215.27 207.692 215.186C207.728 215.096 207.776 215.003 207.836 214.907L209.699 212.144C209.807 211.952 209.951 211.856 210.131 211.856H211.742L208.682 216.212L211.868 221ZM216.763 211.712C217.435 211.712 218.041 211.823 218.581 212.045C219.127 212.261 219.589 212.576 219.967 212.99C220.351 213.398 220.645 213.893 220.849 214.475C221.053 215.051 221.155 215.699 221.155 216.419C221.155 217.139 221.053 217.79 220.849 218.372C220.645 218.954 220.351 219.449 219.967 219.857C219.589 220.265 219.127 220.58 218.581 220.802C218.041 221.018 217.435 221.126 216.763 221.126C216.085 221.126 215.473 221.018 214.927 220.802C214.387 220.58 213.925 220.265 213.541 219.857C213.157 219.449 212.86 218.954 212.65 218.372C212.446 217.79 212.344 217.139 212.344 216.419C212.344 215.699 212.446 215.051 212.65 214.475C212.86 213.893 213.157 213.398 213.541 212.99C213.925 212.576 214.387 212.261 214.927 212.045C215.473 211.823 216.085 211.712 216.763 211.712ZM216.763 219.758C217.627 219.758 218.272 219.467 218.698 218.885C219.124 218.303 219.337 217.484 219.337 216.428C219.337 215.372 219.124 214.553 218.698 213.971C218.272 213.383 217.627 213.089 216.763 213.089C215.887 213.089 215.233 213.383 214.801 213.971C214.375 214.553 214.162 215.372 214.162 216.428C214.162 217.484 214.375 218.303 214.801 218.885C215.233 219.467 215.887 219.758 216.763 219.758ZM229.043 219.722V213.233H226.307C226.247 214.121 226.166 214.913 226.064 215.609C225.962 216.305 225.842 216.917 225.704 217.445C225.572 217.967 225.425 218.417 225.263 218.795C225.101 219.167 224.93 219.476 224.75 219.722H229.043ZM232.418 219.668V223.583C232.418 223.751 232.37 223.883 232.274 223.979C232.184 224.075 232.064 224.123 231.914 224.123H230.825V221H223.355V223.619C223.355 223.751 223.316 223.868 223.238 223.97C223.16 224.072 223.037 224.123 222.869 224.123H221.753V219.722H222.05C222.26 219.722 222.467 219.689 222.671 219.623C222.875 219.557 223.07 219.425 223.256 219.227C223.448 219.029 223.628 218.75 223.796 218.39C223.964 218.03 224.117 217.559 224.255 216.977C224.393 216.395 224.513 215.687 224.615 214.853C224.717 214.013 224.798 213.014 224.858 211.856H230.744V219.668H232.418ZM241.933 211.856V221H240.169V215.024C240.169 214.904 240.175 214.772 240.187 214.628C240.199 214.478 240.217 214.328 240.241 214.178C240.181 214.304 240.121 214.424 240.061 214.538C240.007 214.646 239.95 214.742 239.89 214.826L235.687 220.559C235.621 220.667 235.534 220.769 235.426 220.865C235.318 220.961 235.195 221.009 235.057 221.009H233.995V211.856H235.75V217.841C235.75 217.961 235.744 218.096 235.732 218.246C235.72 218.39 235.702 218.534 235.678 218.678C235.798 218.414 235.915 218.201 236.029 218.039L240.232 212.297C240.298 212.195 240.385 212.096 240.493 212C240.607 211.904 240.733 211.856 240.871 211.856H241.933ZM254.67 211.829V221H253.086V215.186C253.086 215.006 253.095 214.802 253.113 214.574C253.137 214.346 253.17 214.136 253.212 213.944L250.152 219.362C250.098 219.464 250.029 219.545 249.945 219.605C249.861 219.659 249.762 219.686 249.648 219.686H249.45C249.342 219.686 249.243 219.659 249.153 219.605C249.069 219.545 249 219.464 248.946 219.362L245.841 213.926C245.877 214.118 245.907 214.331 245.931 214.565C245.955 214.793 245.967 215 245.967 215.186V221H244.383V211.829H245.805C245.925 211.829 246.045 211.856 246.165 211.91C246.285 211.964 246.387 212.069 246.471 212.225L249.144 216.743C249.222 216.887 249.294 217.04 249.36 217.202C249.426 217.364 249.489 217.526 249.549 217.688C249.609 217.526 249.669 217.364 249.729 217.202C249.795 217.04 249.867 216.887 249.945 216.743L252.582 212.225C252.666 212.063 252.768 211.958 252.888 211.91C253.008 211.856 253.128 211.829 253.248 211.829H254.67ZM260.692 219.713C261.292 219.713 261.742 219.569 262.042 219.281C262.342 218.987 262.492 218.615 262.492 218.165C262.492 217.961 262.459 217.769 262.393 217.589C262.327 217.403 262.222 217.244 262.078 217.112C261.934 216.974 261.745 216.866 261.511 216.788C261.283 216.704 261.001 216.662 260.665 216.662H258.802V219.713H260.692ZM260.665 215.384C261.295 215.384 261.826 215.462 262.258 215.618C262.696 215.768 263.047 215.972 263.311 216.23C263.575 216.482 263.764 216.776 263.878 217.112C263.998 217.442 264.058 217.787 264.058 218.147C264.058 218.561 263.983 218.945 263.833 219.299C263.689 219.647 263.473 219.947 263.185 220.199C262.897 220.451 262.543 220.649 262.123 220.793C261.709 220.931 261.232 221 260.692 221H257.128V211.856H258.802V215.384H260.665ZM267.739 211.856V221H265.984V211.856H267.739ZM276.263 215.411C276.263 215.063 276.212 214.742 276.11 214.448C276.014 214.154 275.87 213.899 275.678 213.683C275.486 213.467 275.252 213.299 274.976 213.179C274.7 213.059 274.382 212.999 274.022 212.999C273.284 212.999 272.702 213.212 272.276 213.638C271.856 214.064 271.589 214.655 271.475 215.411H276.263ZM277.712 219.695C277.496 219.947 277.247 220.166 276.965 220.352C276.683 220.532 276.383 220.679 276.065 220.793C275.747 220.907 275.417 220.991 275.075 221.045C274.739 221.099 274.406 221.126 274.076 221.126C273.446 221.126 272.861 221.021 272.321 220.811C271.787 220.595 271.322 220.283 270.926 219.875C270.536 219.461 270.23 218.951 270.008 218.345C269.792 217.733 269.684 217.031 269.684 216.239C269.684 215.603 269.783 215.012 269.981 214.466C270.179 213.914 270.461 213.434 270.827 213.026C271.199 212.618 271.652 212.297 272.186 212.063C272.72 211.829 273.32 211.712 273.986 211.712C274.544 211.712 275.057 211.805 275.525 211.991C275.999 212.171 276.407 212.435 276.749 212.783C277.091 213.131 277.358 213.56 277.55 214.07C277.748 214.58 277.847 215.162 277.847 215.816C277.847 216.086 277.817 216.269 277.757 216.365C277.697 216.455 277.586 216.5 277.424 216.5H271.43C271.448 217.046 271.526 217.523 271.664 217.931C271.802 218.333 271.991 218.669 272.231 218.939C272.477 219.209 272.768 219.41 273.104 219.542C273.44 219.674 273.815 219.74 274.229 219.74C274.619 219.74 274.955 219.695 275.237 219.605C275.525 219.515 275.771 219.419 275.975 219.317C276.185 219.209 276.359 219.11 276.497 219.02C276.641 218.93 276.767 218.885 276.875 218.885C277.019 218.885 277.13 218.939 277.208 219.047L277.712 219.695ZM290.532 219.722V213.233H287.796C287.736 214.121 287.655 214.913 287.553 215.609C287.451 216.305 287.331 216.917 287.193 217.445C287.061 217.967 286.914 218.417 286.752 218.795C286.59 219.167 286.419 219.476 286.239 219.722H290.532ZM293.907 219.668V223.583C293.907 223.751 293.859 223.883 293.763 223.979C293.673 224.075 293.553 224.123 293.403 224.123H292.314V221H284.844V223.619C284.844 223.751 284.805 223.868 284.727 223.97C284.649 224.072 284.526 224.123 284.358 224.123H283.242V219.722H283.539C283.749 219.722 283.956 219.689 284.16 219.623C284.364 219.557 284.559 219.425 284.745 219.227C284.937 219.029 285.117 218.75 285.285 218.39C285.453 218.03 285.606 217.559 285.744 216.977C285.882 216.395 286.002 215.687 286.104 214.853C286.206 214.013 286.287 213.014 286.347 211.856H292.233V219.668H293.907ZM299.222 211.712C299.894 211.712 300.5 211.823 301.04 212.045C301.586 212.261 302.048 212.576 302.426 212.99C302.81 213.398 303.104 213.893 303.308 214.475C303.512 215.051 303.614 215.699 303.614 216.419C303.614 217.139 303.512 217.79 303.308 218.372C303.104 218.954 302.81 219.449 302.426 219.857C302.048 220.265 301.586 220.58 301.04 220.802C300.5 221.018 299.894 221.126 299.222 221.126C298.544 221.126 297.932 221.018 297.386 220.802C296.846 220.58 296.384 220.265 296 219.857C295.616 219.449 295.319 218.954 295.109 218.372C294.905 217.79 294.803 217.139 294.803 216.419C294.803 215.699 294.905 215.051 295.109 214.475C295.319 213.893 295.616 213.398 296 212.99C296.384 212.576 296.846 212.261 297.386 212.045C297.932 211.823 298.544 211.712 299.222 211.712ZM299.222 219.758C300.086 219.758 300.731 219.467 301.157 218.885C301.583 218.303 301.796 217.484 301.796 216.428C301.796 215.372 301.583 214.553 301.157 213.971C300.731 213.383 300.086 213.089 299.222 213.089C298.346 213.089 297.692 213.383 297.26 213.971C296.834 214.553 296.621 215.372 296.621 216.428C296.621 217.484 296.834 218.303 297.26 218.885C297.692 219.467 298.346 219.758 299.222 219.758ZM311.099 212.333C311.189 212.195 311.309 212.081 311.459 211.991C311.609 211.901 311.768 211.856 311.936 211.856H313.313L311 215.312C310.856 215.54 310.706 215.726 310.55 215.87C310.394 216.014 310.202 216.125 309.974 216.203C310.262 216.287 310.505 216.413 310.703 216.581C310.901 216.743 311.078 216.956 311.234 217.22L313.565 221H312.35C312.032 221 311.786 220.949 311.612 220.847C311.444 220.739 311.3 220.586 311.18 220.388L309.506 217.625C309.368 217.397 309.194 217.226 308.984 217.112C308.78 216.998 308.543 216.941 308.273 216.941H307.328V221.009H305.573V211.856H307.328V215.762H308.156C308.408 215.762 308.621 215.711 308.795 215.609C308.975 215.507 309.128 215.357 309.254 215.159L311.099 212.333ZM323.004 211.856L317.928 223.655C317.874 223.787 317.802 223.889 317.712 223.961C317.622 224.033 317.49 224.069 317.316 224.069H316.011L317.685 220.424L313.932 211.856H315.462C315.612 211.856 315.729 211.892 315.813 211.964C315.897 212.036 315.957 212.117 315.993 212.207L318.315 217.697C318.363 217.835 318.408 217.976 318.45 218.12C318.498 218.258 318.537 218.396 318.567 218.534C318.609 218.39 318.654 218.249 318.702 218.111C318.75 217.967 318.801 217.826 318.855 217.688L321.096 212.207C321.138 212.105 321.204 212.021 321.294 211.955C321.384 211.889 321.486 211.856 321.6 211.856H323.004ZM334.633 211.829V221H333.049V215.186C333.049 215.006 333.058 214.802 333.076 214.574C333.1 214.346 333.133 214.136 333.175 213.944L330.115 219.362C330.061 219.464 329.992 219.545 329.908 219.605C329.824 219.659 329.725 219.686 329.611 219.686H329.413C329.305 219.686 329.206 219.659 329.116 219.605C329.032 219.545 328.963 219.464 328.909 219.362L325.804 213.926C325.84 214.118 325.87 214.331 325.894 214.565C325.918 214.793 325.93 215 325.93 215.186V221H324.346V211.829H325.768C325.888 211.829 326.008 211.856 326.128 211.91C326.248 211.964 326.35 212.069 326.434 212.225L329.107 216.743C329.185 216.887 329.257 217.04 329.323 217.202C329.389 217.364 329.452 217.526 329.512 217.688C329.572 217.526 329.632 217.364 329.692 217.202C329.758 217.04 329.83 216.887 329.908 216.743L332.545 212.225C332.629 212.063 332.731 211.958 332.851 211.91C332.971 211.856 333.091 211.829 333.211 211.829H334.633ZM343.147 215.411C343.147 215.063 343.096 214.742 342.994 214.448C342.898 214.154 342.754 213.899 342.562 213.683C342.37 213.467 342.136 213.299 341.86 213.179C341.584 213.059 341.266 212.999 340.906 212.999C340.168 212.999 339.586 213.212 339.16 213.638C338.74 214.064 338.473 214.655 338.359 215.411H343.147ZM344.596 219.695C344.38 219.947 344.131 220.166 343.849 220.352C343.567 220.532 343.267 220.679 342.949 220.793C342.631 220.907 342.301 220.991 341.959 221.045C341.623 221.099 341.29 221.126 340.96 221.126C340.33 221.126 339.745 221.021 339.205 220.811C338.671 220.595 338.206 220.283 337.81 219.875C337.42 219.461 337.114 218.951 336.892 218.345C336.676 217.733 336.568 217.031 336.568 216.239C336.568 215.603 336.667 215.012 336.865 214.466C337.063 213.914 337.345 213.434 337.711 213.026C338.083 212.618 338.536 212.297 339.07 212.063C339.604 211.829 340.204 211.712 340.87 211.712C341.428 211.712 341.941 211.805 342.409 211.991C342.883 212.171 343.291 212.435 343.633 212.783C343.975 213.131 344.242 213.56 344.434 214.07C344.632 214.58 344.731 215.162 344.731 215.816C344.731 216.086 344.701 216.269 344.641 216.365C344.581 216.455 344.47 216.5 344.308 216.5H338.314C338.332 217.046 338.41 217.523 338.548 217.931C338.686 218.333 338.875 218.669 339.115 218.939C339.361 219.209 339.652 219.41 339.988 219.542C340.324 219.674 340.699 219.74 341.113 219.74C341.503 219.74 341.839 219.695 342.121 219.605C342.409 219.515 342.655 219.419 342.859 219.317C343.069 219.209 343.243 219.11 343.381 219.02C343.525 218.93 343.651 218.885 343.759 218.885C343.903 218.885 344.014 218.939 344.092 219.047L344.596 219.695ZM354.322 211.856V221H352.558V216.788H348.373V221H346.618V211.856H348.373V215.456H352.558V211.856H354.322ZM364.437 213.188H360.99V221H359.226V213.188H355.779V211.856H364.437V213.188ZM369.465 219.713C370.065 219.713 370.515 219.569 370.815 219.281C371.115 218.987 371.265 218.615 371.265 218.165C371.265 217.961 371.232 217.769 371.166 217.589C371.1 217.403 370.995 217.244 370.851 217.112C370.707 216.974 370.518 216.866 370.284 216.788C370.056 216.704 369.774 216.662 369.438 216.662H367.575V219.713H369.465ZM369.438 215.384C370.068 215.384 370.599 215.462 371.031 215.618C371.469 215.768 371.82 215.972 372.084 216.23C372.348 216.482 372.537 216.776 372.651 217.112C372.771 217.442 372.831 217.787 372.831 218.147C372.831 218.561 372.756 218.945 372.606 219.299C372.462 219.647 372.246 219.947 371.958 220.199C371.67 220.451 371.316 220.649 370.896 220.793C370.482 220.931 370.005 221 369.465 221H365.901V211.856H367.575V215.384H369.438ZM376.512 211.856V221H374.757V211.856H376.512ZM62.671 238.856V248H60.907V242.024C60.907 241.904 60.913 241.772 60.925 241.628C60.937 241.478 60.955 241.328 60.979 241.178C60.919 241.304 60.859 241.424 60.799 241.538C60.745 241.646 60.688 241.742 60.628 241.826L56.425 247.559C56.359 247.667 56.272 247.769 56.164 247.865C56.056 247.961 55.933 248.009 55.795 248.009H54.733V238.856H56.488V244.841C56.488 244.961 56.482 245.096 56.47 245.246C56.458 245.39 56.44 245.534 56.416 245.678C56.536 245.414 56.653 245.201 56.767 245.039L60.97 239.297C61.036 239.195 61.123 239.096 61.231 239C61.345 238.904 61.471 238.856 61.609 238.856H62.671ZM73.5714 238.712C74.2434 238.712 74.8494 238.823 75.3894 239.045C75.9354 239.261 76.3974 239.576 76.7754 239.99C77.1594 240.398 77.4534 240.893 77.6574 241.475C77.8614 242.051 77.9634 242.699 77.9634 243.419C77.9634 244.139 77.8614 244.79 77.6574 245.372C77.4534 245.954 77.1594 246.449 76.7754 246.857C76.3974 247.265 75.9354 247.58 75.3894 247.802C74.8494 248.018 74.2434 248.126 73.5714 248.126C72.8934 248.126 72.2814 248.018 71.7354 247.802C71.1954 247.58 70.7334 247.265 70.3494 246.857C69.9654 246.449 69.6684 245.954 69.4584 245.372C69.2544 244.79 69.1524 244.139 69.1524 243.419C69.1524 242.699 69.2544 242.051 69.4584 241.475C69.6684 240.893 69.9654 240.398 70.3494 239.99C70.7334 239.576 71.1954 239.261 71.7354 239.045C72.2814 238.823 72.8934 238.712 73.5714 238.712ZM73.5714 246.758C74.4354 246.758 75.0804 246.467 75.5064 245.885C75.9324 245.303 76.1454 244.484 76.1454 243.428C76.1454 242.372 75.9324 241.553 75.5064 240.971C75.0804 240.383 74.4354 240.089 73.5714 240.089C72.6954 240.089 72.0414 240.383 71.6094 240.971C71.1834 241.553 70.9704 242.372 70.9704 243.428C70.9704 244.484 71.1834 245.303 71.6094 245.885C72.0414 246.467 72.6954 246.758 73.5714 246.758ZM87.2475 240.188H83.8005V248H82.0365V240.188H78.5895V238.856H87.2475V240.188ZM96.4155 248H94.6515V240.188H90.4665V248H88.7115V238.856H96.4155V248ZM100.627 245.75C100.915 246.128 101.224 246.392 101.554 246.542C101.89 246.692 102.265 246.767 102.679 246.767C103.483 246.767 104.104 246.479 104.542 245.903C104.986 245.321 105.208 244.475 105.208 243.365C105.208 242.783 105.157 242.288 105.055 241.88C104.959 241.466 104.815 241.13 104.623 240.872C104.437 240.608 104.206 240.416 103.93 240.296C103.654 240.17 103.342 240.107 102.994 240.107C102.484 240.107 102.04 240.221 101.662 240.449C101.29 240.677 100.945 241.001 100.627 241.421V245.75ZM100.537 240.224C100.729 239.996 100.933 239.789 101.149 239.603C101.371 239.411 101.608 239.249 101.86 239.117C102.112 238.979 102.379 238.874 102.661 238.802C102.949 238.724 103.255 238.685 103.579 238.685C104.101 238.685 104.572 238.787 104.992 238.991C105.418 239.195 105.781 239.495 106.081 239.891C106.381 240.287 106.612 240.776 106.774 241.358C106.942 241.94 107.026 242.609 107.026 243.365C107.026 244.043 106.933 244.673 106.747 245.255C106.567 245.831 106.306 246.332 105.964 246.758C105.628 247.184 105.214 247.52 104.722 247.766C104.236 248.006 103.687 248.126 103.075 248.126C102.529 248.126 102.061 248.036 101.671 247.856C101.281 247.676 100.933 247.424 100.627 247.1V251.069H98.8717V238.856H99.9247C100.171 238.856 100.324 238.973 100.384 239.207L100.537 240.224ZM113.893 243.941C113.179 243.965 112.573 244.022 112.075 244.112C111.577 244.196 111.172 244.31 110.86 244.454C110.548 244.598 110.323 244.769 110.185 244.967C110.047 245.159 109.978 245.375 109.978 245.615C109.978 245.843 110.014 246.041 110.086 246.209C110.164 246.371 110.266 246.506 110.392 246.614C110.524 246.716 110.677 246.791 110.851 246.839C111.025 246.887 111.214 246.911 111.418 246.911C111.688 246.911 111.934 246.884 112.156 246.83C112.384 246.776 112.597 246.701 112.795 246.605C112.993 246.503 113.182 246.38 113.362 246.236C113.542 246.092 113.719 245.927 113.893 245.741V243.941ZM108.745 240.134C109.255 239.648 109.807 239.285 110.401 239.045C111.001 238.805 111.658 238.685 112.372 238.685C112.894 238.685 113.356 238.772 113.758 238.946C114.16 239.114 114.499 239.351 114.775 239.657C115.051 239.963 115.258 240.329 115.396 240.755C115.54 241.181 115.612 241.652 115.612 242.168V248H114.829C114.655 248 114.523 247.973 114.433 247.919C114.343 247.859 114.271 247.751 114.217 247.595L114.028 246.794C113.794 247.01 113.563 247.202 113.335 247.37C113.107 247.532 112.867 247.673 112.615 247.793C112.369 247.907 112.105 247.994 111.823 248.054C111.541 248.114 111.229 248.144 110.887 248.144C110.527 248.144 110.188 248.096 109.87 248C109.558 247.898 109.285 247.745 109.051 247.541C108.817 247.337 108.631 247.082 108.493 246.776C108.361 246.47 108.295 246.113 108.295 245.705C108.295 245.345 108.391 245 108.583 244.67C108.781 244.334 109.099 244.034 109.537 243.77C109.981 243.506 110.557 243.29 111.265 243.122C111.979 242.954 112.855 242.858 113.893 242.834V242.168C113.893 241.478 113.746 240.962 113.452 240.62C113.158 240.278 112.726 240.107 112.156 240.107C111.772 240.107 111.448 240.155 111.184 240.251C110.926 240.347 110.701 240.455 110.509 240.575C110.323 240.689 110.158 240.794 110.014 240.89C109.876 240.986 109.732 241.034 109.582 241.034C109.462 241.034 109.357 241.001 109.267 240.935C109.183 240.869 109.114 240.791 109.06 240.701L108.745 240.134ZM121.526 246.767C122.09 246.767 122.537 246.635 122.867 246.371C123.197 246.101 123.362 245.738 123.362 245.282C123.362 245.084 123.332 244.901 123.272 244.733C123.212 244.559 123.11 244.409 122.966 244.283C122.822 244.157 122.633 244.061 122.399 243.995C122.165 243.923 121.877 243.887 121.535 243.887H119.636V246.767H121.526ZM119.636 240.026V242.771H121.319C121.571 242.771 121.802 242.735 122.012 242.663C122.228 242.591 122.411 242.492 122.561 242.366C122.717 242.234 122.837 242.078 122.921 241.898C123.011 241.712 123.056 241.511 123.056 241.295C123.056 241.133 123.026 240.977 122.966 240.827C122.912 240.677 122.816 240.542 122.678 240.422C122.546 240.302 122.369 240.206 122.147 240.134C121.925 240.062 121.649 240.026 121.319 240.026H119.636ZM121.373 238.856C121.937 238.856 122.423 238.913 122.831 239.027C123.239 239.135 123.575 239.288 123.839 239.486C124.103 239.684 124.295 239.915 124.415 240.179C124.541 240.443 124.604 240.728 124.604 241.034C124.604 241.232 124.577 241.439 124.523 241.655C124.469 241.871 124.376 242.078 124.244 242.276C124.112 242.468 123.932 242.645 123.704 242.807C123.482 242.969 123.197 243.095 122.849 243.185C123.521 243.305 124.043 243.545 124.415 243.905C124.793 244.265 124.982 244.742 124.982 245.336C124.982 245.786 124.889 246.179 124.703 246.515C124.523 246.845 124.277 247.121 123.965 247.343C123.653 247.565 123.287 247.73 122.867 247.838C122.447 247.946 122.003 248 121.535 248H117.962V238.856H121.373ZM130.49 246.713C131.09 246.713 131.54 246.569 131.84 246.281C132.14 245.987 132.29 245.615 132.29 245.165C132.29 244.961 132.257 244.769 132.191 244.589C132.125 244.403 132.02 244.244 131.876 244.112C131.732 243.974 131.543 243.866 131.309 243.788C131.081 243.704 130.799 243.662 130.463 243.662H128.6V246.713H130.49ZM130.463 242.384C131.093 242.384 131.624 242.462 132.056 242.618C132.494 242.768 132.845 242.972 133.109 243.23C133.373 243.482 133.562 243.776 133.676 244.112C133.796 244.442 133.856 244.787 133.856 245.147C133.856 245.561 133.781 245.945 133.631 246.299C133.487 246.647 133.271 246.947 132.983 247.199C132.695 247.451 132.341 247.649 131.921 247.793C131.507 247.931 131.03 248 130.49 248H126.926V238.856H128.6V242.384H130.463ZM142.003 240.188H138.556V248H136.792V240.188H133.345V238.856H142.003V240.188ZM149.19 242.411C149.19 242.063 149.139 241.742 149.037 241.448C148.941 241.154 148.797 240.899 148.605 240.683C148.413 240.467 148.179 240.299 147.903 240.179C147.627 240.059 147.309 239.999 146.949 239.999C146.211 239.999 145.629 240.212 145.203 240.638C144.783 241.064 144.516 241.655 144.402 242.411H149.19ZM150.639 246.695C150.423 246.947 150.174 247.166 149.892 247.352C149.61 247.532 149.31 247.679 148.992 247.793C148.674 247.907 148.344 247.991 148.002 248.045C147.666 248.099 147.333 248.126 147.003 248.126C146.373 248.126 145.788 248.021 145.248 247.811C144.714 247.595 144.249 247.283 143.853 246.875C143.463 246.461 143.157 245.951 142.935 245.345C142.719 244.733 142.611 244.031 142.611 243.239C142.611 242.603 142.71 242.012 142.908 241.466C143.106 240.914 143.388 240.434 143.754 240.026C144.126 239.618 144.579 239.297 145.113 239.063C145.647 238.829 146.247 238.712 146.913 238.712C147.471 238.712 147.984 238.805 148.452 238.991C148.926 239.171 149.334 239.435 149.676 239.783C150.018 240.131 150.285 240.56 150.477 241.07C150.675 241.58 150.774 242.162 150.774 242.816C150.774 243.086 150.744 243.269 150.684 243.365C150.624 243.455 150.513 243.5 150.351 243.5H144.357C144.375 244.046 144.453 244.523 144.591 244.931C144.729 245.333 144.918 245.669 145.158 245.939C145.404 246.209 145.695 246.41 146.031 246.542C146.367 246.674 146.742 246.74 147.156 246.74C147.546 246.74 147.882 246.695 148.164 246.605C148.452 246.515 148.698 246.419 148.902 246.317C149.112 246.209 149.286 246.11 149.424 246.02C149.568 245.93 149.694 245.885 149.802 245.885C149.946 245.885 150.057 245.939 150.135 246.047L150.639 246.695ZM156.637 239.81C156.979 239.486 157.399 239.222 157.897 239.018C158.395 238.814 158.992 238.712 159.688 238.712C160.246 238.712 160.738 238.781 161.164 238.919C161.59 239.051 161.947 239.231 162.235 239.459C162.529 239.681 162.748 239.936 162.892 240.224C163.042 240.512 163.117 240.812 163.117 241.124C163.117 241.304 163.087 241.493 163.027 241.691C162.973 241.883 162.883 242.069 162.757 242.249C162.631 242.429 162.463 242.597 162.253 242.753C162.049 242.903 161.794 243.029 161.488 243.131C162.052 243.305 162.499 243.581 162.829 243.959C163.159 244.337 163.324 244.808 163.324 245.372C163.324 245.798 163.225 246.182 163.027 246.524C162.835 246.866 162.574 247.157 162.244 247.397C161.914 247.631 161.533 247.811 161.101 247.937C160.669 248.063 160.219 248.126 159.751 248.126C159.463 248.126 159.166 248.099 158.86 248.045C158.56 247.991 158.263 247.907 157.969 247.793C157.675 247.679 157.396 247.532 157.132 247.352C156.868 247.172 156.631 246.953 156.421 246.695L156.925 246.047C157.003 245.939 157.114 245.885 157.258 245.885C157.372 245.885 157.489 245.933 157.609 246.029C157.735 246.119 157.885 246.218 158.059 246.326C158.239 246.434 158.452 246.536 158.698 246.632C158.95 246.722 159.262 246.767 159.634 246.767C159.952 246.767 160.234 246.728 160.48 246.65C160.732 246.572 160.942 246.464 161.11 246.326C161.284 246.188 161.416 246.026 161.506 245.84C161.596 245.654 161.641 245.45 161.641 245.228C161.641 244.796 161.464 244.451 161.11 244.193C160.756 243.935 160.21 243.806 159.472 243.806H158.437V242.636H159.472C160.12 242.636 160.624 242.516 160.984 242.276C161.344 242.03 161.524 241.715 161.524 241.331C161.524 241.163 161.485 241.004 161.407 240.854C161.329 240.698 161.209 240.563 161.047 240.449C160.891 240.329 160.693 240.236 160.453 240.17C160.219 240.104 159.946 240.071 159.634 240.071C159.286 240.071 158.992 240.107 158.752 240.179C158.512 240.245 158.308 240.32 158.14 240.404C157.972 240.488 157.831 240.566 157.717 240.638C157.609 240.704 157.516 240.737 157.438 240.737C157.354 240.737 157.282 240.722 157.222 240.692C157.168 240.656 157.108 240.587 157.042 240.485L156.637 239.81ZM170.213 243.941C169.499 243.965 168.893 244.022 168.395 244.112C167.897 244.196 167.492 244.31 167.18 244.454C166.868 244.598 166.643 244.769 166.505 244.967C166.367 245.159 166.298 245.375 166.298 245.615C166.298 245.843 166.334 246.041 166.406 246.209C166.484 246.371 166.586 246.506 166.712 246.614C166.844 246.716 166.997 246.791 167.171 246.839C167.345 246.887 167.534 246.911 167.738 246.911C168.008 246.911 168.254 246.884 168.476 246.83C168.704 246.776 168.917 246.701 169.115 246.605C169.313 246.503 169.502 246.38 169.682 246.236C169.862 246.092 170.039 245.927 170.213 245.741V243.941ZM165.065 240.134C165.575 239.648 166.127 239.285 166.721 239.045C167.321 238.805 167.978 238.685 168.692 238.685C169.214 238.685 169.676 238.772 170.078 238.946C170.48 239.114 170.819 239.351 171.095 239.657C171.371 239.963 171.578 240.329 171.716 240.755C171.86 241.181 171.932 241.652 171.932 242.168V248H171.149C170.975 248 170.843 247.973 170.753 247.919C170.663 247.859 170.591 247.751 170.537 247.595L170.348 246.794C170.114 247.01 169.883 247.202 169.655 247.37C169.427 247.532 169.187 247.673 168.935 247.793C168.689 247.907 168.425 247.994 168.143 248.054C167.861 248.114 167.549 248.144 167.207 248.144C166.847 248.144 166.508 248.096 166.19 248C165.878 247.898 165.605 247.745 165.371 247.541C165.137 247.337 164.951 247.082 164.813 246.776C164.681 246.47 164.615 246.113 164.615 245.705C164.615 245.345 164.711 245 164.903 244.67C165.101 244.334 165.419 244.034 165.857 243.77C166.301 243.506 166.877 243.29 167.585 243.122C168.299 242.954 169.175 242.858 170.213 242.834V242.168C170.213 241.478 170.066 240.962 169.772 240.62C169.478 240.278 169.046 240.107 168.476 240.107C168.092 240.107 167.768 240.155 167.504 240.251C167.246 240.347 167.021 240.455 166.829 240.575C166.643 240.689 166.478 240.794 166.334 240.89C166.196 240.986 166.052 241.034 165.902 241.034C165.782 241.034 165.677 241.001 165.587 240.935C165.503 240.869 165.434 240.791 165.38 240.701L165.065 240.134ZM179.079 243.077V240.026H177.63C177.3 240.026 177.024 240.074 176.802 240.17C176.58 240.26 176.4 240.38 176.262 240.53C176.13 240.68 176.034 240.845 175.974 241.025C175.92 241.205 175.893 241.385 175.893 241.565C175.893 242.039 176.064 242.411 176.406 242.681C176.748 242.945 177.213 243.077 177.801 243.077H179.079ZM180.753 238.856V248H179.079V244.193H178.458C178.284 244.193 178.14 244.208 178.026 244.238C177.912 244.262 177.813 244.301 177.729 244.355C177.651 244.409 177.582 244.475 177.522 244.553C177.462 244.631 177.402 244.718 177.342 244.814L175.479 247.388C175.419 247.49 175.356 247.58 175.29 247.658C175.224 247.73 175.149 247.793 175.065 247.847C174.981 247.895 174.882 247.934 174.768 247.964C174.654 247.988 174.519 248 174.363 248H173.148L175.713 244.607C175.935 244.229 176.238 243.974 176.622 243.842C176.166 243.782 175.779 243.674 175.461 243.518C175.149 243.356 174.894 243.17 174.696 242.96C174.498 242.744 174.354 242.51 174.264 242.258C174.174 242 174.129 241.739 174.129 241.475C174.129 241.151 174.192 240.833 174.318 240.521C174.444 240.209 174.645 239.93 174.921 239.684C175.197 239.438 175.554 239.24 175.992 239.09C176.43 238.934 176.958 238.856 177.576 238.856H180.753ZM186.776 246.767C187.34 246.767 187.787 246.635 188.117 246.371C188.447 246.101 188.612 245.738 188.612 245.282C188.612 245.084 188.582 244.901 188.522 244.733C188.462 244.559 188.36 244.409 188.216 244.283C188.072 244.157 187.883 244.061 187.649 243.995C187.415 243.923 187.127 243.887 186.785 243.887H184.886V246.767H186.776ZM184.886 240.026V242.771H186.569C186.821 242.771 187.052 242.735 187.262 242.663C187.478 242.591 187.661 242.492 187.811 242.366C187.967 242.234 188.087 242.078 188.171 241.898C188.261 241.712 188.306 241.511 188.306 241.295C188.306 241.133 188.276 240.977 188.216 240.827C188.162 240.677 188.066 240.542 187.928 240.422C187.796 240.302 187.619 240.206 187.397 240.134C187.175 240.062 186.899 240.026 186.569 240.026H184.886ZM186.623 238.856C187.187 238.856 187.673 238.913 188.081 239.027C188.489 239.135 188.825 239.288 189.089 239.486C189.353 239.684 189.545 239.915 189.665 240.179C189.791 240.443 189.854 240.728 189.854 241.034C189.854 241.232 189.827 241.439 189.773 241.655C189.719 241.871 189.626 242.078 189.494 242.276C189.362 242.468 189.182 242.645 188.954 242.807C188.732 242.969 188.447 243.095 188.099 243.185C188.771 243.305 189.293 243.545 189.665 243.905C190.043 244.265 190.232 244.742 190.232 245.336C190.232 245.786 190.139 246.179 189.953 246.515C189.773 246.845 189.527 247.121 189.215 247.343C188.903 247.565 188.537 247.73 188.117 247.838C187.697 247.946 187.253 248 186.785 248H183.212V238.856H186.623ZM197.702 239.333C197.792 239.195 197.912 239.081 198.062 238.991C198.212 238.901 198.371 238.856 198.539 238.856H199.916L197.603 242.312C197.459 242.54 197.309 242.726 197.153 242.87C196.997 243.014 196.805 243.125 196.577 243.203C196.865 243.287 197.108 243.413 197.306 243.581C197.504 243.743 197.681 243.956 197.837 244.22L200.168 248H198.953C198.635 248 198.389 247.949 198.215 247.847C198.047 247.739 197.903 247.586 197.783 247.388L196.109 244.625C195.971 244.397 195.797 244.226 195.587 244.112C195.383 243.998 195.146 243.941 194.876 243.941H193.931V248.009H192.176V238.856H193.931V242.762H194.759C195.011 242.762 195.224 242.711 195.398 242.609C195.578 242.507 195.731 242.357 195.857 242.159L197.702 239.333ZM209.608 238.856L204.532 250.655C204.478 250.787 204.406 250.889 204.316 250.961C204.226 251.033 204.094 251.069 203.92 251.069H202.615L204.289 247.424L200.536 238.856H202.066C202.216 238.856 202.333 238.892 202.417 238.964C202.501 239.036 202.561 239.117 202.597 239.207L204.919 244.697C204.967 244.835 205.012 244.976 205.054 245.12C205.102 245.258 205.141 245.396 205.171 245.534C205.213 245.39 205.258 245.249 205.306 245.111C205.354 244.967 205.405 244.826 205.459 244.688L207.7 239.207C207.742 239.105 207.808 239.021 207.898 238.955C207.988 238.889 208.09 238.856 208.204 238.856H209.608ZM223.207 238.856V248H221.443V243.788H217.258V248H215.503V238.856H217.258V242.456H221.443V238.856H223.207ZM230.577 243.941C229.863 243.965 229.257 244.022 228.759 244.112C228.261 244.196 227.856 244.31 227.544 244.454C227.232 244.598 227.007 244.769 226.869 244.967C226.731 245.159 226.662 245.375 226.662 245.615C226.662 245.843 226.698 246.041 226.77 246.209C226.848 246.371 226.95 246.506 227.076 246.614C227.208 246.716 227.361 246.791 227.535 246.839C227.709 246.887 227.898 246.911 228.102 246.911C228.372 246.911 228.618 246.884 228.84 246.83C229.068 246.776 229.281 246.701 229.479 246.605C229.677 246.503 229.866 246.38 230.046 246.236C230.226 246.092 230.403 245.927 230.577 245.741V243.941ZM225.429 240.134C225.939 239.648 226.491 239.285 227.085 239.045C227.685 238.805 228.342 238.685 229.056 238.685C229.578 238.685 230.04 238.772 230.442 238.946C230.844 239.114 231.183 239.351 231.459 239.657C231.735 239.963 231.942 240.329 232.08 240.755C232.224 241.181 232.296 241.652 232.296 242.168V248H231.513C231.339 248 231.207 247.973 231.117 247.919C231.027 247.859 230.955 247.751 230.901 247.595L230.712 246.794C230.478 247.01 230.247 247.202 230.019 247.37C229.791 247.532 229.551 247.673 229.299 247.793C229.053 247.907 228.789 247.994 228.507 248.054C228.225 248.114 227.913 248.144 227.571 248.144C227.211 248.144 226.872 248.096 226.554 248C226.242 247.898 225.969 247.745 225.735 247.541C225.501 247.337 225.315 247.082 225.177 246.776C225.045 246.47 224.979 246.113 224.979 245.705C224.979 245.345 225.075 245 225.267 244.67C225.465 244.334 225.783 244.034 226.221 243.77C226.665 243.506 227.241 243.29 227.949 243.122C228.663 242.954 229.539 242.858 230.577 242.834V242.168C230.577 241.478 230.43 240.962 230.136 240.62C229.842 240.278 229.41 240.107 228.84 240.107C228.456 240.107 228.132 240.155 227.868 240.251C227.61 240.347 227.385 240.455 227.193 240.575C227.007 240.689 226.842 240.794 226.698 240.89C226.56 240.986 226.416 241.034 226.266 241.034C226.146 241.034 226.041 241.001 225.951 240.935C225.867 240.869 225.798 240.791 225.744 240.701L225.429 240.134ZM247.325 248H245.57V240.233H242.843C242.771 241.385 242.663 242.381 242.519 243.221C242.375 244.055 242.201 244.766 241.997 245.354C241.793 245.936 241.565 246.41 241.313 246.776C241.067 247.136 240.803 247.418 240.521 247.622C240.245 247.82 239.96 247.952 239.666 248.018C239.372 248.09 239.078 248.126 238.784 248.126C238.238 248.126 237.965 248.036 237.965 247.856V246.749H238.451C238.655 246.749 238.859 246.716 239.063 246.65C239.273 246.578 239.477 246.443 239.675 246.245C239.879 246.041 240.071 245.759 240.251 245.399C240.431 245.039 240.596 244.568 240.746 243.986C240.896 243.398 241.025 242.684 241.133 241.844C241.241 241.004 241.325 240.008 241.385 238.856H247.325V248ZM255.854 242.411C255.854 242.063 255.803 241.742 255.701 241.448C255.605 241.154 255.461 240.899 255.269 240.683C255.077 240.467 254.843 240.299 254.567 240.179C254.291 240.059 253.973 239.999 253.613 239.999C252.875 239.999 252.293 240.212 251.867 240.638C251.447 241.064 251.18 241.655 251.066 242.411H255.854ZM257.303 246.695C257.087 246.947 256.838 247.166 256.556 247.352C256.274 247.532 255.974 247.679 255.656 247.793C255.338 247.907 255.008 247.991 254.666 248.045C254.33 248.099 253.997 248.126 253.667 248.126C253.037 248.126 252.452 248.021 251.912 247.811C251.378 247.595 250.913 247.283 250.517 246.875C250.127 246.461 249.821 245.951 249.599 245.345C249.383 244.733 249.275 244.031 249.275 243.239C249.275 242.603 249.374 242.012 249.572 241.466C249.77 240.914 250.052 240.434 250.418 240.026C250.79 239.618 251.243 239.297 251.777 239.063C252.311 238.829 252.911 238.712 253.577 238.712C254.135 238.712 254.648 238.805 255.116 238.991C255.59 239.171 255.998 239.435 256.34 239.783C256.682 240.131 256.949 240.56 257.141 241.07C257.339 241.58 257.438 242.162 257.438 242.816C257.438 243.086 257.408 243.269 257.348 243.365C257.288 243.455 257.177 243.5 257.015 243.5H251.021C251.039 244.046 251.117 244.523 251.255 244.931C251.393 245.333 251.582 245.669 251.822 245.939C252.068 246.209 252.359 246.41 252.695 246.542C253.031 246.674 253.406 246.74 253.82 246.74C254.21 246.74 254.546 246.695 254.828 246.605C255.116 246.515 255.362 246.419 255.566 246.317C255.776 246.209 255.95 246.11 256.088 246.02C256.232 245.93 256.358 245.885 256.466 245.885C256.61 245.885 256.721 245.939 256.799 246.047L257.303 246.695ZM266.183 238.856V248H264.428V244.193C263.642 244.397 262.907 244.523 262.223 244.571C261.539 244.613 260.942 244.553 260.432 244.391C259.922 244.223 259.52 243.938 259.226 243.536C258.938 243.128 258.794 242.576 258.794 241.88V238.856H260.558V241.61C260.558 242.03 260.639 242.366 260.801 242.618C260.963 242.864 261.206 243.038 261.53 243.14C261.854 243.236 262.256 243.266 262.736 243.23C263.222 243.188 263.786 243.095 264.428 242.951V238.856H266.183ZM274.698 242.411C274.698 242.063 274.647 241.742 274.545 241.448C274.449 241.154 274.305 240.899 274.113 240.683C273.921 240.467 273.687 240.299 273.411 240.179C273.135 240.059 272.817 239.999 272.457 239.999C271.719 239.999 271.137 240.212 270.711 240.638C270.291 241.064 270.024 241.655 269.91 242.411H274.698ZM276.147 246.695C275.931 246.947 275.682 247.166 275.4 247.352C275.118 247.532 274.818 247.679 274.5 247.793C274.182 247.907 273.852 247.991 273.51 248.045C273.174 248.099 272.841 248.126 272.511 248.126C271.881 248.126 271.296 248.021 270.756 247.811C270.222 247.595 269.757 247.283 269.361 246.875C268.971 246.461 268.665 245.951 268.443 245.345C268.227 244.733 268.119 244.031 268.119 243.239C268.119 242.603 268.218 242.012 268.416 241.466C268.614 240.914 268.896 240.434 269.262 240.026C269.634 239.618 270.087 239.297 270.621 239.063C271.155 238.829 271.755 238.712 272.421 238.712C272.979 238.712 273.492 238.805 273.96 238.991C274.434 239.171 274.842 239.435 275.184 239.783C275.526 240.131 275.793 240.56 275.985 241.07C276.183 241.58 276.282 242.162 276.282 242.816C276.282 243.086 276.252 243.269 276.192 243.365C276.132 243.455 276.021 243.5 275.859 243.5H269.865C269.883 244.046 269.961 244.523 270.099 244.931C270.237 245.333 270.426 245.669 270.666 245.939C270.912 246.209 271.203 246.41 271.539 246.542C271.875 246.674 272.25 246.74 272.664 246.74C273.054 246.74 273.39 246.695 273.672 246.605C273.96 246.515 274.206 246.419 274.41 246.317C274.62 246.209 274.794 246.11 274.932 246.02C275.076 245.93 275.202 245.885 275.31 245.885C275.454 245.885 275.565 245.939 275.643 246.047L276.147 246.695ZM285.873 238.856V248H284.109V243.788H279.924V248H278.169V238.856H279.924V242.456H284.109V238.856H285.873ZM296.267 238.856V248H294.503V242.024C294.503 241.904 294.509 241.772 294.521 241.628C294.533 241.478 294.551 241.328 294.575 241.178C294.515 241.304 294.455 241.424 294.395 241.538C294.341 241.646 294.284 241.742 294.224 241.826L290.021 247.559C289.955 247.667 289.868 247.769 289.76 247.865C289.652 247.961 289.529 248.009 289.391 248.009H288.329V238.856H290.084V244.841C290.084 244.961 290.078 245.096 290.066 245.246C290.054 245.39 290.036 245.534 290.012 245.678C290.132 245.414 290.249 245.201 290.363 245.039L294.566 239.297C294.632 239.195 294.719 239.096 294.827 239C294.941 238.904 295.067 238.856 295.205 238.856H296.267ZM304.774 242.411C304.774 242.063 304.723 241.742 304.621 241.448C304.525 241.154 304.381 240.899 304.189 240.683C303.997 240.467 303.763 240.299 303.487 240.179C303.211 240.059 302.893 239.999 302.533 239.999C301.795 239.999 301.213 240.212 300.787 240.638C300.367 241.064 300.1 241.655 299.986 242.411H304.774ZM306.223 246.695C306.007 246.947 305.758 247.166 305.476 247.352C305.194 247.532 304.894 247.679 304.576 247.793C304.258 247.907 303.928 247.991 303.586 248.045C303.25 248.099 302.917 248.126 302.587 248.126C301.957 248.126 301.372 248.021 300.832 247.811C300.298 247.595 299.833 247.283 299.437 246.875C299.047 246.461 298.741 245.951 298.519 245.345C298.303 244.733 298.195 244.031 298.195 243.239C298.195 242.603 298.294 242.012 298.492 241.466C298.69 240.914 298.972 240.434 299.338 240.026C299.71 239.618 300.163 239.297 300.697 239.063C301.231 238.829 301.831 238.712 302.497 238.712C303.055 238.712 303.568 238.805 304.036 238.991C304.51 239.171 304.918 239.435 305.26 239.783C305.602 240.131 305.869 240.56 306.061 241.07C306.259 241.58 306.358 242.162 306.358 242.816C306.358 243.086 306.328 243.269 306.268 243.365C306.208 243.455 306.097 243.5 305.935 243.5H299.941C299.959 244.046 300.037 244.523 300.175 244.931C300.313 245.333 300.502 245.669 300.742 245.939C300.988 246.209 301.279 246.41 301.615 246.542C301.951 246.674 302.326 246.74 302.74 246.74C303.13 246.74 303.466 246.695 303.748 246.605C304.036 246.515 304.282 246.419 304.486 246.317C304.696 246.209 304.87 246.11 305.008 246.02C305.152 245.93 305.278 245.885 305.386 245.885C305.53 245.885 305.641 245.939 305.719 246.047L306.223 246.695Z" fill="#434343"/>
<defs>
<filter id="filter0_d_301_6910" x="0.5" y="45" width="422" height="318" filterUnits="userSpaceOnUse" color-interpolation-filters="sRGB">
<feFlood flood-opacity="0" result="BackgroundImageFix"/>
<feColorMatrix in="SourceAlpha" type="matrix" values="0 0 0 0 0 0 0 0 0 0 0 0 0 0 0 0 0 0 127 0" result="hardAlpha"/>
<feOffset dy="4"/>
<feGaussianBlur stdDeviation="15"/>
<feComposite in2="hardAlpha" operator="out"/>
<feColorMatrix type="matrix" values="0 0 0 0 0 0 0 0 0 0 0 0 0 0 0 0 0 0 0.15 0"/>
<feBlend mode="normal" in2="BackgroundImageFix" result="effect1_dropShadow_301_6910"/>
<feBlend mode="normal" in="SourceGraphic" in2="effect1_dropShadow_301_6910" result="shape"/>
</filter>
<linearGradient id="paint0_linear_301_6910" x1="46.5" y1="0" x2="46.5" y2="123" gradientUnits="userSpaceOnUse">
<stop stop-color="#3BB96D"/>
<stop offset="1" stop-color="#279A59"/>
</linearGradient>
<linearGradient id="paint1_linear_301_6910" x1="93.5" y1="101" x2="93.5" y2="181" gradientUnits="userSpaceOnUse">
<stop stop-color="#3BB96D"/>
<stop offset="1" stop-color="#279A59"/>
</linearGradient>
</defs>
</svg>
