<svg width="423" height="363" viewBox="0 0 423 363" fill="none" xmlns="http://www.w3.org/2000/svg">
<path d="M22.559 50.278C22.9963 47.3807 23.8163 44.8387 25.019 42.652C26.2217 40.4653 27.725 38.6477 29.529 37.199C31.333 35.7503 33.383 34.6707 35.679 33.96C38.0023 33.222 40.5033 32.853 43.182 32.853C46.0247 32.853 48.5667 33.263 50.808 34.083C53.0767 34.8757 54.99 35.969 56.548 37.363C58.106 38.757 59.295 40.3833 60.115 42.242C60.9623 44.1007 61.386 46.096 61.386 48.228C61.386 50.114 61.181 51.7813 60.771 53.23C60.3883 54.6513 59.8007 55.895 59.008 56.961C58.2427 58.027 57.286 58.929 56.138 59.667C55.0173 60.405 53.719 61.02 52.243 61.512C59.0763 63.7533 62.493 68.3043 62.493 75.165C62.493 78.199 61.9327 80.8777 60.812 83.201C59.6913 85.497 58.188 87.424 56.302 88.982C54.416 90.54 52.2157 91.7153 49.701 92.508C47.2137 93.2733 44.6033 93.656 41.87 93.656C38.9727 93.656 36.417 93.328 34.203 92.672C31.989 92.016 30.0347 91.032 28.34 89.72C26.6727 88.408 25.2377 86.768 24.035 84.8C22.8323 82.8047 21.78 80.4813 20.878 77.83L25.88 75.78C27.192 75.2333 28.4083 75.083 29.529 75.329C30.677 75.575 31.497 76.1763 31.989 77.133C32.5357 78.1717 33.1097 79.1283 33.711 80.003C34.3397 80.8777 35.0367 81.643 35.802 82.299C36.5673 82.9277 37.4283 83.4197 38.385 83.775C39.369 84.1303 40.4897 84.308 41.747 84.308C43.3323 84.308 44.7127 84.0483 45.888 83.529C47.0633 83.0097 48.0473 82.34 48.84 81.52C49.6327 80.6727 50.2203 79.7297 50.603 78.691C51.013 77.625 51.218 76.5727 51.218 75.534C51.218 74.1673 51.095 72.9373 50.849 71.844C50.603 70.7233 50.029 69.7803 49.127 69.015C48.2523 68.2223 46.9403 67.621 45.191 67.211C43.469 66.7737 41.1183 66.555 38.139 66.555V58.601C40.6263 58.601 42.6627 58.396 44.248 57.986C45.8333 57.576 47.077 57.002 47.979 56.264C48.881 55.526 49.496 54.6377 49.824 53.599C50.1793 52.5603 50.357 51.426 50.357 50.196C50.357 47.5993 49.6737 45.6177 48.307 44.251C46.9677 42.8843 45.0543 42.201 42.567 42.201C41.4737 42.201 40.4623 42.365 39.533 42.693C38.631 42.9937 37.811 43.4173 37.073 43.964C36.3623 44.5107 35.7473 45.153 35.228 45.891C34.7087 46.629 34.326 47.4353 34.08 48.31C33.5607 49.6767 32.891 50.5923 32.071 51.057C31.251 51.4943 30.062 51.59 28.504 51.344L22.559 50.278Z" fill="url(#paint0_linear_301_6922)"/>
<g filter="url(#filter0_d_301_6922)">
<rect x="30.5" y="71" width="362" height="258" rx="10" fill="white"/>
</g>
<circle cx="93.5" cy="141" r="40" fill="url(#paint1_linear_301_6922)"/>
<g clip-path="url(#clip0_301_6922)">
<path d="M106.932 146.004C104.973 146.004 103.049 145.698 101.227 145.096C100.333 144.791 99.2353 145.07 98.6901 145.63L95.092 148.346C90.9193 146.119 88.3489 143.55 86.1519 139.408L88.7882 135.904C89.4731 135.22 89.7188 134.221 89.4244 133.283C88.8194 131.451 88.5121 129.528 88.5121 127.568C88.5122 126.152 87.3603 125 85.9444 125H80.0677C78.6519 125 77.5 126.152 77.5 127.568C77.5 143.797 90.7032 157 106.932 157C108.348 157 109.5 155.848 109.5 154.432V148.572C109.5 147.156 108.348 146.004 106.932 146.004Z" fill="white"/>
</g>
<path d="M59.71 219.479C60.196 219.479 60.61 219.422 60.952 219.308C61.3 219.194 61.582 219.038 61.798 218.84C62.02 218.642 62.182 218.408 62.284 218.138C62.386 217.862 62.437 217.562 62.437 217.238C62.437 216.596 62.215 216.092 61.771 215.726C61.327 215.354 60.64 215.168 59.71 215.168H57.01V219.479H59.71ZM57.01 209.579V213.809H59.215C60.157 213.809 60.856 213.62 61.312 213.242C61.774 212.858 62.005 212.342 62.005 211.694C62.005 210.956 61.786 210.419 61.348 210.083C60.91 209.747 60.229 209.579 59.305 209.579H57.01ZM59.305 208.076C60.115 208.076 60.808 208.154 61.384 208.31C61.966 208.466 62.443 208.691 62.815 208.985C63.187 209.279 63.46 209.636 63.634 210.056C63.814 210.47 63.904 210.941 63.904 211.469C63.904 211.781 63.856 212.081 63.76 212.369C63.664 212.657 63.517 212.927 63.319 213.179C63.121 213.425 62.872 213.647 62.572 213.845C62.272 214.043 61.918 214.208 61.51 214.34C63.388 214.712 64.327 215.693 64.327 217.283C64.327 217.835 64.225 218.339 64.021 218.795C63.817 219.245 63.52 219.635 63.13 219.965C62.74 220.295 62.26 220.55 61.69 220.73C61.12 220.91 60.472 221 59.746 221H55.093V208.076H59.305ZM78.6342 213.188H75.1872V221H73.4232V213.188H69.9762V211.856H78.6342V213.188ZM85.8213 215.411C85.8213 215.063 85.7703 214.742 85.6683 214.448C85.5723 214.154 85.4283 213.899 85.2363 213.683C85.0443 213.467 84.8103 213.299 84.5343 213.179C84.2583 213.059 83.9403 212.999 83.5803 212.999C82.8423 212.999 82.2603 213.212 81.8343 213.638C81.4143 214.064 81.1473 214.655 81.0333 215.411H85.8213ZM87.2703 219.695C87.0543 219.947 86.8053 220.166 86.5233 220.352C86.2413 220.532 85.9413 220.679 85.6233 220.793C85.3053 220.907 84.9753 220.991 84.6333 221.045C84.2973 221.099 83.9643 221.126 83.6343 221.126C83.0043 221.126 82.4193 221.021 81.8793 220.811C81.3453 220.595 80.8803 220.283 80.4843 219.875C80.0943 219.461 79.7883 218.951 79.5663 218.345C79.3503 217.733 79.2423 217.031 79.2423 216.239C79.2423 215.603 79.3413 215.012 79.5393 214.466C79.7373 213.914 80.0193 213.434 80.3853 213.026C80.7573 212.618 81.2103 212.297 81.7443 212.063C82.2783 211.829 82.8783 211.712 83.5443 211.712C84.1023 211.712 84.6153 211.805 85.0833 211.991C85.5573 212.171 85.9653 212.435 86.3073 212.783C86.6493 213.131 86.9163 213.56 87.1083 214.07C87.3063 214.58 87.4053 215.162 87.4053 215.816C87.4053 216.086 87.3753 216.269 87.3153 216.365C87.2553 216.455 87.1443 216.5 86.9823 216.5H80.9883C81.0063 217.046 81.0843 217.523 81.2223 217.931C81.3603 218.333 81.5493 218.669 81.7893 218.939C82.0353 219.209 82.3263 219.41 82.6623 219.542C82.9983 219.674 83.3733 219.74 83.7873 219.74C84.1773 219.74 84.5133 219.695 84.7953 219.605C85.0833 219.515 85.3293 219.419 85.5333 219.317C85.7433 219.209 85.9173 219.11 86.0553 219.02C86.1993 218.93 86.3253 218.885 86.4333 218.885C86.5773 218.885 86.6883 218.939 86.7663 219.047L87.2703 219.695ZM96.1496 211.856V221H94.3946V217.193C93.6086 217.397 92.8736 217.523 92.1896 217.571C91.5056 217.613 90.9086 217.553 90.3986 217.391C89.8886 217.223 89.4866 216.938 89.1926 216.536C88.9046 216.128 88.7606 215.576 88.7606 214.88V211.856H90.5246V214.61C90.5246 215.03 90.6056 215.366 90.7676 215.618C90.9296 215.864 91.1726 216.038 91.4966 216.14C91.8206 216.236 92.2226 216.266 92.7026 216.23C93.1886 216.188 93.7526 216.095 94.3946 215.951V211.856H96.1496ZM104.665 215.411C104.665 215.063 104.614 214.742 104.512 214.448C104.416 214.154 104.272 213.899 104.08 213.683C103.888 213.467 103.654 213.299 103.378 213.179C103.102 213.059 102.784 212.999 102.424 212.999C101.686 212.999 101.104 213.212 100.678 213.638C100.258 214.064 99.991 214.655 99.877 215.411H104.665ZM106.114 219.695C105.898 219.947 105.649 220.166 105.367 220.352C105.085 220.532 104.785 220.679 104.467 220.793C104.149 220.907 103.819 220.991 103.477 221.045C103.141 221.099 102.808 221.126 102.478 221.126C101.848 221.126 101.263 221.021 100.723 220.811C100.189 220.595 99.724 220.283 99.328 219.875C98.938 219.461 98.632 218.951 98.41 218.345C98.194 217.733 98.086 217.031 98.086 216.239C98.086 215.603 98.185 215.012 98.383 214.466C98.581 213.914 98.863 213.434 99.229 213.026C99.601 212.618 100.054 212.297 100.588 212.063C101.122 211.829 101.722 211.712 102.388 211.712C102.946 211.712 103.459 211.805 103.927 211.991C104.401 212.171 104.809 212.435 105.151 212.783C105.493 213.131 105.76 213.56 105.952 214.07C106.15 214.58 106.249 215.162 106.249 215.816C106.249 216.086 106.219 216.269 106.159 216.365C106.099 216.455 105.988 216.5 105.826 216.5H99.832C99.85 217.046 99.928 217.523 100.066 217.931C100.204 218.333 100.393 218.669 100.633 218.939C100.879 219.209 101.17 219.41 101.506 219.542C101.842 219.674 102.217 219.74 102.631 219.74C103.021 219.74 103.357 219.695 103.639 219.605C103.927 219.515 104.173 219.419 104.377 219.317C104.587 219.209 104.761 219.11 104.899 219.02C105.043 218.93 105.169 218.885 105.277 218.885C105.421 218.885 105.532 218.939 105.61 219.047L106.114 219.695ZM115.839 211.856V221H114.075V216.788H109.89V221H108.135V211.856H109.89V215.456H114.075V211.856H115.839ZM126.234 211.856V221H124.47V215.024C124.47 214.904 124.476 214.772 124.488 214.628C124.5 214.478 124.518 214.328 124.542 214.178C124.482 214.304 124.422 214.424 124.362 214.538C124.308 214.646 124.251 214.742 124.191 214.826L119.988 220.559C119.922 220.667 119.835 220.769 119.727 220.865C119.619 220.961 119.496 221.009 119.358 221.009H118.296V211.856H120.051V217.841C120.051 217.961 120.045 218.096 120.033 218.246C120.021 218.39 120.003 218.534 119.979 218.678C120.099 218.414 120.216 218.201 120.33 218.039L124.533 212.297C124.599 212.195 124.686 212.096 124.794 212C124.908 211.904 125.034 211.856 125.172 211.856H126.234ZM134.741 215.411C134.741 215.063 134.69 214.742 134.588 214.448C134.492 214.154 134.348 213.899 134.156 213.683C133.964 213.467 133.73 213.299 133.454 213.179C133.178 213.059 132.86 212.999 132.5 212.999C131.762 212.999 131.18 213.212 130.754 213.638C130.334 214.064 130.067 214.655 129.953 215.411H134.741ZM136.19 219.695C135.974 219.947 135.725 220.166 135.443 220.352C135.161 220.532 134.861 220.679 134.543 220.793C134.225 220.907 133.895 220.991 133.553 221.045C133.217 221.099 132.884 221.126 132.554 221.126C131.924 221.126 131.339 221.021 130.799 220.811C130.265 220.595 129.8 220.283 129.404 219.875C129.014 219.461 128.708 218.951 128.486 218.345C128.27 217.733 128.162 217.031 128.162 216.239C128.162 215.603 128.261 215.012 128.459 214.466C128.657 213.914 128.939 213.434 129.305 213.026C129.677 212.618 130.13 212.297 130.664 212.063C131.198 211.829 131.798 211.712 132.464 211.712C133.022 211.712 133.535 211.805 134.003 211.991C134.477 212.171 134.885 212.435 135.227 212.783C135.569 213.131 135.836 213.56 136.028 214.07C136.226 214.58 136.325 215.162 136.325 215.816C136.325 216.086 136.295 216.269 136.235 216.365C136.175 216.455 136.064 216.5 135.902 216.5H129.908C129.926 217.046 130.004 217.523 130.142 217.931C130.28 218.333 130.469 218.669 130.709 218.939C130.955 219.209 131.246 219.41 131.582 219.542C131.918 219.674 132.293 219.74 132.707 219.74C133.097 219.74 133.433 219.695 133.715 219.605C134.003 219.515 134.249 219.419 134.453 219.317C134.663 219.209 134.837 219.11 134.975 219.02C135.119 218.93 135.245 218.885 135.353 218.885C135.497 218.885 135.608 218.939 135.686 219.047L136.19 219.695ZM142.647 211.595C142.737 210.995 142.905 210.467 143.151 210.011C143.397 209.555 143.706 209.174 144.078 208.868C144.45 208.556 144.876 208.322 145.356 208.166C145.842 208.01 146.364 207.932 146.922 207.932C147.48 207.932 147.993 208.013 148.461 208.175C148.929 208.331 149.328 208.556 149.658 208.85C149.994 209.138 150.255 209.486 150.441 209.894C150.627 210.302 150.72 210.752 150.72 211.244C150.72 211.658 150.669 212.024 150.567 212.342C150.465 212.66 150.318 212.939 150.126 213.179C149.94 213.419 149.712 213.623 149.442 213.791C149.172 213.953 148.869 214.088 148.533 214.196C149.355 214.424 149.973 214.796 150.387 215.312C150.801 215.822 151.008 216.47 151.008 217.256C151.008 217.862 150.894 218.408 150.666 218.894C150.438 219.374 150.126 219.782 149.73 220.118C149.334 220.448 148.872 220.703 148.344 220.883C147.822 221.057 147.264 221.144 146.67 221.144C145.992 221.144 145.41 221.063 144.924 220.901C144.438 220.733 144.024 220.502 143.682 220.208C143.34 219.908 143.055 219.551 142.827 219.137C142.605 218.717 142.416 218.258 142.26 217.76L143.025 217.436C143.223 217.352 143.415 217.328 143.601 217.364C143.787 217.4 143.922 217.505 144.006 217.679C144.096 217.859 144.198 218.063 144.312 218.291C144.432 218.513 144.591 218.726 144.789 218.93C144.987 219.128 145.233 219.296 145.527 219.434C145.827 219.572 146.202 219.641 146.652 219.641C147.084 219.641 147.462 219.572 147.786 219.434C148.11 219.29 148.38 219.107 148.596 218.885C148.812 218.657 148.974 218.405 149.082 218.129C149.19 217.853 149.244 217.58 149.244 217.31C149.244 216.974 149.202 216.665 149.118 216.383C149.034 216.101 148.872 215.861 148.632 215.663C148.398 215.459 148.071 215.3 147.651 215.186C147.231 215.072 146.685 215.015 146.013 215.015V213.737C146.565 213.731 147.03 213.674 147.408 213.566C147.792 213.458 148.101 213.308 148.335 213.116C148.569 212.924 148.737 212.696 148.839 212.432C148.947 212.168 149.001 211.874 149.001 211.55C149.001 211.196 148.947 210.887 148.839 210.623C148.731 210.359 148.578 210.14 148.38 209.966C148.188 209.786 147.957 209.654 147.687 209.57C147.423 209.48 147.135 209.435 146.823 209.435C146.511 209.435 146.223 209.48 145.959 209.57C145.695 209.66 145.461 209.786 145.257 209.948C145.053 210.11 144.882 210.302 144.744 210.524C144.606 210.746 144.507 210.986 144.447 211.244C144.363 211.472 144.255 211.625 144.123 211.703C143.997 211.781 143.814 211.799 143.574 211.757L142.647 211.595ZM153.071 214.844H157.571V216.338H153.071V214.844ZM167.29 221H165.598C165.46 221 165.349 220.964 165.265 220.892C165.187 220.814 165.124 220.733 165.076 220.649L162.871 217.166C162.841 217.256 162.811 217.343 162.781 217.427C162.751 217.511 162.712 217.589 162.664 217.661L160.639 220.649C160.579 220.733 160.51 220.814 160.432 220.892C160.354 220.964 160.252 221 160.126 221H158.56L161.746 216.293L158.686 211.856H160.378C160.516 211.856 160.615 211.877 160.675 211.919C160.741 211.961 160.798 212.024 160.846 212.108L163.015 215.447C163.045 215.357 163.078 215.27 163.114 215.186C163.15 215.096 163.198 215.003 163.258 214.907L165.121 212.144C165.229 211.952 165.373 211.856 165.553 211.856H167.164L164.104 216.212L167.29 221ZM175 218.75C175.288 219.128 175.597 219.392 175.927 219.542C176.263 219.692 176.638 219.767 177.052 219.767C177.856 219.767 178.477 219.479 178.915 218.903C179.359 218.321 179.581 217.475 179.581 216.365C179.581 215.783 179.53 215.288 179.428 214.88C179.332 214.466 179.188 214.13 178.996 213.872C178.81 213.608 178.579 213.416 178.303 213.296C178.027 213.17 177.715 213.107 177.367 213.107C176.857 213.107 176.413 213.221 176.035 213.449C175.663 213.677 175.318 214.001 175 214.421V218.75ZM174.91 213.224C175.102 212.996 175.306 212.789 175.522 212.603C175.744 212.411 175.981 212.249 176.233 212.117C176.485 211.979 176.752 211.874 177.034 211.802C177.322 211.724 177.628 211.685 177.952 211.685C178.474 211.685 178.945 211.787 179.365 211.991C179.791 212.195 180.154 212.495 180.454 212.891C180.754 213.287 180.985 213.776 181.147 214.358C181.315 214.94 181.399 215.609 181.399 216.365C181.399 217.043 181.306 217.673 181.12 218.255C180.94 218.831 180.679 219.332 180.337 219.758C180.001 220.184 179.587 220.52 179.095 220.766C178.609 221.006 178.06 221.126 177.448 221.126C176.902 221.126 176.434 221.036 176.044 220.856C175.654 220.676 175.306 220.424 175 220.1V224.069H173.245V211.856H174.298C174.544 211.856 174.697 211.973 174.757 212.207L174.91 213.224ZM188.266 216.941C187.552 216.965 186.946 217.022 186.448 217.112C185.95 217.196 185.545 217.31 185.233 217.454C184.921 217.598 184.696 217.769 184.558 217.967C184.42 218.159 184.351 218.375 184.351 218.615C184.351 218.843 184.387 219.041 184.459 219.209C184.537 219.371 184.639 219.506 184.765 219.614C184.897 219.716 185.05 219.791 185.224 219.839C185.398 219.887 185.587 219.911 185.791 219.911C186.061 219.911 186.307 219.884 186.529 219.83C186.757 219.776 186.97 219.701 187.168 219.605C187.366 219.503 187.555 219.38 187.735 219.236C187.915 219.092 188.092 218.927 188.266 218.741V216.941ZM183.118 213.134C183.628 212.648 184.18 212.285 184.774 212.045C185.374 211.805 186.031 211.685 186.745 211.685C187.267 211.685 187.729 211.772 188.131 211.946C188.533 212.114 188.872 212.351 189.148 212.657C189.424 212.963 189.631 213.329 189.769 213.755C189.913 214.181 189.985 214.652 189.985 215.168V221H189.202C189.028 221 188.896 220.973 188.806 220.919C188.716 220.859 188.644 220.751 188.59 220.595L188.401 219.794C188.167 220.01 187.936 220.202 187.708 220.37C187.48 220.532 187.24 220.673 186.988 220.793C186.742 220.907 186.478 220.994 186.196 221.054C185.914 221.114 185.602 221.144 185.26 221.144C184.9 221.144 184.561 221.096 184.243 221C183.931 220.898 183.658 220.745 183.424 220.541C183.19 220.337 183.004 220.082 182.866 219.776C182.734 219.47 182.668 219.113 182.668 218.705C182.668 218.345 182.764 218 182.956 217.67C183.154 217.334 183.472 217.034 183.91 216.77C184.354 216.506 184.93 216.29 185.638 216.122C186.352 215.954 187.228 215.858 188.266 215.834V215.168C188.266 214.478 188.119 213.962 187.825 213.62C187.531 213.278 187.099 213.107 186.529 213.107C186.145 213.107 185.821 213.155 185.557 213.251C185.299 213.347 185.074 213.455 184.882 213.575C184.696 213.689 184.531 213.794 184.387 213.89C184.249 213.986 184.105 214.034 183.955 214.034C183.835 214.034 183.73 214.001 183.64 213.935C183.556 213.869 183.487 213.791 183.433 213.701L183.118 213.134ZM196.502 219.821C197.372 219.821 198.023 219.548 198.455 219.002C198.893 218.45 199.112 217.67 199.112 216.662C199.112 215.66 198.899 214.883 198.473 214.331C198.053 213.773 197.42 213.494 196.574 213.494C196.16 213.494 195.788 213.56 195.458 213.692C195.134 213.818 194.855 214.007 194.621 214.259C194.393 214.511 194.219 214.823 194.099 215.195C193.979 215.561 193.919 215.984 193.919 216.464C193.919 217.526 194.135 218.351 194.567 218.939C194.999 219.527 195.644 219.821 196.502 219.821ZM197.123 209.84C196.529 209.888 196.016 210.017 195.584 210.227C195.158 210.431 194.804 210.71 194.522 211.064C194.246 211.418 194.036 211.841 193.892 212.333C193.748 212.819 193.664 213.368 193.64 213.98C193.79 213.71 193.976 213.464 194.198 213.242C194.426 213.02 194.684 212.831 194.972 212.675C195.26 212.513 195.575 212.39 195.917 212.306C196.259 212.222 196.619 212.18 196.997 212.18C197.609 212.18 198.158 212.288 198.644 212.504C199.13 212.72 199.541 213.023 199.877 213.413C200.219 213.803 200.48 214.274 200.66 214.826C200.84 215.372 200.93 215.981 200.93 216.653C200.93 217.337 200.825 217.955 200.615 218.507C200.405 219.053 200.105 219.521 199.715 219.911C199.331 220.301 198.866 220.601 198.32 220.811C197.774 221.021 197.168 221.126 196.502 221.126C195.872 221.126 195.287 221.024 194.747 220.82C194.213 220.61 193.748 220.268 193.352 219.794C192.956 219.32 192.644 218.699 192.416 217.931C192.194 217.163 192.083 216.218 192.083 215.096C192.083 214.142 192.17 213.263 192.344 212.459C192.518 211.655 192.797 210.953 193.181 210.353C193.571 209.753 194.078 209.27 194.702 208.904C195.326 208.538 196.085 208.319 196.979 208.247L200.237 207.977L200.336 208.895C200.36 209.093 200.33 209.261 200.246 209.399C200.168 209.537 200.03 209.612 199.832 209.624L197.123 209.84ZM206.796 211.712C207.468 211.712 208.074 211.823 208.614 212.045C209.16 212.261 209.622 212.576 210 212.99C210.384 213.398 210.678 213.893 210.882 214.475C211.086 215.051 211.188 215.699 211.188 216.419C211.188 217.139 211.086 217.79 210.882 218.372C210.678 218.954 210.384 219.449 210 219.857C209.622 220.265 209.16 220.58 208.614 220.802C208.074 221.018 207.468 221.126 206.796 221.126C206.118 221.126 205.506 221.018 204.96 220.802C204.42 220.58 203.958 220.265 203.574 219.857C203.19 219.449 202.893 218.954 202.683 218.372C202.479 217.79 202.377 217.139 202.377 216.419C202.377 215.699 202.479 215.051 202.683 214.475C202.893 213.893 203.19 213.398 203.574 212.99C203.958 212.576 204.42 212.261 204.96 212.045C205.506 211.823 206.118 211.712 206.796 211.712ZM206.796 219.758C207.66 219.758 208.305 219.467 208.731 218.885C209.157 218.303 209.37 217.484 209.37 216.428C209.37 215.372 209.157 214.553 208.731 213.971C208.305 213.383 207.66 213.089 206.796 213.089C205.92 213.089 205.266 213.383 204.834 213.971C204.408 214.553 204.195 215.372 204.195 216.428C204.195 217.484 204.408 218.303 204.834 218.885C205.266 219.467 205.92 219.758 206.796 219.758ZM220.005 211.856V221H218.25V217.193C217.464 217.397 216.729 217.523 216.045 217.571C215.361 217.613 214.764 217.553 214.254 217.391C213.744 217.223 213.342 216.938 213.048 216.536C212.76 216.128 212.616 215.576 212.616 214.88V211.856H214.38V214.61C214.38 215.03 214.461 215.366 214.623 215.618C214.785 215.864 215.028 216.038 215.352 216.14C215.676 216.236 216.078 216.266 216.558 216.23C217.044 216.188 217.608 216.095 218.25 215.951V211.856H220.005ZM230.401 211.856V221H228.637V215.024C228.637 214.904 228.643 214.772 228.655 214.628C228.667 214.478 228.685 214.328 228.709 214.178C228.649 214.304 228.589 214.424 228.529 214.538C228.475 214.646 228.418 214.742 228.358 214.826L224.155 220.559C224.089 220.667 224.002 220.769 223.894 220.865C223.786 220.961 223.663 221.009 223.525 221.009H222.463V211.856H224.218V217.841C224.218 217.961 224.212 218.096 224.2 218.246C224.188 218.39 224.17 218.534 224.146 218.678C224.266 218.414 224.383 218.201 224.497 218.039L228.7 212.297C228.766 212.195 228.853 212.096 228.961 212C229.075 211.904 229.201 211.856 229.339 211.856H230.401ZM240.52 221H238.828C238.69 221 238.579 220.964 238.495 220.892C238.417 220.814 238.354 220.733 238.306 220.649L236.101 217.166C236.071 217.256 236.041 217.343 236.011 217.427C235.981 217.511 235.942 217.589 235.894 217.661L233.869 220.649C233.809 220.733 233.74 220.814 233.662 220.892C233.584 220.964 233.482 221 233.356 221H231.79L234.976 216.293L231.916 211.856H233.608C233.746 211.856 233.845 211.877 233.905 211.919C233.971 211.961 234.028 212.024 234.076 212.108L236.245 215.447C236.275 215.357 236.308 215.27 236.344 215.186C236.38 215.096 236.428 215.003 236.488 214.907L238.351 212.144C238.459 211.952 238.603 211.856 238.783 211.856H240.394L237.334 216.212L240.52 221ZM252.721 219.722V213.233H249.985C249.925 214.121 249.844 214.913 249.742 215.609C249.64 216.305 249.52 216.917 249.382 217.445C249.25 217.967 249.103 218.417 248.941 218.795C248.779 219.167 248.608 219.476 248.428 219.722H252.721ZM256.096 219.668V223.583C256.096 223.751 256.048 223.883 255.952 223.979C255.862 224.075 255.742 224.123 255.592 224.123H254.503V221H247.033V223.619C247.033 223.751 246.994 223.868 246.916 223.97C246.838 224.072 246.715 224.123 246.547 224.123H245.431V219.722H245.728C245.938 219.722 246.145 219.689 246.349 219.623C246.553 219.557 246.748 219.425 246.934 219.227C247.126 219.029 247.306 218.75 247.474 218.39C247.642 218.03 247.795 217.559 247.933 216.977C248.071 216.395 248.191 215.687 248.293 214.853C248.395 214.013 248.476 213.014 248.536 211.856H254.422V219.668H256.096ZM265.376 211.856V221H263.612V216.788H259.427V221H257.672V211.856H259.427V215.456H263.612V211.856H265.376ZM273.89 215.411C273.89 215.063 273.839 214.742 273.737 214.448C273.641 214.154 273.497 213.899 273.305 213.683C273.113 213.467 272.879 213.299 272.603 213.179C272.327 213.059 272.009 212.999 271.649 212.999C270.911 212.999 270.329 213.212 269.903 213.638C269.483 214.064 269.216 214.655 269.102 215.411H273.89ZM275.339 219.695C275.123 219.947 274.874 220.166 274.592 220.352C274.31 220.532 274.01 220.679 273.692 220.793C273.374 220.907 273.044 220.991 272.702 221.045C272.366 221.099 272.033 221.126 271.703 221.126C271.073 221.126 270.488 221.021 269.948 220.811C269.414 220.595 268.949 220.283 268.553 219.875C268.163 219.461 267.857 218.951 267.635 218.345C267.419 217.733 267.311 217.031 267.311 216.239C267.311 215.603 267.41 215.012 267.608 214.466C267.806 213.914 268.088 213.434 268.454 213.026C268.826 212.618 269.279 212.297 269.813 212.063C270.347 211.829 270.947 211.712 271.613 211.712C272.171 211.712 272.684 211.805 273.152 211.991C273.626 212.171 274.034 212.435 274.376 212.783C274.718 213.131 274.985 213.56 275.177 214.07C275.375 214.58 275.474 215.162 275.474 215.816C275.474 216.086 275.444 216.269 275.384 216.365C275.324 216.455 275.213 216.5 275.051 216.5H269.057C269.075 217.046 269.153 217.523 269.291 217.931C269.429 218.333 269.618 218.669 269.858 218.939C270.104 219.209 270.395 219.41 270.731 219.542C271.067 219.674 271.442 219.74 271.856 219.74C272.246 219.74 272.582 219.695 272.864 219.605C273.152 219.515 273.398 219.419 273.602 219.317C273.812 219.209 273.986 219.11 274.124 219.02C274.268 218.93 274.394 218.885 274.502 218.885C274.646 218.885 274.757 218.939 274.835 219.047L275.339 219.695ZM285.298 211.856V221H283.534V215.024C283.534 214.904 283.54 214.772 283.552 214.628C283.564 214.478 283.582 214.328 283.606 214.178C283.546 214.304 283.486 214.424 283.426 214.538C283.372 214.646 283.315 214.742 283.255 214.826L279.052 220.559C278.986 220.667 278.899 220.769 278.791 220.865C278.683 220.961 278.56 221.009 278.422 221.009H277.36V211.856H279.115V217.841C279.115 217.961 279.109 218.096 279.097 218.246C279.085 218.39 279.067 218.534 279.043 218.678C279.163 218.414 279.28 218.201 279.394 218.039L283.597 212.297C283.663 212.195 283.75 212.096 283.858 212C283.972 211.904 284.098 211.856 284.236 211.856H285.298ZM281.437 209.606C281.677 209.606 281.878 209.579 282.04 209.525C282.208 209.471 282.34 209.384 282.436 209.264C282.538 209.144 282.61 208.988 282.652 208.796C282.7 208.598 282.724 208.358 282.724 208.076H283.759C283.879 208.076 283.972 208.13 284.038 208.238C284.104 208.346 284.137 208.466 284.137 208.598C284.137 208.898 284.074 209.168 283.948 209.408C283.828 209.648 283.651 209.855 283.417 210.029C283.183 210.197 282.898 210.329 282.562 210.425C282.232 210.515 281.857 210.56 281.437 210.56C281.017 210.56 280.639 210.515 280.303 210.425C279.973 210.329 279.691 210.197 279.457 210.029C279.223 209.855 279.043 209.648 278.917 209.408C278.797 209.168 278.737 208.898 278.737 208.598C278.737 208.466 278.77 208.346 278.836 208.238C278.902 208.13 278.995 208.076 279.115 208.076H280.15C280.15 208.358 280.171 208.598 280.213 208.796C280.261 208.988 280.333 209.144 280.429 209.264C280.531 209.384 280.663 209.471 280.825 209.525C280.993 209.579 281.197 209.606 281.437 209.606ZM61.141 240.566C61.087 240.632 61.033 240.686 60.979 240.728C60.931 240.764 60.859 240.782 60.763 240.782C60.667 240.782 60.565 240.746 60.457 240.674C60.355 240.596 60.223 240.515 60.061 240.431C59.905 240.341 59.713 240.26 59.485 240.188C59.263 240.11 58.987 240.071 58.657 240.071C58.225 240.071 57.844 240.149 57.514 240.305C57.184 240.461 56.908 240.683 56.686 240.971C56.47 241.259 56.305 241.61 56.191 242.024C56.077 242.438 56.02 242.903 56.02 243.419C56.02 243.953 56.08 244.43 56.2 244.85C56.32 245.264 56.491 245.615 56.713 245.903C56.935 246.185 57.205 246.401 57.523 246.551C57.841 246.695 58.195 246.767 58.585 246.767C58.963 246.767 59.275 246.722 59.521 246.632C59.767 246.536 59.971 246.434 60.133 246.326C60.295 246.218 60.43 246.119 60.538 246.029C60.646 245.933 60.757 245.885 60.871 245.885C61.015 245.885 61.126 245.939 61.204 246.047L61.708 246.695C61.498 246.953 61.261 247.172 60.997 247.352C60.739 247.532 60.463 247.679 60.169 247.793C59.875 247.907 59.566 247.991 59.242 248.045C58.924 248.099 58.6 248.126 58.27 248.126C57.7 248.126 57.166 248.021 56.668 247.811C56.176 247.601 55.747 247.295 55.381 246.893C55.021 246.491 54.736 245.999 54.526 245.417C54.316 244.829 54.211 244.163 54.211 243.419C54.211 242.741 54.304 242.114 54.49 241.538C54.682 240.962 54.961 240.467 55.327 240.053C55.699 239.633 56.155 239.306 56.695 239.072C57.235 238.832 57.853 238.712 58.549 238.712C59.203 238.712 59.779 238.817 60.277 239.027C60.775 239.237 61.219 239.534 61.609 239.918L61.141 240.566ZM71.0503 248H69.2863V240.188H65.1013V248H63.3463V238.856H71.0503V248ZM79.5634 242.411C79.5634 242.063 79.5124 241.742 79.4104 241.448C79.3144 241.154 79.1704 240.899 78.9784 240.683C78.7864 240.467 78.5524 240.299 78.2764 240.179C78.0004 240.059 77.6824 239.999 77.3224 239.999C76.5844 239.999 76.0024 240.212 75.5764 240.638C75.1564 241.064 74.8894 241.655 74.7754 242.411H79.5634ZM81.0124 246.695C80.7964 246.947 80.5474 247.166 80.2654 247.352C79.9834 247.532 79.6834 247.679 79.3654 247.793C79.0474 247.907 78.7174 247.991 78.3754 248.045C78.0394 248.099 77.7064 248.126 77.3764 248.126C76.7464 248.126 76.1614 248.021 75.6214 247.811C75.0874 247.595 74.6224 247.283 74.2264 246.875C73.8364 246.461 73.5304 245.951 73.3084 245.345C73.0924 244.733 72.9844 244.031 72.9844 243.239C72.9844 242.603 73.0834 242.012 73.2814 241.466C73.4794 240.914 73.7614 240.434 74.1274 240.026C74.4994 239.618 74.9524 239.297 75.4864 239.063C76.0204 238.829 76.6204 238.712 77.2864 238.712C77.8444 238.712 78.3574 238.805 78.8254 238.991C79.2994 239.171 79.7074 239.435 80.0494 239.783C80.3914 240.131 80.6584 240.56 80.8504 241.07C81.0484 241.58 81.1474 242.162 81.1474 242.816C81.1474 243.086 81.1174 243.269 81.0574 243.365C80.9974 243.455 80.8864 243.5 80.7244 243.5H74.7304C74.7484 244.046 74.8264 244.523 74.9644 244.931C75.1024 245.333 75.2914 245.669 75.5314 245.939C75.7774 246.209 76.0684 246.41 76.4044 246.542C76.7404 246.674 77.1154 246.74 77.5294 246.74C77.9194 246.74 78.2554 246.695 78.5374 246.605C78.8254 246.515 79.0714 246.419 79.2754 246.317C79.4854 246.209 79.6594 246.11 79.7974 246.02C79.9414 245.93 80.0674 245.885 80.1754 245.885C80.3194 245.885 80.4304 245.939 80.5084 246.047L81.0124 246.695ZM92.4118 246.668V250.583C92.4118 250.751 92.3638 250.883 92.2678 250.979C92.1718 251.075 92.0488 251.123 91.8988 251.123H90.8188V248H83.0338V238.856H84.7888V246.668H88.9738V238.856H90.7378V246.668H92.4118ZM101.923 238.856V248H100.159V242.024C100.159 241.904 100.165 241.772 100.177 241.628C100.189 241.478 100.207 241.328 100.231 241.178C100.171 241.304 100.111 241.424 100.051 241.538C99.997 241.646 99.94 241.742 99.88 241.826L95.677 247.559C95.611 247.667 95.524 247.769 95.416 247.865C95.308 247.961 95.185 248.009 95.047 248.009H93.985V238.856H95.74V244.841C95.74 244.961 95.734 245.096 95.722 245.246C95.71 245.39 95.692 245.534 95.668 245.678C95.788 245.414 95.905 245.201 96.019 245.039L100.222 239.297C100.288 239.195 100.375 239.096 100.483 239C100.597 238.904 100.723 238.856 100.861 238.856H101.923ZM109.288 243.941C108.574 243.965 107.968 244.022 107.47 244.112C106.972 244.196 106.567 244.31 106.255 244.454C105.943 244.598 105.718 244.769 105.58 244.967C105.442 245.159 105.373 245.375 105.373 245.615C105.373 245.843 105.409 246.041 105.481 246.209C105.559 246.371 105.661 246.506 105.787 246.614C105.919 246.716 106.072 246.791 106.246 246.839C106.42 246.887 106.609 246.911 106.813 246.911C107.083 246.911 107.329 246.884 107.551 246.83C107.779 246.776 107.992 246.701 108.19 246.605C108.388 246.503 108.577 246.38 108.757 246.236C108.937 246.092 109.114 245.927 109.288 245.741V243.941ZM104.14 240.134C104.65 239.648 105.202 239.285 105.796 239.045C106.396 238.805 107.053 238.685 107.767 238.685C108.289 238.685 108.751 238.772 109.153 238.946C109.555 239.114 109.894 239.351 110.17 239.657C110.446 239.963 110.653 240.329 110.791 240.755C110.935 241.181 111.007 241.652 111.007 242.168V248H110.224C110.05 248 109.918 247.973 109.828 247.919C109.738 247.859 109.666 247.751 109.612 247.595L109.423 246.794C109.189 247.01 108.958 247.202 108.73 247.37C108.502 247.532 108.262 247.673 108.01 247.793C107.764 247.907 107.5 247.994 107.218 248.054C106.936 248.114 106.624 248.144 106.282 248.144C105.922 248.144 105.583 248.096 105.265 248C104.953 247.898 104.68 247.745 104.446 247.541C104.212 247.337 104.026 247.082 103.888 246.776C103.756 246.47 103.69 246.113 103.69 245.705C103.69 245.345 103.786 245 103.978 244.67C104.176 244.334 104.494 244.034 104.932 243.77C105.376 243.506 105.952 243.29 106.66 243.122C107.374 242.954 108.25 242.858 109.288 242.834V242.168C109.288 241.478 109.141 240.962 108.847 240.62C108.553 240.278 108.121 240.107 107.551 240.107C107.167 240.107 106.843 240.155 106.579 240.251C106.321 240.347 106.096 240.455 105.904 240.575C105.718 240.689 105.553 240.794 105.409 240.89C105.271 240.986 105.127 241.034 104.977 241.034C104.857 241.034 104.752 241.001 104.662 240.935C104.578 240.869 104.509 240.791 104.455 240.701L104.14 240.134ZM121.483 248H119.728V240.233H117.001C116.929 241.385 116.821 242.381 116.677 243.221C116.533 244.055 116.359 244.766 116.155 245.354C115.951 245.936 115.723 246.41 115.471 246.776C115.225 247.136 114.961 247.418 114.679 247.622C114.403 247.82 114.118 247.952 113.824 248.018C113.53 248.09 113.236 248.126 112.942 248.126C112.396 248.126 112.123 248.036 112.123 247.856V246.749H112.609C112.813 246.749 113.017 246.716 113.221 246.65C113.431 246.578 113.635 246.443 113.833 246.245C114.037 246.041 114.229 245.759 114.409 245.399C114.589 245.039 114.754 244.568 114.904 243.986C115.054 243.398 115.183 242.684 115.291 241.844C115.399 241.004 115.483 240.008 115.543 238.856H121.483V248ZM131.894 238.856V248H130.13V242.024C130.13 241.904 130.136 241.772 130.148 241.628C130.16 241.478 130.178 241.328 130.202 241.178C130.142 241.304 130.082 241.424 130.022 241.538C129.968 241.646 129.911 241.742 129.851 241.826L125.648 247.559C125.582 247.667 125.495 247.769 125.387 247.865C125.279 247.961 125.156 248.009 125.018 248.009H123.956V238.856H125.711V244.841C125.711 244.961 125.705 245.096 125.693 245.246C125.681 245.39 125.663 245.534 125.639 245.678C125.759 245.414 125.876 245.201 125.99 245.039L130.193 239.297C130.259 239.195 130.346 239.096 130.454 239C130.568 238.904 130.694 238.856 130.832 238.856H131.894ZM140.752 240.566C140.698 240.632 140.644 240.686 140.59 240.728C140.542 240.764 140.47 240.782 140.374 240.782C140.278 240.782 140.176 240.746 140.068 240.674C139.966 240.596 139.834 240.515 139.672 240.431C139.516 240.341 139.324 240.26 139.096 240.188C138.874 240.11 138.598 240.071 138.268 240.071C137.836 240.071 137.455 240.149 137.125 240.305C136.795 240.461 136.519 240.683 136.297 240.971C136.081 241.259 135.916 241.61 135.802 242.024C135.688 242.438 135.631 242.903 135.631 243.419C135.631 243.953 135.691 244.43 135.811 244.85C135.931 245.264 136.102 245.615 136.324 245.903C136.546 246.185 136.816 246.401 137.134 246.551C137.452 246.695 137.806 246.767 138.196 246.767C138.574 246.767 138.886 246.722 139.132 246.632C139.378 246.536 139.582 246.434 139.744 246.326C139.906 246.218 140.041 246.119 140.149 246.029C140.257 245.933 140.368 245.885 140.482 245.885C140.626 245.885 140.737 245.939 140.815 246.047L141.319 246.695C141.109 246.953 140.872 247.172 140.608 247.352C140.35 247.532 140.074 247.679 139.78 247.793C139.486 247.907 139.177 247.991 138.853 248.045C138.535 248.099 138.211 248.126 137.881 248.126C137.311 248.126 136.777 248.021 136.279 247.811C135.787 247.601 135.358 247.295 134.992 246.893C134.632 246.491 134.347 245.999 134.137 245.417C133.927 244.829 133.822 244.163 133.822 243.419C133.822 242.741 133.915 242.114 134.101 241.538C134.293 240.962 134.572 240.467 134.938 240.053C135.31 239.633 135.766 239.306 136.306 239.072C136.846 238.832 137.464 238.712 138.16 238.712C138.814 238.712 139.39 238.817 139.888 239.027C140.386 239.237 140.83 239.534 141.22 239.918L140.752 240.566ZM150.617 240.188H147.17V248H145.406V240.188H141.959V238.856H150.617V240.188ZM160.53 238.712C161.202 238.712 161.808 238.823 162.348 239.045C162.894 239.261 163.356 239.576 163.734 239.99C164.118 240.398 164.412 240.893 164.616 241.475C164.82 242.051 164.922 242.699 164.922 243.419C164.922 244.139 164.82 244.79 164.616 245.372C164.412 245.954 164.118 246.449 163.734 246.857C163.356 247.265 162.894 247.58 162.348 247.802C161.808 248.018 161.202 248.126 160.53 248.126C159.852 248.126 159.24 248.018 158.694 247.802C158.154 247.58 157.692 247.265 157.308 246.857C156.924 246.449 156.627 245.954 156.417 245.372C156.213 244.79 156.111 244.139 156.111 243.419C156.111 242.699 156.213 242.051 156.417 241.475C156.627 240.893 156.924 240.398 157.308 239.99C157.692 239.576 158.154 239.261 158.694 239.045C159.24 238.823 159.852 238.712 160.53 238.712ZM160.53 246.758C161.394 246.758 162.039 246.467 162.465 245.885C162.891 245.303 163.104 244.484 163.104 243.428C163.104 242.372 162.891 241.553 162.465 240.971C162.039 240.383 161.394 240.089 160.53 240.089C159.654 240.089 159 240.383 158.568 240.971C158.142 241.553 157.929 242.372 157.929 243.428C157.929 244.484 158.142 245.303 158.568 245.885C159 246.467 159.654 246.758 160.53 246.758ZM174.206 240.188H170.759V248H168.995V240.188H165.548V238.856H174.206V240.188ZM180.985 246.722V240.233H178.249C178.189 241.121 178.108 241.913 178.006 242.609C177.904 243.305 177.784 243.917 177.646 244.445C177.514 244.967 177.367 245.417 177.205 245.795C177.043 246.167 176.872 246.476 176.692 246.722H180.985ZM184.36 246.668V250.583C184.36 250.751 184.312 250.883 184.216 250.979C184.126 251.075 184.006 251.123 183.856 251.123H182.767V248H175.297V250.619C175.297 250.751 175.258 250.868 175.18 250.97C175.102 251.072 174.979 251.123 174.811 251.123H173.695V246.722H173.992C174.202 246.722 174.409 246.689 174.613 246.623C174.817 246.557 175.012 246.425 175.198 246.227C175.39 246.029 175.57 245.75 175.738 245.39C175.906 245.03 176.059 244.559 176.197 243.977C176.335 243.395 176.455 242.687 176.557 241.853C176.659 241.013 176.74 240.014 176.8 238.856H182.686V246.668H184.36ZM191.835 242.411C191.835 242.063 191.784 241.742 191.682 241.448C191.586 241.154 191.442 240.899 191.25 240.683C191.058 240.467 190.824 240.299 190.548 240.179C190.272 240.059 189.954 239.999 189.594 239.999C188.856 239.999 188.274 240.212 187.848 240.638C187.428 241.064 187.161 241.655 187.047 242.411H191.835ZM193.284 246.695C193.068 246.947 192.819 247.166 192.537 247.352C192.255 247.532 191.955 247.679 191.637 247.793C191.319 247.907 190.989 247.991 190.647 248.045C190.311 248.099 189.978 248.126 189.648 248.126C189.018 248.126 188.433 248.021 187.893 247.811C187.359 247.595 186.894 247.283 186.498 246.875C186.108 246.461 185.802 245.951 185.58 245.345C185.364 244.733 185.256 244.031 185.256 243.239C185.256 242.603 185.355 242.012 185.553 241.466C185.751 240.914 186.033 240.434 186.399 240.026C186.771 239.618 187.224 239.297 187.758 239.063C188.292 238.829 188.892 238.712 189.558 238.712C190.116 238.712 190.629 238.805 191.097 238.991C191.571 239.171 191.979 239.435 192.321 239.783C192.663 240.131 192.93 240.56 193.122 241.07C193.32 241.58 193.419 242.162 193.419 242.816C193.419 243.086 193.389 243.269 193.329 243.365C193.269 243.455 193.158 243.5 192.996 243.5H187.002C187.02 244.046 187.098 244.523 187.236 244.931C187.374 245.333 187.563 245.669 187.803 245.939C188.049 246.209 188.34 246.41 188.676 246.542C189.012 246.674 189.387 246.74 189.801 246.74C190.191 246.74 190.527 246.695 190.809 246.605C191.097 246.515 191.343 246.419 191.547 246.317C191.757 246.209 191.931 246.11 192.069 246.02C192.213 245.93 192.339 245.885 192.447 245.885C192.591 245.885 192.702 245.939 192.78 246.047L193.284 246.695ZM203.432 248H201.677V240.233H198.95C198.878 241.385 198.77 242.381 198.626 243.221C198.482 244.055 198.308 244.766 198.104 245.354C197.9 245.936 197.672 246.41 197.42 246.776C197.174 247.136 196.91 247.418 196.628 247.622C196.352 247.82 196.067 247.952 195.773 248.018C195.479 248.09 195.185 248.126 194.891 248.126C194.345 248.126 194.072 248.036 194.072 247.856V246.749H194.558C194.762 246.749 194.966 246.716 195.17 246.65C195.38 246.578 195.584 246.443 195.782 246.245C195.986 246.041 196.178 245.759 196.358 245.399C196.538 245.039 196.703 244.568 196.853 243.986C197.003 243.398 197.132 242.684 197.24 241.844C197.348 241.004 197.432 240.008 197.492 238.856H203.432V248ZM210.819 243.941C210.105 243.965 209.499 244.022 209.001 244.112C208.503 244.196 208.098 244.31 207.786 244.454C207.474 244.598 207.249 244.769 207.111 244.967C206.973 245.159 206.904 245.375 206.904 245.615C206.904 245.843 206.94 246.041 207.012 246.209C207.09 246.371 207.192 246.506 207.318 246.614C207.45 246.716 207.603 246.791 207.777 246.839C207.951 246.887 208.14 246.911 208.344 246.911C208.614 246.911 208.86 246.884 209.082 246.83C209.31 246.776 209.523 246.701 209.721 246.605C209.919 246.503 210.108 246.38 210.288 246.236C210.468 246.092 210.645 245.927 210.819 245.741V243.941ZM205.671 240.134C206.181 239.648 206.733 239.285 207.327 239.045C207.927 238.805 208.584 238.685 209.298 238.685C209.82 238.685 210.282 238.772 210.684 238.946C211.086 239.114 211.425 239.351 211.701 239.657C211.977 239.963 212.184 240.329 212.322 240.755C212.466 241.181 212.538 241.652 212.538 242.168V248H211.755C211.581 248 211.449 247.973 211.359 247.919C211.269 247.859 211.197 247.751 211.143 247.595L210.954 246.794C210.72 247.01 210.489 247.202 210.261 247.37C210.033 247.532 209.793 247.673 209.541 247.793C209.295 247.907 209.031 247.994 208.749 248.054C208.467 248.114 208.155 248.144 207.813 248.144C207.453 248.144 207.114 248.096 206.796 248C206.484 247.898 206.211 247.745 205.977 247.541C205.743 247.337 205.557 247.082 205.419 246.776C205.287 246.47 205.221 246.113 205.221 245.705C205.221 245.345 205.317 245 205.509 244.67C205.707 244.334 206.025 244.034 206.463 243.77C206.907 243.506 207.483 243.29 208.191 243.122C208.905 242.954 209.781 242.858 210.819 242.834V242.168C210.819 241.478 210.672 240.962 210.378 240.62C210.084 240.278 209.652 240.107 209.082 240.107C208.698 240.107 208.374 240.155 208.11 240.251C207.852 240.347 207.627 240.455 207.435 240.575C207.249 240.689 207.084 240.794 206.94 240.89C206.802 240.986 206.658 241.034 206.508 241.034C206.388 241.034 206.283 241.001 206.193 240.935C206.109 240.869 206.04 240.791 205.986 240.701L205.671 240.134ZM231.842 241.538C231.842 242.504 231.686 243.392 231.374 244.202C231.068 245.006 230.633 245.702 230.069 246.29C229.505 246.872 228.83 247.325 228.044 247.649C227.258 247.973 226.385 248.135 225.425 248.135C224.471 248.135 223.598 247.973 222.806 247.649C222.02 247.325 221.345 246.872 220.781 246.29C220.223 245.702 219.788 245.006 219.476 244.202C219.164 243.392 219.008 242.504 219.008 241.538C219.008 240.578 219.164 239.693 219.476 238.883C219.788 238.073 220.223 237.377 220.781 236.795C221.345 236.207 222.02 235.751 222.806 235.427C223.598 235.097 224.471 234.932 225.425 234.932C226.385 234.932 227.258 235.097 228.044 235.427C228.83 235.751 229.505 236.207 230.069 236.795C230.633 237.377 231.068 238.073 231.374 238.883C231.686 239.693 231.842 240.578 231.842 241.538ZM229.88 241.538C229.88 240.77 229.775 240.08 229.565 239.468C229.355 238.856 229.055 238.337 228.665 237.911C228.281 237.485 227.813 237.158 227.261 236.93C226.715 236.702 226.103 236.588 225.425 236.588C224.747 236.588 224.132 236.702 223.58 236.93C223.034 237.158 222.566 237.485 222.176 237.911C221.786 238.337 221.486 238.856 221.276 239.468C221.066 240.08 220.961 240.77 220.961 241.538C220.961 242.312 221.066 243.005 221.276 243.617C221.486 244.223 221.786 244.739 222.176 245.165C222.566 245.591 223.034 245.918 223.58 246.146C224.132 246.368 224.747 246.479 225.425 246.479C226.103 246.479 226.715 246.368 227.261 246.146C227.813 245.918 228.281 245.591 228.665 245.165C229.055 244.739 229.355 244.223 229.565 243.617C229.775 243.005 229.88 242.312 229.88 241.538ZM247.839 235.076V248H246.165V238.802C246.165 238.664 246.168 238.517 246.174 238.361C246.186 238.205 246.198 238.046 246.21 237.884L241.908 245.777C241.758 246.071 241.527 246.218 241.215 246.218H240.945C240.633 246.218 240.405 246.071 240.261 245.777L235.878 237.857C235.914 238.193 235.932 238.508 235.932 238.802V248H234.249V235.076H235.671C235.839 235.076 235.968 235.094 236.058 235.13C236.154 235.16 236.244 235.25 236.328 235.4L240.648 243.14C240.732 243.296 240.81 243.461 240.882 243.635C240.954 243.809 241.023 243.983 241.089 244.157C241.215 243.803 241.362 243.461 241.53 243.131L245.769 235.4C245.847 235.25 245.931 235.16 246.021 235.13C246.117 235.094 246.249 235.076 246.417 235.076H247.839ZM260.063 245.228C260.171 245.228 260.264 245.27 260.342 245.354L261.098 246.182C260.57 246.806 259.925 247.289 259.163 247.631C258.407 247.973 257.495 248.144 256.427 248.144C255.491 248.144 254.642 247.982 253.88 247.658C253.124 247.334 252.476 246.881 251.936 246.299C251.402 245.717 250.988 245.021 250.694 244.211C250.4 243.401 250.253 242.51 250.253 241.538C250.253 240.566 250.406 239.675 250.712 238.865C251.024 238.055 251.459 237.359 252.017 236.777C252.575 236.195 253.241 235.742 254.015 235.418C254.795 235.094 255.656 234.932 256.598 234.932C257.516 234.932 258.332 235.082 259.046 235.382C259.76 235.682 260.381 236.081 260.909 236.579L260.279 237.47C260.237 237.536 260.183 237.59 260.117 237.632C260.057 237.674 259.976 237.695 259.874 237.695C259.76 237.695 259.625 237.638 259.469 237.524C259.319 237.41 259.118 237.284 258.866 237.146C258.62 237.002 258.314 236.873 257.948 236.759C257.582 236.645 257.126 236.588 256.58 236.588C255.938 236.588 255.35 236.702 254.816 236.93C254.282 237.152 253.82 237.476 253.43 237.902C253.046 238.322 252.746 238.841 252.53 239.459C252.32 240.071 252.215 240.764 252.215 241.538C252.215 242.324 252.326 243.023 252.548 243.635C252.77 244.247 253.076 244.766 253.466 245.192C253.856 245.618 254.315 245.942 254.843 246.164C255.371 246.386 255.941 246.497 256.553 246.497C256.925 246.497 257.258 246.476 257.552 246.434C257.852 246.386 258.125 246.317 258.371 246.227C258.623 246.137 258.86 246.023 259.082 245.885C259.304 245.741 259.523 245.57 259.739 245.372C259.787 245.33 259.838 245.297 259.892 245.273C259.946 245.243 260.003 245.228 260.063 245.228ZM273.625 240.566C273.571 240.632 273.517 240.686 273.463 240.728C273.415 240.764 273.343 240.782 273.247 240.782C273.151 240.782 273.049 240.746 272.941 240.674C272.839 240.596 272.707 240.515 272.545 240.431C272.389 240.341 272.197 240.26 271.969 240.188C271.747 240.11 271.471 240.071 271.141 240.071C270.709 240.071 270.328 240.149 269.998 240.305C269.668 240.461 269.392 240.683 269.17 240.971C268.954 241.259 268.789 241.61 268.675 242.024C268.561 242.438 268.504 242.903 268.504 243.419C268.504 243.953 268.564 244.43 268.684 244.85C268.804 245.264 268.975 245.615 269.197 245.903C269.419 246.185 269.689 246.401 270.007 246.551C270.325 246.695 270.679 246.767 271.069 246.767C271.447 246.767 271.759 246.722 272.005 246.632C272.251 246.536 272.455 246.434 272.617 246.326C272.779 246.218 272.914 246.119 273.022 246.029C273.13 245.933 273.241 245.885 273.355 245.885C273.499 245.885 273.61 245.939 273.688 246.047L274.192 246.695C273.982 246.953 273.745 247.172 273.481 247.352C273.223 247.532 272.947 247.679 272.653 247.793C272.359 247.907 272.05 247.991 271.726 248.045C271.408 248.099 271.084 248.126 270.754 248.126C270.184 248.126 269.65 248.021 269.152 247.811C268.66 247.601 268.231 247.295 267.865 246.893C267.505 246.491 267.22 245.999 267.01 245.417C266.8 244.829 266.695 244.163 266.695 243.419C266.695 242.741 266.788 242.114 266.974 241.538C267.166 240.962 267.445 240.467 267.811 240.053C268.183 239.633 268.639 239.306 269.179 239.072C269.719 238.832 270.337 238.712 271.033 238.712C271.687 238.712 272.263 238.817 272.761 239.027C273.259 239.237 273.703 239.534 274.093 239.918L273.625 240.566ZM279.395 246.767C279.959 246.767 280.406 246.635 280.736 246.371C281.066 246.101 281.231 245.738 281.231 245.282C281.231 245.084 281.201 244.901 281.141 244.733C281.081 244.559 280.979 244.409 280.835 244.283C280.691 244.157 280.502 244.061 280.268 243.995C280.034 243.923 279.746 243.887 279.404 243.887H277.505V246.767H279.395ZM277.505 240.026V242.771H279.188C279.44 242.771 279.671 242.735 279.881 242.663C280.097 242.591 280.28 242.492 280.43 242.366C280.586 242.234 280.706 242.078 280.79 241.898C280.88 241.712 280.925 241.511 280.925 241.295C280.925 241.133 280.895 240.977 280.835 240.827C280.781 240.677 280.685 240.542 280.547 240.422C280.415 240.302 280.238 240.206 280.016 240.134C279.794 240.062 279.518 240.026 279.188 240.026H277.505ZM279.242 238.856C279.806 238.856 280.292 238.913 280.7 239.027C281.108 239.135 281.444 239.288 281.708 239.486C281.972 239.684 282.164 239.915 282.284 240.179C282.41 240.443 282.473 240.728 282.473 241.034C282.473 241.232 282.446 241.439 282.392 241.655C282.338 241.871 282.245 242.078 282.113 242.276C281.981 242.468 281.801 242.645 281.573 242.807C281.351 242.969 281.066 243.095 280.718 243.185C281.39 243.305 281.912 243.545 282.284 243.905C282.662 244.265 282.851 244.742 282.851 245.336C282.851 245.786 282.758 246.179 282.572 246.515C282.392 246.845 282.146 247.121 281.834 247.343C281.522 247.565 281.156 247.73 280.736 247.838C280.316 247.946 279.872 248 279.404 248H275.831V238.856H279.242ZM289.522 243.077V240.026H288.073C287.743 240.026 287.467 240.074 287.245 240.17C287.023 240.26 286.843 240.38 286.705 240.53C286.573 240.68 286.477 240.845 286.417 241.025C286.363 241.205 286.336 241.385 286.336 241.565C286.336 242.039 286.507 242.411 286.849 242.681C287.191 242.945 287.656 243.077 288.244 243.077H289.522ZM291.196 238.856V248H289.522V244.193H288.901C288.727 244.193 288.583 244.208 288.469 244.238C288.355 244.262 288.256 244.301 288.172 244.355C288.094 244.409 288.025 244.475 287.965 244.553C287.905 244.631 287.845 244.718 287.785 244.814L285.922 247.388C285.862 247.49 285.799 247.58 285.733 247.658C285.667 247.73 285.592 247.793 285.508 247.847C285.424 247.895 285.325 247.934 285.211 247.964C285.097 247.988 284.962 248 284.806 248H283.591L286.156 244.607C286.378 244.229 286.681 243.974 287.065 243.842C286.609 243.782 286.222 243.674 285.904 243.518C285.592 243.356 285.337 243.17 285.139 242.96C284.941 242.744 284.797 242.51 284.707 242.258C284.617 242 284.572 241.739 284.572 241.475C284.572 241.151 284.635 240.833 284.761 240.521C284.887 240.209 285.088 239.93 285.364 239.684C285.64 239.438 285.997 239.24 286.435 239.09C286.873 238.934 287.401 238.856 288.019 238.856H291.196ZM306.534 248H305.319C305.001 248 304.758 247.952 304.59 247.856C304.428 247.754 304.299 247.598 304.203 247.388L302.529 244.625C302.391 244.397 302.217 244.226 302.007 244.112C301.803 243.998 301.566 243.941 301.296 243.941H300.432V248.009H298.722V243.941H297.858C297.588 243.941 297.348 243.998 297.138 244.112C296.934 244.226 296.763 244.397 296.625 244.625L294.96 247.388C294.858 247.598 294.723 247.754 294.555 247.856C294.393 247.952 294.156 248 293.844 248H292.629L294.96 244.22C295.116 243.956 295.29 243.74 295.482 243.572C295.68 243.404 295.923 243.278 296.211 243.194C295.989 243.116 295.797 243.008 295.635 242.87C295.479 242.726 295.332 242.54 295.194 242.312L292.872 238.856H294.258C294.426 238.856 294.579 238.901 294.717 238.991C294.855 239.075 294.963 239.189 295.041 239.333L296.886 242.159C297.006 242.357 297.156 242.507 297.336 242.609C297.516 242.711 297.732 242.762 297.984 242.762H298.722V238.847H300.432V242.762H301.152C301.65 242.762 302.022 242.561 302.268 242.159L304.113 239.333C304.197 239.189 304.308 239.075 304.446 238.991C304.584 238.901 304.737 238.856 304.905 238.856H306.282L303.96 242.312C303.816 242.54 303.666 242.726 303.51 242.87C303.354 243.014 303.165 243.125 302.943 243.203C303.231 243.287 303.471 243.413 303.663 243.581C303.861 243.743 304.038 243.956 304.194 244.22L306.534 248ZM313.669 242.411C313.669 242.063 313.618 241.742 313.516 241.448C313.42 241.154 313.276 240.899 313.084 240.683C312.892 240.467 312.658 240.299 312.382 240.179C312.106 240.059 311.788 239.999 311.428 239.999C310.69 239.999 310.108 240.212 309.682 240.638C309.262 241.064 308.995 241.655 308.881 242.411H313.669ZM315.118 246.695C314.902 246.947 314.653 247.166 314.371 247.352C314.089 247.532 313.789 247.679 313.471 247.793C313.153 247.907 312.823 247.991 312.481 248.045C312.145 248.099 311.812 248.126 311.482 248.126C310.852 248.126 310.267 248.021 309.727 247.811C309.193 247.595 308.728 247.283 308.332 246.875C307.942 246.461 307.636 245.951 307.414 245.345C307.198 244.733 307.09 244.031 307.09 243.239C307.09 242.603 307.189 242.012 307.387 241.466C307.585 240.914 307.867 240.434 308.233 240.026C308.605 239.618 309.058 239.297 309.592 239.063C310.126 238.829 310.726 238.712 311.392 238.712C311.95 238.712 312.463 238.805 312.931 238.991C313.405 239.171 313.813 239.435 314.155 239.783C314.497 240.131 314.764 240.56 314.956 241.07C315.154 241.58 315.253 242.162 315.253 242.816C315.253 243.086 315.223 243.269 315.163 243.365C315.103 243.455 314.992 243.5 314.83 243.5H308.836C308.854 244.046 308.932 244.523 309.07 244.931C309.208 245.333 309.397 245.669 309.637 245.939C309.883 246.209 310.174 246.41 310.51 246.542C310.846 246.674 311.221 246.74 311.635 246.74C312.025 246.74 312.361 246.695 312.643 246.605C312.931 246.515 313.177 246.419 313.381 246.317C313.591 246.209 313.765 246.11 313.903 246.02C314.047 245.93 314.173 245.885 314.281 245.885C314.425 245.885 314.536 245.939 314.614 246.047L315.118 246.695ZM324.675 240.188H321.228V248H319.464V240.188H316.017V238.856H324.675V240.188ZM332.213 240.566C332.159 240.632 332.105 240.686 332.051 240.728C332.003 240.764 331.931 240.782 331.835 240.782C331.739 240.782 331.637 240.746 331.529 240.674C331.427 240.596 331.295 240.515 331.133 240.431C330.977 240.341 330.785 240.26 330.557 240.188C330.335 240.11 330.059 240.071 329.729 240.071C329.297 240.071 328.916 240.149 328.586 240.305C328.256 240.461 327.98 240.683 327.758 240.971C327.542 241.259 327.377 241.61 327.263 242.024C327.149 242.438 327.092 242.903 327.092 243.419C327.092 243.953 327.152 244.43 327.272 244.85C327.392 245.264 327.563 245.615 327.785 245.903C328.007 246.185 328.277 246.401 328.595 246.551C328.913 246.695 329.267 246.767 329.657 246.767C330.035 246.767 330.347 246.722 330.593 246.632C330.839 246.536 331.043 246.434 331.205 246.326C331.367 246.218 331.502 246.119 331.61 246.029C331.718 245.933 331.829 245.885 331.943 245.885C332.087 245.885 332.198 245.939 332.276 246.047L332.78 246.695C332.57 246.953 332.333 247.172 332.069 247.352C331.811 247.532 331.535 247.679 331.241 247.793C330.947 247.907 330.638 247.991 330.314 248.045C329.996 248.099 329.672 248.126 329.342 248.126C328.772 248.126 328.238 248.021 327.74 247.811C327.248 247.601 326.819 247.295 326.453 246.893C326.093 246.491 325.808 245.999 325.598 245.417C325.388 244.829 325.283 244.163 325.283 243.419C325.283 242.741 325.376 242.114 325.562 241.538C325.754 240.962 326.033 240.467 326.399 240.053C326.771 239.633 327.227 239.306 327.767 239.072C328.307 238.832 328.925 238.712 329.621 238.712C330.275 238.712 330.851 238.817 331.349 239.027C331.847 239.237 332.291 239.534 332.681 239.918L332.213 240.566ZM339.216 243.077V240.026H337.767C337.437 240.026 337.161 240.074 336.939 240.17C336.717 240.26 336.537 240.38 336.399 240.53C336.267 240.68 336.171 240.845 336.111 241.025C336.057 241.205 336.03 241.385 336.03 241.565C336.03 242.039 336.201 242.411 336.543 242.681C336.885 242.945 337.35 243.077 337.938 243.077H339.216ZM340.89 238.856V248H339.216V244.193H338.595C338.421 244.193 338.277 244.208 338.163 244.238C338.049 244.262 337.95 244.301 337.866 244.355C337.788 244.409 337.719 244.475 337.659 244.553C337.599 244.631 337.539 244.718 337.479 244.814L335.616 247.388C335.556 247.49 335.493 247.58 335.427 247.658C335.361 247.73 335.286 247.793 335.202 247.847C335.118 247.895 335.019 247.934 334.905 247.964C334.791 247.988 334.656 248 334.5 248H333.285L335.85 244.607C336.072 244.229 336.375 243.974 336.759 243.842C336.303 243.782 335.916 243.674 335.598 243.518C335.286 243.356 335.031 243.17 334.833 242.96C334.635 242.744 334.491 242.51 334.401 242.258C334.311 242 334.266 241.739 334.266 241.475C334.266 241.151 334.329 240.833 334.455 240.521C334.581 240.209 334.782 239.93 335.058 239.684C335.334 239.438 335.691 239.24 336.129 239.09C336.567 238.934 337.095 238.856 337.713 238.856H340.89ZM354.309 240.566C354.255 240.632 354.201 240.686 354.147 240.728C354.099 240.764 354.027 240.782 353.931 240.782C353.835 240.782 353.733 240.746 353.625 240.674C353.523 240.596 353.391 240.515 353.229 240.431C353.073 240.341 352.881 240.26 352.653 240.188C352.431 240.11 352.155 240.071 351.825 240.071C351.393 240.071 351.012 240.149 350.682 240.305C350.352 240.461 350.076 240.683 349.854 240.971C349.638 241.259 349.473 241.61 349.359 242.024C349.245 242.438 349.188 242.903 349.188 243.419C349.188 243.953 349.248 244.43 349.368 244.85C349.488 245.264 349.659 245.615 349.881 245.903C350.103 246.185 350.373 246.401 350.691 246.551C351.009 246.695 351.363 246.767 351.753 246.767C352.131 246.767 352.443 246.722 352.689 246.632C352.935 246.536 353.139 246.434 353.301 246.326C353.463 246.218 353.598 246.119 353.706 246.029C353.814 245.933 353.925 245.885 354.039 245.885C354.183 245.885 354.294 245.939 354.372 246.047L354.876 246.695C354.666 246.953 354.429 247.172 354.165 247.352C353.907 247.532 353.631 247.679 353.337 247.793C353.043 247.907 352.734 247.991 352.41 248.045C352.092 248.099 351.768 248.126 351.438 248.126C350.868 248.126 350.334 248.021 349.836 247.811C349.344 247.601 348.915 247.295 348.549 246.893C348.189 246.491 347.904 245.999 347.694 245.417C347.484 244.829 347.379 244.163 347.379 243.419C347.379 242.741 347.472 242.114 347.658 241.538C347.85 240.962 348.129 240.467 348.495 240.053C348.867 239.633 349.323 239.306 349.863 239.072C350.403 238.832 351.021 238.712 351.717 238.712C352.371 238.712 352.947 238.817 353.445 239.027C353.943 239.237 354.387 239.534 354.777 239.918L354.309 240.566ZM58.297 273.767C58.861 273.767 59.308 273.635 59.638 273.371C59.968 273.101 60.133 272.738 60.133 272.282C60.133 272.084 60.103 271.901 60.043 271.733C59.983 271.559 59.881 271.409 59.737 271.283C59.593 271.157 59.404 271.061 59.17 270.995C58.936 270.923 58.648 270.887 58.306 270.887H56.407V273.767H58.297ZM56.407 267.026V269.771H58.09C58.342 269.771 58.573 269.735 58.783 269.663C58.999 269.591 59.182 269.492 59.332 269.366C59.488 269.234 59.608 269.078 59.692 268.898C59.782 268.712 59.827 268.511 59.827 268.295C59.827 268.133 59.797 267.977 59.737 267.827C59.683 267.677 59.587 267.542 59.449 267.422C59.317 267.302 59.14 267.206 58.918 267.134C58.696 267.062 58.42 267.026 58.09 267.026H56.407ZM58.144 265.856C58.708 265.856 59.194 265.913 59.602 266.027C60.01 266.135 60.346 266.288 60.61 266.486C60.874 266.684 61.066 266.915 61.186 267.179C61.312 267.443 61.375 267.728 61.375 268.034C61.375 268.232 61.348 268.439 61.294 268.655C61.24 268.871 61.147 269.078 61.015 269.276C60.883 269.468 60.703 269.645 60.475 269.807C60.253 269.969 59.968 270.095 59.62 270.185C60.292 270.305 60.814 270.545 61.186 270.905C61.564 271.265 61.753 271.742 61.753 272.336C61.753 272.786 61.66 273.179 61.474 273.515C61.294 273.845 61.048 274.121 60.736 274.343C60.424 274.565 60.058 274.73 59.638 274.838C59.218 274.946 58.774 275 58.306 275H54.733V265.856H58.144ZM68.6118 270.941C67.8978 270.965 67.2918 271.022 66.7938 271.112C66.2958 271.196 65.8908 271.31 65.5788 271.454C65.2668 271.598 65.0418 271.769 64.9038 271.967C64.7658 272.159 64.6968 272.375 64.6968 272.615C64.6968 272.843 64.7328 273.041 64.8048 273.209C64.8828 273.371 64.9848 273.506 65.1108 273.614C65.2428 273.716 65.3958 273.791 65.5698 273.839C65.7438 273.887 65.9328 273.911 66.1368 273.911C66.4068 273.911 66.6528 273.884 66.8748 273.83C67.1028 273.776 67.3158 273.701 67.5138 273.605C67.7118 273.503 67.9008 273.38 68.0808 273.236C68.2608 273.092 68.4378 272.927 68.6118 272.741V270.941ZM63.4638 267.134C63.9738 266.648 64.5258 266.285 65.1198 266.045C65.7198 265.805 66.3768 265.685 67.0908 265.685C67.6128 265.685 68.0748 265.772 68.4768 265.946C68.8788 266.114 69.2178 266.351 69.4938 266.657C69.7698 266.963 69.9768 267.329 70.1148 267.755C70.2588 268.181 70.3308 268.652 70.3308 269.168V275H69.5478C69.3738 275 69.2418 274.973 69.1518 274.919C69.0618 274.859 68.9898 274.751 68.9358 274.595L68.7468 273.794C68.5128 274.01 68.2818 274.202 68.0538 274.37C67.8258 274.532 67.5858 274.673 67.3338 274.793C67.0878 274.907 66.8238 274.994 66.5418 275.054C66.2598 275.114 65.9478 275.144 65.6058 275.144C65.2458 275.144 64.9068 275.096 64.5888 275C64.2768 274.898 64.0038 274.745 63.7698 274.541C63.5358 274.337 63.3498 274.082 63.2118 273.776C63.0798 273.47 63.0138 273.113 63.0138 272.705C63.0138 272.345 63.1098 272 63.3018 271.67C63.4998 271.334 63.8178 271.034 64.2558 270.77C64.6998 270.506 65.2758 270.29 65.9838 270.122C66.6978 269.954 67.5738 269.858 68.6118 269.834V269.168C68.6118 268.478 68.4648 267.962 68.1708 267.62C67.8768 267.278 67.4448 267.107 66.8748 267.107C66.4908 267.107 66.1668 267.155 65.9028 267.251C65.6448 267.347 65.4198 267.455 65.2278 267.575C65.0418 267.689 64.8768 267.794 64.7328 267.89C64.5948 267.986 64.4508 268.034 64.3008 268.034C64.1808 268.034 64.0758 268.001 63.9858 267.935C63.9018 267.869 63.8328 267.791 63.7788 267.701L63.4638 267.134ZM82.9673 265.829V275H81.3833V269.186C81.3833 269.006 81.3923 268.802 81.4103 268.574C81.4343 268.346 81.4673 268.136 81.5093 267.944L78.4493 273.362C78.3953 273.464 78.3263 273.545 78.2423 273.605C78.1583 273.659 78.0593 273.686 77.9453 273.686H77.7473C77.6393 273.686 77.5403 273.659 77.4503 273.605C77.3663 273.545 77.2973 273.464 77.2433 273.362L74.1383 267.926C74.1743 268.118 74.2043 268.331 74.2283 268.565C74.2523 268.793 74.2643 269 74.2643 269.186V275H72.6803V265.829H74.1023C74.2223 265.829 74.3423 265.856 74.4623 265.91C74.5823 265.964 74.6843 266.069 74.7683 266.225L77.4413 270.743C77.5193 270.887 77.5913 271.04 77.6573 271.202C77.7233 271.364 77.7863 271.526 77.8463 271.688C77.9063 271.526 77.9663 271.364 78.0263 271.202C78.0923 271.04 78.1643 270.887 78.2423 270.743L80.8793 266.225C80.9633 266.063 81.0653 265.958 81.1853 265.91C81.3053 265.856 81.4253 265.829 81.5453 265.829H82.9673ZM93.3624 265.856V275H91.5984V269.024C91.5984 268.904 91.6044 268.772 91.6164 268.628C91.6284 268.478 91.6464 268.328 91.6704 268.178C91.6104 268.304 91.5504 268.424 91.4904 268.538C91.4364 268.646 91.3794 268.742 91.3194 268.826L87.1164 274.559C87.0504 274.667 86.9634 274.769 86.8554 274.865C86.7474 274.961 86.6244 275.009 86.4864 275.009H85.4244V265.856H87.1794V271.841C87.1794 271.961 87.1734 272.096 87.1614 272.246C87.1494 272.39 87.1314 272.534 87.1074 272.678C87.2274 272.414 87.3444 272.201 87.4584 272.039L91.6614 266.297C91.7274 266.195 91.8144 266.096 91.9224 266C92.0364 265.904 92.1624 265.856 92.3004 265.856H93.3624ZM108.07 275H106.306V267.188H102.121V275H100.366V265.856H108.07V275ZM114.423 265.712C115.095 265.712 115.701 265.823 116.241 266.045C116.787 266.261 117.249 266.576 117.627 266.99C118.011 267.398 118.305 267.893 118.509 268.475C118.713 269.051 118.815 269.699 118.815 270.419C118.815 271.139 118.713 271.79 118.509 272.372C118.305 272.954 118.011 273.449 117.627 273.857C117.249 274.265 116.787 274.58 116.241 274.802C115.701 275.018 115.095 275.126 114.423 275.126C113.745 275.126 113.133 275.018 112.587 274.802C112.047 274.58 111.585 274.265 111.201 273.857C110.817 273.449 110.52 272.954 110.31 272.372C110.106 271.79 110.004 271.139 110.004 270.419C110.004 269.699 110.106 269.051 110.31 268.475C110.52 267.893 110.817 267.398 111.201 266.99C111.585 266.576 112.047 266.261 112.587 266.045C113.133 265.823 113.745 265.712 114.423 265.712ZM114.423 273.758C115.287 273.758 115.932 273.467 116.358 272.885C116.784 272.303 116.997 271.484 116.997 270.428C116.997 269.372 116.784 268.553 116.358 267.971C115.932 267.383 115.287 267.089 114.423 267.089C113.547 267.089 112.893 267.383 112.461 267.971C112.035 268.553 111.822 269.372 111.822 270.428C111.822 271.484 112.035 272.303 112.461 272.885C112.893 273.467 113.547 273.758 114.423 273.758ZM133.319 265.856L128.243 277.655C128.189 277.787 128.117 277.889 128.027 277.961C127.937 278.033 127.805 278.069 127.631 278.069H126.326L128 274.424L124.247 265.856H125.777C125.927 265.856 126.044 265.892 126.128 265.964C126.212 266.036 126.272 266.117 126.308 266.207L128.63 271.697C128.678 271.835 128.723 271.976 128.765 272.12C128.813 272.258 128.852 272.396 128.882 272.534C128.924 272.39 128.969 272.249 129.017 272.111C129.065 271.967 129.116 271.826 129.17 271.688L131.411 266.207C131.453 266.105 131.519 266.021 131.609 265.955C131.699 265.889 131.801 265.856 131.915 265.856H133.319ZM140.187 266.333C140.277 266.195 140.397 266.081 140.547 265.991C140.697 265.901 140.856 265.856 141.024 265.856H142.401L140.088 269.312C139.944 269.54 139.794 269.726 139.638 269.87C139.482 270.014 139.29 270.125 139.062 270.203C139.35 270.287 139.593 270.413 139.791 270.581C139.989 270.743 140.166 270.956 140.322 271.22L142.653 275H141.438C141.12 275 140.874 274.949 140.7 274.847C140.532 274.739 140.388 274.586 140.268 274.388L138.594 271.625C138.456 271.397 138.282 271.226 138.072 271.112C137.868 270.998 137.631 270.941 137.361 270.941H136.416V275.009H134.661V265.856H136.416V269.762H137.244C137.496 269.762 137.709 269.711 137.883 269.609C138.063 269.507 138.216 269.357 138.342 269.159L140.187 266.333ZM149.014 270.941C148.3 270.965 147.694 271.022 147.196 271.112C146.698 271.196 146.293 271.31 145.981 271.454C145.669 271.598 145.444 271.769 145.306 271.967C145.168 272.159 145.099 272.375 145.099 272.615C145.099 272.843 145.135 273.041 145.207 273.209C145.285 273.371 145.387 273.506 145.513 273.614C145.645 273.716 145.798 273.791 145.972 273.839C146.146 273.887 146.335 273.911 146.539 273.911C146.809 273.911 147.055 273.884 147.277 273.83C147.505 273.776 147.718 273.701 147.916 273.605C148.114 273.503 148.303 273.38 148.483 273.236C148.663 273.092 148.84 272.927 149.014 272.741V270.941ZM143.866 267.134C144.376 266.648 144.928 266.285 145.522 266.045C146.122 265.805 146.779 265.685 147.493 265.685C148.015 265.685 148.477 265.772 148.879 265.946C149.281 266.114 149.62 266.351 149.896 266.657C150.172 266.963 150.379 267.329 150.517 267.755C150.661 268.181 150.733 268.652 150.733 269.168V275H149.95C149.776 275 149.644 274.973 149.554 274.919C149.464 274.859 149.392 274.751 149.338 274.595L149.149 273.794C148.915 274.01 148.684 274.202 148.456 274.37C148.228 274.532 147.988 274.673 147.736 274.793C147.49 274.907 147.226 274.994 146.944 275.054C146.662 275.114 146.35 275.144 146.008 275.144C145.648 275.144 145.309 275.096 144.991 275C144.679 274.898 144.406 274.745 144.172 274.541C143.938 274.337 143.752 274.082 143.614 273.776C143.482 273.47 143.416 273.113 143.416 272.705C143.416 272.345 143.512 272 143.704 271.67C143.902 271.334 144.22 271.034 144.658 270.77C145.102 270.506 145.678 270.29 146.386 270.122C147.1 269.954 147.976 269.858 149.014 269.834V269.168C149.014 268.478 148.867 267.962 148.573 267.62C148.279 267.278 147.847 267.107 147.277 267.107C146.893 267.107 146.569 267.155 146.305 267.251C146.047 267.347 145.822 267.455 145.63 267.575C145.444 267.689 145.279 267.794 145.135 267.89C144.997 267.986 144.853 268.034 144.703 268.034C144.583 268.034 144.478 268.001 144.388 267.935C144.304 267.869 144.235 267.791 144.181 267.701L143.866 267.134ZM152.507 266.81C152.849 266.486 153.269 266.222 153.767 266.018C154.265 265.814 154.862 265.712 155.558 265.712C156.116 265.712 156.608 265.781 157.034 265.919C157.46 266.051 157.817 266.231 158.105 266.459C158.399 266.681 158.618 266.936 158.762 267.224C158.912 267.512 158.987 267.812 158.987 268.124C158.987 268.304 158.957 268.493 158.897 268.691C158.843 268.883 158.753 269.069 158.627 269.249C158.501 269.429 158.333 269.597 158.123 269.753C157.919 269.903 157.664 270.029 157.358 270.131C157.922 270.305 158.369 270.581 158.699 270.959C159.029 271.337 159.194 271.808 159.194 272.372C159.194 272.798 159.095 273.182 158.897 273.524C158.705 273.866 158.444 274.157 158.114 274.397C157.784 274.631 157.403 274.811 156.971 274.937C156.539 275.063 156.089 275.126 155.621 275.126C155.333 275.126 155.036 275.099 154.73 275.045C154.43 274.991 154.133 274.907 153.839 274.793C153.545 274.679 153.266 274.532 153.002 274.352C152.738 274.172 152.501 273.953 152.291 273.695L152.795 273.047C152.873 272.939 152.984 272.885 153.128 272.885C153.242 272.885 153.359 272.933 153.479 273.029C153.605 273.119 153.755 273.218 153.929 273.326C154.109 273.434 154.322 273.536 154.568 273.632C154.82 273.722 155.132 273.767 155.504 273.767C155.822 273.767 156.104 273.728 156.35 273.65C156.602 273.572 156.812 273.464 156.98 273.326C157.154 273.188 157.286 273.026 157.376 272.84C157.466 272.654 157.511 272.45 157.511 272.228C157.511 271.796 157.334 271.451 156.98 271.193C156.626 270.935 156.08 270.806 155.342 270.806H154.307V269.636H155.342C155.99 269.636 156.494 269.516 156.854 269.276C157.214 269.03 157.394 268.715 157.394 268.331C157.394 268.163 157.355 268.004 157.277 267.854C157.199 267.698 157.079 267.563 156.917 267.449C156.761 267.329 156.563 267.236 156.323 267.17C156.089 267.104 155.816 267.071 155.504 267.071C155.156 267.071 154.862 267.107 154.622 267.179C154.382 267.245 154.178 267.32 154.01 267.404C153.842 267.488 153.701 267.566 153.587 267.638C153.479 267.704 153.386 267.737 153.308 267.737C153.224 267.737 153.152 267.722 153.092 267.692C153.038 267.656 152.978 267.587 152.912 267.485L152.507 266.81ZM166.083 270.941C165.369 270.965 164.763 271.022 164.265 271.112C163.767 271.196 163.362 271.31 163.05 271.454C162.738 271.598 162.513 271.769 162.375 271.967C162.237 272.159 162.168 272.375 162.168 272.615C162.168 272.843 162.204 273.041 162.276 273.209C162.354 273.371 162.456 273.506 162.582 273.614C162.714 273.716 162.867 273.791 163.041 273.839C163.215 273.887 163.404 273.911 163.608 273.911C163.878 273.911 164.124 273.884 164.346 273.83C164.574 273.776 164.787 273.701 164.985 273.605C165.183 273.503 165.372 273.38 165.552 273.236C165.732 273.092 165.909 272.927 166.083 272.741V270.941ZM160.935 267.134C161.445 266.648 161.997 266.285 162.591 266.045C163.191 265.805 163.848 265.685 164.562 265.685C165.084 265.685 165.546 265.772 165.948 265.946C166.35 266.114 166.689 266.351 166.965 266.657C167.241 266.963 167.448 267.329 167.586 267.755C167.73 268.181 167.802 268.652 167.802 269.168V275H167.019C166.845 275 166.713 274.973 166.623 274.919C166.533 274.859 166.461 274.751 166.407 274.595L166.218 273.794C165.984 274.01 165.753 274.202 165.525 274.37C165.297 274.532 165.057 274.673 164.805 274.793C164.559 274.907 164.295 274.994 164.013 275.054C163.731 275.114 163.419 275.144 163.077 275.144C162.717 275.144 162.378 275.096 162.06 275C161.748 274.898 161.475 274.745 161.241 274.541C161.007 274.337 160.821 274.082 160.683 273.776C160.551 273.47 160.485 273.113 160.485 272.705C160.485 272.345 160.581 272 160.773 271.67C160.971 271.334 161.289 271.034 161.727 270.77C162.171 270.506 162.747 270.29 163.455 270.122C164.169 269.954 165.045 269.858 166.083 269.834V269.168C166.083 268.478 165.936 267.962 165.642 267.62C165.348 267.278 164.916 267.107 164.346 267.107C163.962 267.107 163.638 267.155 163.374 267.251C163.116 267.347 162.891 267.455 162.699 267.575C162.513 267.689 162.348 267.794 162.204 267.89C162.066 267.986 161.922 268.034 161.772 268.034C161.652 268.034 161.547 268.001 161.457 267.935C161.373 267.869 161.304 267.791 161.25 267.701L160.935 267.134ZM177.855 265.856V275H176.091V270.788H171.906V275H170.151V265.856H171.906V269.456H176.091V265.856H177.855ZM188.015 265.856V275H186.251V270.788H182.066V275H180.311V265.856H182.066V269.456H186.251V265.856H188.015ZM194.368 265.712C195.04 265.712 195.646 265.823 196.186 266.045C196.732 266.261 197.194 266.576 197.572 266.99C197.956 267.398 198.25 267.893 198.454 268.475C198.658 269.051 198.76 269.699 198.76 270.419C198.76 271.139 198.658 271.79 198.454 272.372C198.25 272.954 197.956 273.449 197.572 273.857C197.194 274.265 196.732 274.58 196.186 274.802C195.646 275.018 195.04 275.126 194.368 275.126C193.69 275.126 193.078 275.018 192.532 274.802C191.992 274.58 191.53 274.265 191.146 273.857C190.762 273.449 190.465 272.954 190.255 272.372C190.051 271.79 189.949 271.139 189.949 270.419C189.949 269.699 190.051 269.051 190.255 268.475C190.465 267.893 190.762 267.398 191.146 266.99C191.53 266.576 191.992 266.261 192.532 266.045C193.078 265.823 193.69 265.712 194.368 265.712ZM194.368 273.758C195.232 273.758 195.877 273.467 196.303 272.885C196.729 272.303 196.942 271.484 196.942 270.428C196.942 269.372 196.729 268.553 196.303 267.971C195.877 267.383 195.232 267.089 194.368 267.089C193.492 267.089 192.838 267.383 192.406 267.971C191.98 268.553 191.767 269.372 191.767 270.428C191.767 271.484 191.98 272.303 192.406 272.885C192.838 273.467 193.492 273.758 194.368 273.758ZM211.006 265.829V275H209.422V269.186C209.422 269.006 209.431 268.802 209.449 268.574C209.473 268.346 209.506 268.136 209.548 267.944L206.488 273.362C206.434 273.464 206.365 273.545 206.281 273.605C206.197 273.659 206.098 273.686 205.984 273.686H205.786C205.678 273.686 205.579 273.659 205.489 273.605C205.405 273.545 205.336 273.464 205.282 273.362L202.177 267.926C202.213 268.118 202.243 268.331 202.267 268.565C202.291 268.793 202.303 269 202.303 269.186V275H200.719V265.829H202.141C202.261 265.829 202.381 265.856 202.501 265.91C202.621 265.964 202.723 266.069 202.807 266.225L205.48 270.743C205.558 270.887 205.63 271.04 205.696 271.202C205.762 271.364 205.825 271.526 205.885 271.688C205.945 271.526 206.005 271.364 206.065 271.202C206.131 271.04 206.203 270.887 206.281 270.743L208.918 266.225C209.002 266.063 209.104 265.958 209.224 265.91C209.344 265.856 209.464 265.829 209.584 265.829H211.006ZM221.455 265.856L216.379 277.655C216.325 277.787 216.253 277.889 216.163 277.961C216.073 278.033 215.941 278.069 215.767 278.069H214.462L216.136 274.424L212.383 265.856H213.913C214.063 265.856 214.18 265.892 214.264 265.964C214.348 266.036 214.408 266.117 214.444 266.207L216.766 271.697C216.814 271.835 216.859 271.976 216.901 272.12C216.949 272.258 216.988 272.396 217.018 272.534C217.06 272.39 217.105 272.249 217.153 272.111C217.201 271.967 217.252 271.826 217.306 271.688L219.547 266.207C219.589 266.105 219.655 266.021 219.745 265.955C219.835 265.889 219.937 265.856 220.051 265.856H221.455ZM230.914 273.767C231.478 273.767 231.925 273.635 232.255 273.371C232.585 273.101 232.75 272.738 232.75 272.282C232.75 272.084 232.72 271.901 232.66 271.733C232.6 271.559 232.498 271.409 232.354 271.283C232.21 271.157 232.021 271.061 231.787 270.995C231.553 270.923 231.265 270.887 230.923 270.887H229.024V273.767H230.914ZM229.024 267.026V269.771H230.707C230.959 269.771 231.19 269.735 231.4 269.663C231.616 269.591 231.799 269.492 231.949 269.366C232.105 269.234 232.225 269.078 232.309 268.898C232.399 268.712 232.444 268.511 232.444 268.295C232.444 268.133 232.414 267.977 232.354 267.827C232.3 267.677 232.204 267.542 232.066 267.422C231.934 267.302 231.757 267.206 231.535 267.134C231.313 267.062 231.037 267.026 230.707 267.026H229.024ZM230.761 265.856C231.325 265.856 231.811 265.913 232.219 266.027C232.627 266.135 232.963 266.288 233.227 266.486C233.491 266.684 233.683 266.915 233.803 267.179C233.929 267.443 233.992 267.728 233.992 268.034C233.992 268.232 233.965 268.439 233.911 268.655C233.857 268.871 233.764 269.078 233.632 269.276C233.5 269.468 233.32 269.645 233.092 269.807C232.87 269.969 232.585 270.095 232.237 270.185C232.909 270.305 233.431 270.545 233.803 270.905C234.181 271.265 234.37 271.742 234.37 272.336C234.37 272.786 234.277 273.179 234.091 273.515C233.911 273.845 233.665 274.121 233.353 274.343C233.041 274.565 232.675 274.73 232.255 274.838C231.835 274.946 231.391 275 230.923 275H227.35V265.856H230.761ZM241.229 270.941C240.515 270.965 239.909 271.022 239.411 271.112C238.913 271.196 238.508 271.31 238.196 271.454C237.884 271.598 237.659 271.769 237.521 271.967C237.383 272.159 237.314 272.375 237.314 272.615C237.314 272.843 237.35 273.041 237.422 273.209C237.5 273.371 237.602 273.506 237.728 273.614C237.86 273.716 238.013 273.791 238.187 273.839C238.361 273.887 238.55 273.911 238.754 273.911C239.024 273.911 239.27 273.884 239.492 273.83C239.72 273.776 239.933 273.701 240.131 273.605C240.329 273.503 240.518 273.38 240.698 273.236C240.878 273.092 241.055 272.927 241.229 272.741V270.941ZM236.081 267.134C236.591 266.648 237.143 266.285 237.737 266.045C238.337 265.805 238.994 265.685 239.708 265.685C240.23 265.685 240.692 265.772 241.094 265.946C241.496 266.114 241.835 266.351 242.111 266.657C242.387 266.963 242.594 267.329 242.732 267.755C242.876 268.181 242.948 268.652 242.948 269.168V275H242.165C241.991 275 241.859 274.973 241.769 274.919C241.679 274.859 241.607 274.751 241.553 274.595L241.364 273.794C241.13 274.01 240.899 274.202 240.671 274.37C240.443 274.532 240.203 274.673 239.951 274.793C239.705 274.907 239.441 274.994 239.159 275.054C238.877 275.114 238.565 275.144 238.223 275.144C237.863 275.144 237.524 275.096 237.206 275C236.894 274.898 236.621 274.745 236.387 274.541C236.153 274.337 235.967 274.082 235.829 273.776C235.697 273.47 235.631 273.113 235.631 272.705C235.631 272.345 235.727 272 235.919 271.67C236.117 271.334 236.435 271.034 236.873 270.77C237.317 270.506 237.893 270.29 238.601 270.122C239.315 269.954 240.191 269.858 241.229 269.834V269.168C241.229 268.478 241.082 267.962 240.788 267.62C240.494 267.278 240.062 267.107 239.492 267.107C239.108 267.107 238.784 267.155 238.52 267.251C238.262 267.347 238.037 267.455 237.845 267.575C237.659 267.689 237.494 267.794 237.35 267.89C237.212 267.986 237.068 268.034 236.918 268.034C236.798 268.034 236.693 268.001 236.603 267.935C236.519 267.869 236.45 267.791 236.396 267.701L236.081 267.134ZM255.584 265.829V275H254V269.186C254 269.006 254.009 268.802 254.027 268.574C254.051 268.346 254.084 268.136 254.126 267.944L251.066 273.362C251.012 273.464 250.943 273.545 250.859 273.605C250.775 273.659 250.676 273.686 250.562 273.686H250.364C250.256 273.686 250.157 273.659 250.067 273.605C249.983 273.545 249.914 273.464 249.86 273.362L246.755 267.926C246.791 268.118 246.821 268.331 246.845 268.565C246.869 268.793 246.881 269 246.881 269.186V275H245.297V265.829H246.719C246.839 265.829 246.959 265.856 247.079 265.91C247.199 265.964 247.301 266.069 247.385 266.225L250.058 270.743C250.136 270.887 250.208 271.04 250.274 271.202C250.34 271.364 250.403 271.526 250.463 271.688C250.523 271.526 250.583 271.364 250.643 271.202C250.709 271.04 250.781 270.887 250.859 270.743L253.496 266.225C253.58 266.063 253.682 265.958 253.802 265.91C253.922 265.856 254.042 265.829 254.162 265.829H255.584ZM265.98 265.856V275H264.216V269.024C264.216 268.904 264.222 268.772 264.234 268.628C264.246 268.478 264.264 268.328 264.288 268.178C264.228 268.304 264.168 268.424 264.108 268.538C264.054 268.646 263.997 268.742 263.937 268.826L259.734 274.559C259.668 274.667 259.581 274.769 259.473 274.865C259.365 274.961 259.242 275.009 259.104 275.009H258.042V265.856H259.797V271.841C259.797 271.961 259.791 272.096 259.779 272.246C259.767 272.39 259.749 272.534 259.725 272.678C259.845 272.414 259.962 272.201 260.076 272.039L264.279 266.297C264.345 266.195 264.432 266.096 264.54 266C264.654 265.904 264.78 265.856 264.918 265.856H265.98ZM280.687 265.856V275H278.923V270.788H274.738V275H272.983V265.856H274.738V269.456H278.923V265.856H280.687ZM287.04 265.712C287.712 265.712 288.318 265.823 288.858 266.045C289.404 266.261 289.866 266.576 290.244 266.99C290.628 267.398 290.922 267.893 291.126 268.475C291.33 269.051 291.432 269.699 291.432 270.419C291.432 271.139 291.33 271.79 291.126 272.372C290.922 272.954 290.628 273.449 290.244 273.857C289.866 274.265 289.404 274.58 288.858 274.802C288.318 275.018 287.712 275.126 287.04 275.126C286.362 275.126 285.75 275.018 285.204 274.802C284.664 274.58 284.202 274.265 283.818 273.857C283.434 273.449 283.137 272.954 282.927 272.372C282.723 271.79 282.621 271.139 282.621 270.419C282.621 269.699 282.723 269.051 282.927 268.475C283.137 267.893 283.434 267.398 283.818 266.99C284.202 266.576 284.664 266.261 285.204 266.045C285.75 265.823 286.362 265.712 287.04 265.712ZM287.04 273.758C287.904 273.758 288.549 273.467 288.975 272.885C289.401 272.303 289.614 271.484 289.614 270.428C289.614 269.372 289.401 268.553 288.975 267.971C288.549 267.383 287.904 267.089 287.04 267.089C286.164 267.089 285.51 267.383 285.078 267.971C284.652 268.553 284.439 269.372 284.439 270.428C284.439 271.484 284.652 272.303 285.078 272.885C285.51 273.467 286.164 273.758 287.04 273.758ZM303.678 265.829V275H302.094V269.186C302.094 269.006 302.103 268.802 302.121 268.574C302.145 268.346 302.178 268.136 302.22 267.944L299.16 273.362C299.106 273.464 299.037 273.545 298.953 273.605C298.869 273.659 298.77 273.686 298.656 273.686H298.458C298.35 273.686 298.251 273.659 298.161 273.605C298.077 273.545 298.008 273.464 297.954 273.362L294.849 267.926C294.885 268.118 294.915 268.331 294.939 268.565C294.963 268.793 294.975 269 294.975 269.186V275H293.391V265.829H294.813C294.933 265.829 295.053 265.856 295.173 265.91C295.293 265.964 295.395 266.069 295.479 266.225L298.152 270.743C298.23 270.887 298.302 271.04 298.368 271.202C298.434 271.364 298.497 271.526 298.557 271.688C298.617 271.526 298.677 271.364 298.737 271.202C298.803 271.04 298.875 270.887 298.953 270.743L301.59 266.225C301.674 266.063 301.776 265.958 301.896 265.91C302.016 265.856 302.136 265.829 302.256 265.829H303.678ZM312.192 269.411C312.192 269.063 312.141 268.742 312.039 268.448C311.943 268.154 311.799 267.899 311.607 267.683C311.415 267.467 311.181 267.299 310.905 267.179C310.629 267.059 310.311 266.999 309.951 266.999C309.213 266.999 308.631 267.212 308.205 267.638C307.785 268.064 307.518 268.655 307.404 269.411H312.192ZM313.641 273.695C313.425 273.947 313.176 274.166 312.894 274.352C312.612 274.532 312.312 274.679 311.994 274.793C311.676 274.907 311.346 274.991 311.004 275.045C310.668 275.099 310.335 275.126 310.005 275.126C309.375 275.126 308.79 275.021 308.25 274.811C307.716 274.595 307.251 274.283 306.855 273.875C306.465 273.461 306.159 272.951 305.937 272.345C305.721 271.733 305.613 271.031 305.613 270.239C305.613 269.603 305.712 269.012 305.91 268.466C306.108 267.914 306.39 267.434 306.756 267.026C307.128 266.618 307.581 266.297 308.115 266.063C308.649 265.829 309.249 265.712 309.915 265.712C310.473 265.712 310.986 265.805 311.454 265.991C311.928 266.171 312.336 266.435 312.678 266.783C313.02 267.131 313.287 267.56 313.479 268.07C313.677 268.58 313.776 269.162 313.776 269.816C313.776 270.086 313.746 270.269 313.686 270.365C313.626 270.455 313.515 270.5 313.353 270.5H307.359C307.377 271.046 307.455 271.523 307.593 271.931C307.731 272.333 307.92 272.669 308.16 272.939C308.406 273.209 308.697 273.41 309.033 273.542C309.369 273.674 309.744 273.74 310.158 273.74C310.548 273.74 310.884 273.695 311.166 273.605C311.454 273.515 311.7 273.419 311.904 273.317C312.114 273.209 312.288 273.11 312.426 273.02C312.57 272.93 312.696 272.885 312.804 272.885C312.948 272.885 313.059 272.939 313.137 273.047L313.641 273.695ZM317.418 272.75C317.706 273.128 318.015 273.392 318.345 273.542C318.681 273.692 319.056 273.767 319.47 273.767C320.274 273.767 320.895 273.479 321.333 272.903C321.777 272.321 321.999 271.475 321.999 270.365C321.999 269.783 321.948 269.288 321.846 268.88C321.75 268.466 321.606 268.13 321.414 267.872C321.228 267.608 320.997 267.416 320.721 267.296C320.445 267.17 320.133 267.107 319.785 267.107C319.275 267.107 318.831 267.221 318.453 267.449C318.081 267.677 317.736 268.001 317.418 268.421V272.75ZM317.328 267.224C317.52 266.996 317.724 266.789 317.94 266.603C318.162 266.411 318.399 266.249 318.651 266.117C318.903 265.979 319.17 265.874 319.452 265.802C319.74 265.724 320.046 265.685 320.37 265.685C320.892 265.685 321.363 265.787 321.783 265.991C322.209 266.195 322.572 266.495 322.872 266.891C323.172 267.287 323.403 267.776 323.565 268.358C323.733 268.94 323.817 269.609 323.817 270.365C323.817 271.043 323.724 271.673 323.538 272.255C323.358 272.831 323.097 273.332 322.755 273.758C322.419 274.184 322.005 274.52 321.513 274.766C321.027 275.006 320.478 275.126 319.866 275.126C319.32 275.126 318.852 275.036 318.462 274.856C318.072 274.676 317.724 274.424 317.418 274.1V278.069H315.663V265.856H316.716C316.962 265.856 317.115 265.973 317.175 266.207L317.328 267.224ZM333.516 265.856L328.44 277.655C328.386 277.787 328.314 277.889 328.224 277.961C328.134 278.033 328.002 278.069 327.828 278.069H326.523L328.197 274.424L324.444 265.856H325.974C326.124 265.856 326.241 265.892 326.325 265.964C326.409 266.036 326.469 266.117 326.505 266.207L328.827 271.697C328.875 271.835 328.92 271.976 328.962 272.12C329.01 272.258 329.049 272.396 329.079 272.534C329.121 272.39 329.166 272.249 329.214 272.111C329.262 271.967 329.313 271.826 329.367 271.688L331.608 266.207C331.65 266.105 331.716 266.021 331.806 265.955C331.896 265.889 331.998 265.856 332.112 265.856H333.516ZM62.392 294.188H58.945V302H57.181V294.188H53.734V292.856H62.392V294.188ZM69.5791 296.411C69.5791 296.063 69.5281 295.742 69.4261 295.448C69.3301 295.154 69.1861 294.899 68.9941 294.683C68.8021 294.467 68.5681 294.299 68.2921 294.179C68.0161 294.059 67.6981 293.999 67.3381 293.999C66.6001 293.999 66.0181 294.212 65.5921 294.638C65.1721 295.064 64.9051 295.655 64.7911 296.411H69.5791ZM71.0281 300.695C70.8121 300.947 70.5631 301.166 70.2811 301.352C69.9991 301.532 69.6991 301.679 69.3811 301.793C69.0631 301.907 68.7331 301.991 68.3911 302.045C68.0551 302.099 67.7221 302.126 67.3921 302.126C66.7621 302.126 66.1771 302.021 65.6371 301.811C65.1031 301.595 64.6381 301.283 64.2421 300.875C63.8521 300.461 63.5461 299.951 63.3241 299.345C63.1081 298.733 63.0001 298.031 63.0001 297.239C63.0001 296.603 63.0991 296.012 63.2971 295.466C63.4951 294.914 63.7771 294.434 64.1431 294.026C64.5151 293.618 64.9681 293.297 65.5021 293.063C66.0361 292.829 66.6361 292.712 67.3021 292.712C67.8601 292.712 68.3731 292.805 68.8411 292.991C69.3151 293.171 69.7231 293.435 70.0651 293.783C70.4071 294.131 70.6741 294.56 70.8661 295.07C71.0641 295.58 71.1631 296.162 71.1631 296.816C71.1631 297.086 71.1331 297.269 71.0731 297.365C71.0131 297.455 70.9021 297.5 70.7401 297.5H64.7461C64.7641 298.046 64.8421 298.523 64.9801 298.931C65.1181 299.333 65.3071 299.669 65.5471 299.939C65.7931 300.209 66.0841 300.41 66.4201 300.542C66.7561 300.674 67.1311 300.74 67.5451 300.74C67.9351 300.74 68.2711 300.695 68.5531 300.605C68.8411 300.515 69.0871 300.419 69.2911 300.317C69.5011 300.209 69.6751 300.11 69.8131 300.02C69.9571 299.93 70.0831 299.885 70.1911 299.885C70.3351 299.885 70.4461 299.939 70.5241 300.047L71.0281 300.695ZM81.1764 302H79.4214V294.233H76.6944C76.6224 295.385 76.5144 296.381 76.3704 297.221C76.2264 298.055 76.0524 298.766 75.8484 299.354C75.6444 299.936 75.4164 300.41 75.1644 300.776C74.9184 301.136 74.6544 301.418 74.3724 301.622C74.0964 301.82 73.8114 301.952 73.5174 302.018C73.2234 302.09 72.9294 302.126 72.6354 302.126C72.0894 302.126 71.8164 302.036 71.8164 301.856V300.749H72.3024C72.5064 300.749 72.7104 300.716 72.9144 300.65C73.1244 300.578 73.3284 300.443 73.5264 300.245C73.7304 300.041 73.9224 299.759 74.1024 299.399C74.2824 299.039 74.4474 298.568 74.5974 297.986C74.7474 297.398 74.8764 296.684 74.9844 295.844C75.0924 295.004 75.1764 294.008 75.2364 292.856H81.1764V302ZM89.706 296.411C89.706 296.063 89.655 295.742 89.553 295.448C89.457 295.154 89.313 294.899 89.121 294.683C88.929 294.467 88.695 294.299 88.419 294.179C88.143 294.059 87.825 293.999 87.465 293.999C86.727 293.999 86.145 294.212 85.719 294.638C85.299 295.064 85.032 295.655 84.918 296.411H89.706ZM91.155 300.695C90.939 300.947 90.69 301.166 90.408 301.352C90.126 301.532 89.826 301.679 89.508 301.793C89.19 301.907 88.86 301.991 88.518 302.045C88.182 302.099 87.849 302.126 87.519 302.126C86.889 302.126 86.304 302.021 85.764 301.811C85.23 301.595 84.765 301.283 84.369 300.875C83.979 300.461 83.673 299.951 83.451 299.345C83.235 298.733 83.127 298.031 83.127 297.239C83.127 296.603 83.226 296.012 83.424 295.466C83.622 294.914 83.904 294.434 84.27 294.026C84.642 293.618 85.095 293.297 85.629 293.063C86.163 292.829 86.763 292.712 87.429 292.712C87.987 292.712 88.5 292.805 88.968 292.991C89.442 293.171 89.85 293.435 90.192 293.783C90.534 294.131 90.801 294.56 90.993 295.07C91.191 295.58 91.29 296.162 91.29 296.816C91.29 297.086 91.26 297.269 91.2 297.365C91.14 297.455 91.029 297.5 90.867 297.5H84.873C84.891 298.046 84.969 298.523 85.107 298.931C85.245 299.333 85.434 299.669 85.674 299.939C85.92 300.209 86.211 300.41 86.547 300.542C86.883 300.674 87.258 300.74 87.672 300.74C88.062 300.74 88.398 300.695 88.68 300.605C88.968 300.515 89.214 300.419 89.418 300.317C89.628 300.209 89.802 300.11 89.94 300.02C90.084 299.93 90.21 299.885 90.318 299.885C90.462 299.885 90.573 299.939 90.651 300.047L91.155 300.695ZM99.1164 300.803C100.148 300.743 100.934 300.419 101.474 299.831C102.02 299.243 102.293 298.442 102.293 297.428C102.293 296.414 102.02 295.613 101.474 295.025C100.934 294.431 100.148 294.104 99.1164 294.044V300.803ZM97.5774 294.044C96.5394 294.104 95.7474 294.431 95.2014 295.025C94.6614 295.613 94.3914 296.414 94.3914 297.428C94.3914 298.442 94.6614 299.243 95.2014 299.831C95.7474 300.419 96.5394 300.743 97.5774 300.803V294.044ZM99.1704 292.721C99.9144 292.757 100.586 292.892 101.186 293.126C101.792 293.36 102.308 293.681 102.734 294.089C103.16 294.491 103.487 294.974 103.715 295.538C103.943 296.102 104.057 296.729 104.057 297.419C104.057 298.115 103.943 298.745 103.715 299.309C103.487 299.873 103.16 300.359 102.734 300.767C102.308 301.169 101.792 301.487 101.186 301.721C100.586 301.949 99.9144 302.081 99.1704 302.117V305.123H97.5234V302.117C96.7734 302.081 96.0984 301.949 95.4984 301.721C94.8984 301.487 94.3854 301.169 93.9594 300.767C93.5334 300.359 93.2064 299.873 92.9784 299.309C92.7504 298.745 92.6364 298.115 92.6364 297.419C92.6364 296.729 92.7504 296.102 92.9784 295.538C93.2064 294.974 93.5334 294.491 93.9594 294.089C94.3854 293.681 94.8984 293.36 95.4984 293.126C96.0984 292.892 96.7734 292.757 97.5234 292.721V289.076H99.1704V292.721ZM109.888 292.712C110.56 292.712 111.166 292.823 111.706 293.045C112.252 293.261 112.714 293.576 113.092 293.99C113.476 294.398 113.77 294.893 113.974 295.475C114.178 296.051 114.28 296.699 114.28 297.419C114.28 298.139 114.178 298.79 113.974 299.372C113.77 299.954 113.476 300.449 113.092 300.857C112.714 301.265 112.252 301.58 111.706 301.802C111.166 302.018 110.56 302.126 109.888 302.126C109.21 302.126 108.598 302.018 108.052 301.802C107.512 301.58 107.05 301.265 106.666 300.857C106.282 300.449 105.985 299.954 105.775 299.372C105.571 298.79 105.469 298.139 105.469 297.419C105.469 296.699 105.571 296.051 105.775 295.475C105.985 294.893 106.282 294.398 106.666 293.99C107.05 293.576 107.512 293.261 108.052 293.045C108.598 292.823 109.21 292.712 109.888 292.712ZM109.888 300.758C110.752 300.758 111.397 300.467 111.823 299.885C112.249 299.303 112.462 298.484 112.462 297.428C112.462 296.372 112.249 295.553 111.823 294.971C111.397 294.383 110.752 294.089 109.888 294.089C109.012 294.089 108.358 294.383 107.926 294.971C107.5 295.553 107.287 296.372 107.287 297.428C107.287 298.484 107.5 299.303 107.926 299.885C108.358 300.467 109.012 300.758 109.888 300.758ZM123.943 292.856V302H122.179V297.788H117.994V302H116.239V292.856H117.994V296.456H122.179V292.856H123.943ZM131.313 297.941C130.599 297.965 129.993 298.022 129.495 298.112C128.997 298.196 128.592 298.31 128.28 298.454C127.968 298.598 127.743 298.769 127.605 298.967C127.467 299.159 127.398 299.375 127.398 299.615C127.398 299.843 127.434 300.041 127.506 300.209C127.584 300.371 127.686 300.506 127.812 300.614C127.944 300.716 128.097 300.791 128.271 300.839C128.445 300.887 128.634 300.911 128.838 300.911C129.108 300.911 129.354 300.884 129.576 300.83C129.804 300.776 130.017 300.701 130.215 300.605C130.413 300.503 130.602 300.38 130.782 300.236C130.962 300.092 131.139 299.927 131.313 299.741V297.941ZM126.165 294.134C126.675 293.648 127.227 293.285 127.821 293.045C128.421 292.805 129.078 292.685 129.792 292.685C130.314 292.685 130.776 292.772 131.178 292.946C131.58 293.114 131.919 293.351 132.195 293.657C132.471 293.963 132.678 294.329 132.816 294.755C132.96 295.181 133.032 295.652 133.032 296.168V302H132.249C132.075 302 131.943 301.973 131.853 301.919C131.763 301.859 131.691 301.751 131.637 301.595L131.448 300.794C131.214 301.01 130.983 301.202 130.755 301.37C130.527 301.532 130.287 301.673 130.035 301.793C129.789 301.907 129.525 301.994 129.243 302.054C128.961 302.114 128.649 302.144 128.307 302.144C127.947 302.144 127.608 302.096 127.29 302C126.978 301.898 126.705 301.745 126.471 301.541C126.237 301.337 126.051 301.082 125.913 300.776C125.781 300.47 125.715 300.113 125.715 299.705C125.715 299.345 125.811 299 126.003 298.67C126.201 298.334 126.519 298.034 126.957 297.77C127.401 297.506 127.977 297.29 128.685 297.122C129.399 296.954 130.275 296.858 131.313 296.834V296.168C131.313 295.478 131.166 294.962 130.872 294.62C130.578 294.278 130.146 294.107 129.576 294.107C129.192 294.107 128.868 294.155 128.604 294.251C128.346 294.347 128.121 294.455 127.929 294.575C127.743 294.689 127.578 294.794 127.434 294.89C127.296 294.986 127.152 295.034 127.002 295.034C126.882 295.034 126.777 295.001 126.687 294.935C126.603 294.869 126.534 294.791 126.48 294.701L126.165 294.134Z" fill="#434343"/>
<defs>
<filter id="filter0_d_301_6922" x="0.5" y="45" width="422" height="318" filterUnits="userSpaceOnUse" color-interpolation-filters="sRGB">
<feFlood flood-opacity="0" result="BackgroundImageFix"/>
<feColorMatrix in="SourceAlpha" type="matrix" values="0 0 0 0 0 0 0 0 0 0 0 0 0 0 0 0 0 0 127 0" result="hardAlpha"/>
<feOffset dy="4"/>
<feGaussianBlur stdDeviation="15"/>
<feComposite in2="hardAlpha" operator="out"/>
<feColorMatrix type="matrix" values="0 0 0 0 0 0 0 0 0 0 0 0 0 0 0 0 0 0 0.15 0"/>
<feBlend mode="normal" in2="BackgroundImageFix" result="effect1_dropShadow_301_6922"/>
<feBlend mode="normal" in="SourceGraphic" in2="effect1_dropShadow_301_6922" result="shape"/>
</filter>
<linearGradient id="paint0_linear_301_6922" x1="42.5" y1="0" x2="42.5" y2="123" gradientUnits="userSpaceOnUse">
<stop stop-color="#3BB96D"/>
<stop offset="1" stop-color="#279A59"/>
</linearGradient>
<linearGradient id="paint1_linear_301_6922" x1="93.5" y1="101" x2="93.5" y2="181" gradientUnits="userSpaceOnUse">
<stop stop-color="#3BB96D"/>
<stop offset="1" stop-color="#279A59"/>
</linearGradient>
<clipPath id="clip0_301_6922">
<rect width="32" height="32" fill="white" transform="translate(77.5 125)"/>
</clipPath>
</defs>
</svg>
