<svg width="81" height="80" viewBox="0 0 81 80" fill="none" xmlns="http://www.w3.org/2000/svg">
<circle cx="40.5" cy="40" r="40" fill="url(#paint0_linear_301_6915)"/>
<path d="M29.5742 60H52.4258C54.3159 60 55.8535 58.4624 55.8535 56.5723V32.4258H47.8555C45.9653 32.4258 44.4277 30.8882 44.4277 28.998V21H29.5742C27.6841 21 26.1465 22.5376 26.1465 24.4277V56.5723C26.1465 58.4624 27.6841 60 29.5742 60ZM34.1445 37.0723H47.8555C48.487 37.0723 48.998 37.5833 48.998 38.2148C48.998 38.8464 48.487 39.3574 47.8555 39.3574H34.1445C33.513 39.3574 33.002 38.8464 33.002 38.2148C33.002 37.5833 33.513 37.0723 34.1445 37.0723ZM34.1445 41.6426H47.8555C48.487 41.6426 48.998 42.1536 48.998 42.7852C48.998 43.4167 48.487 43.9277 47.8555 43.9277H34.1445C33.513 43.9277 33.002 43.4167 33.002 42.7852C33.002 42.1536 33.513 41.6426 34.1445 41.6426ZM34.1445 46.2129H47.8555C48.487 46.2129 48.998 46.7239 48.998 47.3555C48.998 47.987 48.487 48.498 47.8555 48.498H34.1445C33.513 48.498 33.002 47.987 33.002 47.3555C33.002 46.7239 33.513 46.2129 34.1445 46.2129ZM34.1445 50.7832H43.2852C43.9167 50.7832 44.4277 51.2942 44.4277 51.9258C44.4277 52.5573 43.9167 53.0684 43.2852 53.0684H34.1445C33.513 53.0684 33.002 52.5573 33.002 51.9258C33.002 51.2942 33.513 50.7832 34.1445 50.7832Z" fill="white"/>
<path d="M47.8555 30.1406H55.184L46.7129 21.6694V28.998C46.7129 29.6284 47.2251 30.1406 47.8555 30.1406Z" fill="white"/>
<defs>
<linearGradient id="paint0_linear_301_6915" x1="40.5" y1="0" x2="40.5" y2="80" gradientUnits="userSpaceOnUse">
<stop stop-color="#3BB96D"/>
<stop offset="1" stop-color="#279A59"/>
</linearGradient>
</defs>
</svg>
