<svg width="121" height="20" viewBox="0 0 121 20" fill="none" xmlns="http://www.w3.org/2000/svg">
<path d="M19.1947 8.59371L15.3016 12.3887L16.221 17.7487C16.261 17.9831 16.1647 18.22 15.9722 18.36C15.8635 18.4393 15.7341 18.4793 15.6047 18.4793C15.5053 18.4793 15.4053 18.4556 15.3141 18.4075L10.5003 15.8768L5.68722 18.4068C5.47722 18.5181 5.22159 18.5 5.02909 18.3593C4.83659 18.2193 4.74034 17.9825 4.78034 17.7481L5.69972 12.3881L1.80597 8.59371C1.63597 8.42746 1.57409 8.17871 1.64784 7.95309C1.72159 7.72746 1.91722 7.56184 2.15284 7.52746L7.53347 6.74621L9.93972 1.86996C10.1503 1.44309 10.8503 1.44309 11.061 1.86996L13.4672 6.74621L18.8478 7.52746C19.0835 7.56184 19.2791 7.72684 19.3528 7.95309C19.4266 8.17934 19.3647 8.42684 19.1947 8.59371Z" fill="url(#paint0_linear_301_6943)"/>
<path d="M44.1947 8.59371L40.3016 12.3887L41.221 17.7487C41.261 17.9831 41.1647 18.22 40.9722 18.36C40.8635 18.4393 40.7341 18.4793 40.6047 18.4793C40.5053 18.4793 40.4053 18.4556 40.3141 18.4075L35.5003 15.8768L30.6872 18.4068C30.4772 18.5181 30.2216 18.5 30.0291 18.3593C29.8366 18.2193 29.7403 17.9825 29.7803 17.7481L30.6997 12.3881L26.806 8.59371C26.636 8.42746 26.5741 8.17871 26.6478 7.95309C26.7216 7.72746 26.9172 7.56184 27.1528 7.52746L32.5335 6.74621L34.9397 1.86996C35.1503 1.44309 35.8503 1.44309 36.061 1.86996L38.4672 6.74621L43.8478 7.52746C44.0835 7.56184 44.2791 7.72684 44.3528 7.95309C44.4266 8.17934 44.3647 8.42684 44.1947 8.59371Z" fill="url(#paint1_linear_301_6943)"/>
<path d="M69.1947 8.59371L65.3016 12.3887L66.221 17.7487C66.261 17.9831 66.1647 18.22 65.9722 18.36C65.8635 18.4393 65.7341 18.4793 65.6047 18.4793C65.5053 18.4793 65.4053 18.4556 65.3141 18.4075L60.5003 15.8768L55.6872 18.4068C55.4772 18.5181 55.2216 18.5 55.0291 18.3593C54.8366 18.2193 54.7403 17.9825 54.7803 17.7481L55.6997 12.3881L51.806 8.59371C51.636 8.42746 51.5741 8.17871 51.6478 7.95309C51.7216 7.72746 51.9172 7.56184 52.1528 7.52746L57.5335 6.74621L59.9397 1.86996C60.1503 1.44309 60.8503 1.44309 61.061 1.86996L63.4672 6.74621L68.8478 7.52746C69.0835 7.56184 69.2791 7.72684 69.3528 7.95309C69.4266 8.17934 69.3647 8.42684 69.1947 8.59371Z" fill="url(#paint2_linear_301_6943)"/>
<path d="M94.1947 8.59371L90.3016 12.3887L91.221 17.7487C91.261 17.9831 91.1647 18.22 90.9722 18.36C90.8635 18.4393 90.7341 18.4793 90.6047 18.4793C90.5053 18.4793 90.4053 18.4556 90.3141 18.4075L85.5003 15.8768L80.6872 18.4068C80.4772 18.5181 80.2216 18.5 80.0291 18.3593C79.8366 18.2193 79.7403 17.9825 79.7803 17.7481L80.6997 12.3881L76.806 8.59371C76.636 8.42746 76.5741 8.17871 76.6478 7.95309C76.7216 7.72746 76.9172 7.56184 77.1528 7.52746L82.5335 6.74621L84.9397 1.86996C85.1503 1.44309 85.8503 1.44309 86.061 1.86996L88.4672 6.74621L93.8478 7.52746C94.0835 7.56184 94.2791 7.72684 94.3528 7.95309C94.4266 8.17934 94.3647 8.42684 94.1947 8.59371Z" fill="url(#paint3_linear_301_6943)"/>
<path d="M119.195 8.59371L115.302 12.3887L116.221 17.7487C116.261 17.9831 116.165 18.22 115.972 18.36C115.863 18.4393 115.734 18.4793 115.605 18.4793C115.505 18.4793 115.405 18.4556 115.314 18.4075L110.5 15.8768L105.687 18.4068C105.477 18.5181 105.222 18.5 105.029 18.3593C104.837 18.2193 104.74 17.9825 104.78 17.7481L105.7 12.3881L101.806 8.59371C101.636 8.42746 101.574 8.17871 101.648 7.95309C101.722 7.72746 101.917 7.56184 102.153 7.52746L107.533 6.74621L109.94 1.86996C110.15 1.44309 110.85 1.44309 111.061 1.86996L113.467 6.74621L118.848 7.52746C119.083 7.56184 119.279 7.72684 119.353 7.95309C119.427 8.17934 119.365 8.42684 119.195 8.59371Z" fill="url(#paint4_linear_301_6943)"/>
<defs>
<linearGradient id="paint0_linear_301_6943" x1="10.5003" y1="1.5498" x2="10.5003" y2="18.4793" gradientUnits="userSpaceOnUse">
<stop stop-color="#3BB96D"/>
<stop offset="1" stop-color="#279A59"/>
</linearGradient>
<linearGradient id="paint1_linear_301_6943" x1="35.5003" y1="1.5498" x2="35.5003" y2="18.4793" gradientUnits="userSpaceOnUse">
<stop stop-color="#3BB96D"/>
<stop offset="1" stop-color="#279A59"/>
</linearGradient>
<linearGradient id="paint2_linear_301_6943" x1="60.5003" y1="1.5498" x2="60.5003" y2="18.4793" gradientUnits="userSpaceOnUse">
<stop stop-color="#3BB96D"/>
<stop offset="1" stop-color="#279A59"/>
</linearGradient>
<linearGradient id="paint3_linear_301_6943" x1="85.5003" y1="1.5498" x2="85.5003" y2="18.4793" gradientUnits="userSpaceOnUse">
<stop stop-color="#3BB96D"/>
<stop offset="1" stop-color="#279A59"/>
</linearGradient>
<linearGradient id="paint4_linear_301_6943" x1="110.5" y1="1.5498" x2="110.5" y2="18.4793" gradientUnits="userSpaceOnUse">
<stop stop-color="#3BB96D"/>
<stop offset="1" stop-color="#279A59"/>
</linearGradient>
</defs>
</svg>
