<svg width="673" height="448" viewBox="0 0 673 448" fill="none" xmlns="http://www.w3.org/2000/svg">
<path d="M346.143 73.034C296.219 48.3351 168.953 90.3519 158.327 130.2C147.702 170.049 151.449 317.116 240.409 341.789C362.259 375.586 400.764 245.354 405.681 203.335C410.597 161.315 382.37 90.9636 346.143 73.034Z" fill="#B5C0EB"/>
<path d="M521.604 173.423C505.194 106.564 343.228 91.475 307.894 136.306C243.784 217.657 332.387 426.791 424.807 383.777C488.863 353.964 536.035 232.221 521.604 173.423Z" fill="#92A4EB"/>
<path d="M501.238 400.374H162.748" stroke="#210602" stroke-width="2.06" stroke-linecap="round" stroke-linejoin="round"/>
<path d="M314.143 103.411C315.053 107.607 338.714 142.601 341.669 144.218C344.624 145.835 396.095 151.746 396.095 151.746C396.095 151.746 349.644 175.764 336.227 173.239C325.268 171.189 302.078 132.972 302.078 132.972L314.143 103.411Z" fill="#FFFFFD"/>
<path d="M348.325 305.462L331.105 250.461L333.759 249.703L350.286 304.385L348.325 305.462Z" fill="#EDE5DC"/>
<path d="M332.115 255.429L347.319 306.053" stroke="#210602" stroke-width="2.06" stroke-linecap="round" stroke-linejoin="round"/>
<path d="M325.538 253.749C319.357 252.195 315.173 246.624 317.537 239.8C322.2 226.339 365.665 224.938 370.475 239.622C373.31 248.284 366.262 252.46 359.666 253.723C353.133 254.973 347.604 253.229 344.038 252.083C340.264 253.146 331.043 255.128 325.538 253.749Z" fill="#F5DABB"/>
<path d="M335.7 227.956C322.427 227.517 314.822 234.082 313.013 239.338C310.391 246.908 315.023 253.094 321.89 254.815C322.918 255.073 327.059 255.84 330.792 255.145" stroke="#210602" stroke-width="2.06" stroke-linecap="round" stroke-linejoin="round"/>
<path d="M332.049 400.076H330.492L356.358 319.928H360.267L332.049 400.076Z" fill="#EDE5DC"/>
<path d="M355.726 320.611L329.84 399.378" stroke="#210602" stroke-width="2.06" stroke-linecap="round" stroke-linejoin="round"/>
<path d="M355.178 323.259L356.358 319.928H360.267L359.379 322.217L355.178 323.259Z" fill="#CFC0C0"/>
<path d="M356.769 400.076H355.213L373.503 319.928H377.412L356.769 400.076Z" fill="#EDE5DC"/>
<path d="M372.874 320.611L354.561 399.378" stroke="#210602" stroke-width="2.06" stroke-linecap="round" stroke-linejoin="round"/>
<path d="M372.646 323.351L373.502 319.928H377.411L376.782 322.154L372.646 323.351Z" fill="#CFC0C0"/>
<path d="M410.963 400.076H412.519L394.229 319.928H390.32L410.963 400.076Z" fill="#EDE5DC"/>
<path d="M394.859 320.611L413.023 399.309" stroke="#210602" stroke-width="2.06" stroke-linecap="round" stroke-linejoin="round"/>
<path d="M395.085 323.351L394.229 319.928H390.32L390.952 322.154L395.085 323.351Z" fill="#CFC0C0"/>
<path d="M416.841 319.109H354.644C351.155 319.109 348.455 316.424 348.455 313.365C348.455 309.882 352.499 305.927 359.991 305.671C366.395 305.453 370.772 306.852 385.605 309.833C396.601 307.998 406.672 305.465 414.481 305.476C419.015 305.476 422.751 310.562 422.751 313.635C422.898 316.924 420.33 319.109 416.841 319.109Z" fill="#F5DABB"/>
<path d="M422.229 307.377C425.574 312.366 424.96 319.928 417.459 319.928H349.946C344.182 319.928 339.32 309.91 349.173 305.111C354.629 302.455 360.336 303.101 366.889 304.6" stroke="#210602" stroke-width="2.06" stroke-linecap="round" stroke-linejoin="round"/>
<path d="M342.471 179.949C346.414 173.943 385.801 156.189 385.801 156.189L400.079 159.871C400.079 159.871 423.37 173.392 426.382 177.752C427.907 179.96 426.799 265.544 426.799 265.544C426.799 265.544 371.965 296.076 366.287 299.336C360.61 302.596 350.647 302.613 348.916 301.384C345.596 291.564 339.674 184.208 342.471 179.949Z" fill="#5D6685"/>
<path d="M426.388 177.751C433.079 184.121 433.406 231.532 433.116 237.006C432.683 245.242 451.453 259.16 450.683 262.075C448.653 269.769 426.672 278.732 428.932 276.891C431.192 275.051 400.814 275.691 400.814 275.691C400.814 275.691 398.893 199.472 400.688 195.242C402.483 191.011 422.775 174.328 426.388 177.751Z" fill="#5D6685"/>
<path d="M378.096 160.729C378.096 160.155 382.435 155.896 382.869 156.203C382.794 156.645 393.994 162.045 399.152 160.729C400.286 160.973 403.33 162.452 403.278 163.937C403.33 168.754 405.668 211.006 404.304 222.218C404.304 222.218 378.429 165.218 378.096 160.729Z" fill="#EDE5DC"/>
<path d="M403.657 235.374C405.47 234.768 404.832 238.226 403.746 238.197C402.661 238.169 402.032 235.917 403.657 235.374Z" stroke="#210602" stroke-width="2.06" stroke-linecap="round" stroke-linejoin="round"/>
<path d="M404.993 255.007C406.805 254.401 406.168 257.859 405.082 257.83C403.997 257.802 403.368 255.55 404.993 255.007Z" stroke="#210602" stroke-width="2.06" stroke-linecap="round" stroke-linejoin="round"/>
<path d="M427.184 206.276C427.298 211.115 427.284 263.652 427.184 267.641" stroke="#210602" stroke-width="2.06" stroke-linecap="round" stroke-linejoin="round"/>
<path d="M421.056 132.57C420.878 134.162 420.608 135.742 420.246 137.303C419.87 139.115 418.707 139.836 417.88 141.298C416.975 142.894 417.019 144.227 415.583 145.606C414.937 146.232 414.147 146.657 413.598 147.415C413.05 148.173 412.992 148.98 412.214 149.629C410.385 151.154 407.473 149.689 406.017 148.302C403.309 145.718 402.43 141.527 402.123 137.926C401.835 134.623 402.077 130.841 403.197 127.639C404.147 124.93 406.832 124.899 409.414 124.927C410.594 124.942 411.823 124.962 412.955 125.41C414.486 126.016 414.678 126.811 415.899 127.995C416.742 128.867 417.656 129.667 418.632 130.387C419.494 130.996 420.146 131.711 421.056 132.57Z" fill="#73261B"/>
<path d="M384.031 133.021C383.988 134.244 385.203 136.685 384.893 137.314C384.186 138.79 382.903 139.976 382.489 141.206C382.145 142.168 382.107 143.213 382.38 144.198C382.512 144.544 382.615 144.901 382.687 145.264C382.811 146.243 382.196 147.148 381.935 148.098C381.507 149.652 382.061 151.352 383.061 152.613C384.06 153.874 385.464 154.756 386.903 155.485C388.658 156.373 390.783 157.062 392.543 156.183C393.278 155.773 393.914 155.206 394.404 154.523C397.296 150.821 398.031 145.858 397.873 141.165C397.784 138.526 397.411 135.795 395.992 133.569C394.574 131.343 391.883 129.721 389.201 130.335C386.329 130.993 384.132 130.163 384.031 133.021Z" fill="#73261B"/>
<path d="M394.034 167.022C395.183 167.513 398.474 166.772 398.572 166.416C399.508 162.969 400.614 158.756 401.082 156.43L401.047 156.398C401.047 156.398 389.896 139.213 388.205 143.449C386.614 147.441 385.046 151.849 382.556 156.304C381.806 157.651 392.274 166.269 394.034 167.022Z" fill="#D16556"/>
<path d="M408.392 165.864C406.488 166.686 403.797 167.499 400.733 166.585C393.648 164.483 388.766 157.292 388.651 149.916C388.531 143.052 392.178 131.249 393.436 130.37C395.2 129.181 397.118 128.238 399.136 127.567C404.748 125.683 408.088 126.452 412.818 130.878C414.397 132.346 416.301 133.357 417.26 134.686C418.176 135.962 418.231 140.528 416.881 147.349C416.088 151.375 412.315 164.176 408.392 165.864Z" fill="#D16556"/>
<path d="M386.785 137.317C383.985 138.572 386.027 149.02 389.858 145.537C393.689 142.053 390.202 135.792 386.785 137.317Z" fill="#D16556"/>
<path d="M388.89 140.002C387.586 139.161 386.392 142.848 387.942 143.486C389.757 144.236 389.953 140.689 388.89 140.002Z" fill="#C45749"/>
<path d="M389.524 142.469C389.831 140.582 388.117 138.759 387.227 139.709" stroke="#210602" stroke-width="2.06" stroke-linecap="round" stroke-linejoin="round"/>
<path d="M387.617 141.401C388.134 140.743 389.174 140.89 389.452 141.24" stroke="#210602" stroke-width="2.06" stroke-linecap="round" stroke-linejoin="round"/>
<path d="M408.213 141.318C406.838 140.069 404.506 139.612 403.159 139.514C402.567 139.471 402.09 139.824 402.831 140.376C403.756 141.059 405.743 142.314 406.418 143.248C406.485 143.344 406.571 143.426 406.67 143.488C406.768 143.551 406.879 143.594 406.994 143.613C407.11 143.633 407.228 143.63 407.342 143.603C407.456 143.577 407.564 143.529 407.659 143.46C408.095 143.147 409.195 141.921 408.213 141.318Z" fill="#73261B"/>
<path d="M412.756 148.136C412.527 148.673 412.328 149.713 412.486 150.161C412.673 150.689 413.222 150.543 413.693 149.962C414.032 149.444 414.271 148.866 414.396 148.259C414.454 147.929 412.799 148.038 412.756 148.136Z" fill="#210602"/>
<path d="M402.647 145.376C402.403 145.95 402.19 147.064 402.36 147.547C402.558 148.121 403.147 147.958 403.652 147.334C404.016 146.779 404.272 146.159 404.404 145.508C404.471 145.155 402.693 145.27 402.647 145.376Z" fill="#210602"/>
<path d="M388.798 126.941C388.906 126.675 388.991 126.4 389.053 126.119C389.165 125.614 389.053 125.019 389.237 124.48C389.59 123.371 390.191 122.581 390.929 121.725C391.98 120.505 393.981 119.66 395.578 120.002C397.715 120.47 397.993 119.276 399.814 118.362C401.141 117.699 404.776 117.756 406.181 118.075C409.277 118.753 408.539 120.304 411.746 121.458C414.113 122.32 419.575 122.36 421.266 126.117C423.337 130.712 418.843 137.978 418.63 137.702C417.711 136.507 418.148 134.457 415.577 133.52C414.411 133.098 412.783 133.285 411.686 133.233C409.311 133.113 407.442 131.275 404.825 131.582C403.677 131.717 402.439 131.797 401.379 132.286C400.23 132.811 399.593 134.035 398.387 134.379C396.721 134.856 395.478 133.707 394.78 135.091C393.884 136.875 394.553 140.086 392.787 143.885C392.184 145.184 391.377 145.405 390.843 145.063C390.521 144.859 390.3 143.868 390.555 142.372C390.782 140.976 390.728 138.977 389.737 137.854C388.746 136.731 384.855 135.583 384.651 134.244C384.507 133.354 384.206 132.07 384.47 131.553C385.156 130.2 386.48 129.752 387.551 128.802C388.101 128.283 388.527 127.647 388.798 126.941Z" fill="#73261B"/>
<path d="M409.582 155.528C408.921 156.582 406.064 155.528 405.217 154.339" stroke="#210602" stroke-width="2.06" stroke-linecap="round" stroke-linejoin="round"/>
<path d="M405.292 158.799C404.51 159.767 401.799 158.389 401.102 157.096" stroke="#210602" stroke-width="2.06" stroke-linecap="round" stroke-linejoin="round"/>
<path d="M398.729 165.83C393.204 163.291 389.387 157.671 389.54 154.477" stroke="#210602" stroke-width="2.06" stroke-linecap="round" stroke-linejoin="round"/>
<path d="M416.971 142.943C416.041 142.564 413.347 142.182 412.405 142.593C411.813 142.851 411.604 143.865 412.118 144.537C412.274 144.769 412.507 144.939 412.775 145.018C413.044 145.096 413.332 145.077 413.588 144.965C414.533 144.54 416.503 143.615 416.678 143.638C417.29 143.716 417.456 143.138 416.971 142.943Z" fill="#73261B"/>
<path d="M464.845 388.102C461.551 386.445 460.213 370.204 460.213 370.204L448.588 370.718C448.588 370.718 452.149 389.843 449.823 392.258C447.497 394.673 463.403 397.873 463.403 397.873L464.845 388.102Z" fill="#6B423D"/>
<path d="M484.375 403.47C482.078 406.394 480.188 406.69 473.819 406.055C468.035 405.481 465.49 403.683 460.651 402.959C457.289 402.456 454.184 403.867 448.515 401.899C446.875 401.325 446.103 399.998 446.706 397.304C447.142 395.36 450.405 395.615 451.301 395.661L475.619 398.93C476.087 398.93 480.599 398.103 483.732 399.099C485.834 399.777 485.171 402.462 484.375 403.47Z" fill="#695B64"/>
<path d="M484.573 400.601C483.55 402.574 481.867 403.453 475.245 403.105C468.706 402.761 465.243 400.587 460.142 400.409C455.608 400.251 453.572 400.101 450.927 399.696C447.601 399.182 446.989 397.419 447.193 396.006C447.768 392.333 449.695 390.523 449.904 386.977C449.904 386.727 451.222 386.735 452.121 387.402C454.815 389.412 458.439 395.004 461.228 393.912C461.854 385.271 464.757 386.862 465.757 387.982C468.235 390.759 476.382 395.659 479.587 397.31C481.956 398.525 485.337 399.128 484.573 400.601Z" fill="#BAA4A4"/>
<path d="M468.695 390.5C466.846 391.649 466.007 393.861 465.746 394.234" stroke="#210602" stroke-width="2.06" stroke-linecap="round" stroke-linejoin="round"/>
<path d="M471.761 392.37C470.015 393.536 469.214 395.644 468.961 396.018" stroke="#210602" stroke-width="2.06" stroke-linecap="round" stroke-linejoin="round"/>
<path d="M475.134 394.349C473.411 395.521 472.641 397.588 472.389 397.959" stroke="#210602" stroke-width="2.06" stroke-linecap="round" stroke-linejoin="round"/>
<path d="M412.094 374.527C413.225 378.642 414.041 390.578 412.774 393.769C411.508 396.96 422.642 398.599 422.642 398.599L429.606 393.358C429.606 393.358 424.977 381.741 424.299 372.893C423.621 364.044 412.094 374.527 412.094 374.527Z" fill="#6B423D"/>
<path d="M411.509 396.934C410.102 397.594 409.838 400.954 410.754 401.661C411.983 402.603 422.175 406.856 428.094 407.023C431.127 407.109 435.951 406.141 437.341 404.941C437.776 404.587 438.14 404.154 438.415 403.666C441.261 394.398 413.08 396.198 411.509 396.934Z" fill="#695B64"/>
<path d="M436.727 402.764C433.438 404.2 429.836 404.77 426.265 404.418C424.453 404.226 418.798 402.296 413.571 399.992C410.493 398.634 410.849 397.341 411.067 395.928C411.532 392.893 412.434 391.285 412.664 388.872C412.718 388.326 413.928 388.8 414.875 390.202C416.231 392.212 417.586 395.466 418.838 394.986C420.432 385.828 425.952 386.488 426.951 387.608C429.119 390.038 431.026 394.024 433.619 396.075C433.99 396.362 435.575 397.64 435.94 397.993C437.769 399.777 438.335 402.014 436.727 402.764Z" fill="#BAA4A4"/>
<path d="M428.933 390.325C426.164 389.076 422.974 392.884 422.641 393.347" stroke="#210602" stroke-width="2.06" stroke-linecap="round" stroke-linejoin="round"/>
<path d="M430.451 392.45C428.027 391.758 425.055 394.716 424.707 395.167" stroke="#210602" stroke-width="2.06" stroke-linecap="round" stroke-linejoin="round"/>
<path d="M432.207 394.622C429.892 393.657 427.345 396.919 427.006 397.37" stroke="#210602" stroke-width="2.06" stroke-linecap="round" stroke-linejoin="round"/>
<path d="M444.871 386.279C441.953 376.095 442.551 305.577 441.376 304.161C440.514 303.135 418.583 306.105 404.574 306.846C386.637 307.797 368.677 305.938 364.478 303.555C356.193 298.853 351.701 291.392 350.791 281.24C354.7 271.254 417.704 275.705 427.181 268.5C447.858 271.104 469.376 275.886 472.489 280.524C479.703 291.271 467.11 372.338 464.841 386.44C464.551 388.232 445.106 387.089 444.871 386.279Z" fill="#4A567D"/>
<path d="M428.574 387.402C428.33 389.254 409.974 389.142 409.83 387.608C409.405 383.114 405.445 348.354 402.938 328.274C401.582 317.383 401.353 307.558 400.755 307.555C393.966 307.527 370.668 307.059 364.47 303.535C356.185 298.83 351.694 291.369 350.783 281.22C356.053 266.087 384.113 268.913 410.129 272.202C427.98 274.456 431.311 278.233 433.655 280.197C440.481 291.47 430.453 373.068 428.574 387.402Z" fill="#5D6685"/>
<path d="M349.381 300.186C350.303 298.176 359.981 282.633 378.099 277.885" stroke="#210602" stroke-width="2.06" stroke-linecap="round" stroke-linejoin="round"/>
<path d="M427.824 268.686C424.795 268.655 416.102 271.627 414.416 271.82" stroke="#210602" stroke-width="2.06" stroke-linecap="round" stroke-linejoin="round"/>
<path d="M404.301 222.218C404.969 223.659 405.551 225.139 406.044 226.649C407.101 230.096 408.137 262.127 408.137 262.127" stroke="#210602" stroke-width="2.06" stroke-linecap="round" stroke-linejoin="round"/>
<path d="M364.82 166.815C368.266 173.84 380.187 196.729 381.115 196.646C382.042 196.563 388.513 193.254 388.981 194.027C389.449 194.799 383.811 203.438 384.423 204.509C385.035 205.581 404.408 231.003 405.634 232.187" stroke="#210602" stroke-width="2.06" stroke-linecap="round" stroke-linejoin="round"/>
<path d="M413.317 168.443C414.635 173.125 415.181 192.49 414.153 193.516C413.125 194.541 408.682 192.149 408.168 192.654C407.654 193.159 414.635 199.326 414.486 200.865C414.337 202.404 406.227 224.972 406.227 224.972" stroke="#210602" stroke-width="2.06" stroke-linecap="round" stroke-linejoin="round"/>
<path d="M405.858 261.943C406.72 260.794 407.811 263.221 407.119 263.666C406.427 264.111 405.074 262.974 405.858 261.943Z" stroke="#210602" stroke-width="2.06" stroke-linecap="round" stroke-linejoin="round"/>
<path d="M342.47 179.948C336.152 188.154 334.765 261.986 337.72 265.854C342.726 272.408 382.104 279.565 389.556 276.785C397.008 274.005 393.916 259.72 393.12 258.924C391.055 256.862 366.987 245.331 366.987 245.331C366.987 245.331 370.539 204.659 368.744 200.428C366.949 196.198 345.506 176.008 342.47 179.948Z" fill="#5D6685"/>
<path d="M346.264 270.763C347.444 271.168 381.874 279.232 387.928 277.69C388.396 277.569 389.892 275.915 390.265 274.895" stroke="#210602" stroke-width="2.06" stroke-linecap="round" stroke-linejoin="round"/>
<path d="M393.916 261.954C393.807 260.989 393.58 259.295 393.121 258.924C392.661 258.554 367.999 246.641 366.988 245.331C365.977 244.022 368.659 216.503 369.121 213.065" stroke="#210602" stroke-width="2.06" stroke-linecap="round" stroke-linejoin="round"/>
<path d="M393.773 263.276C392.673 262.701 390.938 262.578 390.436 262.79C389.933 263.003 388.107 268.003 387.943 268.902C387.779 269.801 387.311 273.21 388.621 274.462C389.93 275.714 396.949 271.268 396.949 271.268L393.773 263.276Z" fill="#EDE5DC"/>
<path d="M413.5 273.328C413.983 273.285 416.372 267.707 415.266 266.176C414.537 265.174 411.246 260.18 408.782 260.088C406.318 259.996 397.642 262.121 393.05 263.155C390.577 263.709 389.426 271.771 391.155 273.494C393.165 275.505 399.081 273.934 400.396 273.997C401.832 274.063 405.109 276.294 408.207 275.146C411.229 274.025 413.5 273.328 413.5 273.328Z" fill="#D16556"/>
<path d="M409.82 264.508C411.124 265.881 412.382 267.647 412.615 268.376C412.945 269.41 412.649 273.29 412.649 273.29" stroke="#210602" stroke-width="2.06" stroke-linecap="round" stroke-linejoin="round"/>
<path d="M404.303 270.355C405.305 271.504 407.175 274.462 407.175 274.462" stroke="#210602" stroke-width="2.06" stroke-linecap="round" stroke-linejoin="round"/>
<path d="M407.605 267.641C408.346 268.835 410.299 272.744 410.362 273.623" stroke="#210602" stroke-width="2.06" stroke-linecap="round" stroke-linejoin="round"/>
<path d="M393.189 262.385C393.29 261.957 392.684 261.139 392.141 261.012C390.906 260.725 385.163 271.234 388.936 274.798" stroke="#210602" stroke-width="2.06" stroke-linecap="round" stroke-linejoin="round"/>
<path d="M435.138 267.342C434.449 262.747 439.219 261.914 440.06 261.561C440.902 261.208 445.922 260.263 447.421 261.274C448.92 262.285 443.484 271.38 443.484 271.38C443.484 271.38 435.219 267.882 435.138 267.342Z" fill="#EDE5DC"/>
<path d="M461.155 274.531C461.253 273.336 460.808 267.756 459.007 266.202C457.812 265.165 451.916 264.14 447.164 261.782C444.967 260.691 437.784 266.259 438.304 268.569C438.91 271.268 443.91 272.486 444.952 273.218C445.912 276.3 448.611 277.658 451.506 279.017C453.668 280.016 460.928 277.259 461.155 274.531Z" fill="#D16556"/>
<path d="M458.338 270.401C458.694 272.196 459.805 274.973 459.076 276.294" stroke="#210602" stroke-width="2.06" stroke-linecap="round" stroke-linejoin="round"/>
<path d="M452.469 272.787C452.598 273.615 452.94 274.755 453.121 276.294C453.164 277.095 452.977 277.892 452.584 278.592" stroke="#210602" stroke-width="2.06" stroke-linecap="round" stroke-linejoin="round"/>
<path d="M455.521 271.283C455.866 272.776 456.98 275.691 456.205 277.601" stroke="#210602" stroke-width="2.06" stroke-linecap="round" stroke-linejoin="round"/>
<path d="M448.695 261.805C445.249 259.628 431.556 261.167 435.893 269.091" stroke="#210602" stroke-width="2.06" stroke-linecap="round" stroke-linejoin="round"/>
<path d="M438.336 267.885C439.519 270.415 439.772 274.525 440.889 275.596C441.443 276.13 443.296 276.673 444.961 277.417C446.627 278.161 448.1 279.103 448.407 278.724C449.576 277.256 447.531 272.371 447.531 272.371L438.336 267.885Z" fill="#D16556"/>
<path d="M448.755 277.609C448.738 276.814 447.836 274.45 446.974 273.991C446.113 273.531 445.096 273.195 444.734 272.937" stroke="#210602" stroke-width="2.06" stroke-linecap="round" stroke-linejoin="round"/>
<path d="M309.588 94.8896C308.807 95.6104 305.637 97.4571 301.277 99.8236C292.223 104.752 278.053 111.938 269.639 115.996C265.831 117.831 263.206 119.026 262.764 119.083C265.113 112.765 267.359 108.009 269.352 105.955C269.489 105.815 269.616 105.691 269.742 105.582C269.868 105.473 269.966 105.381 270.09 105.295C272.422 103.336 275.856 100.929 279.653 98.5571C288.119 93.2698 298.36 88.1548 302.013 88.5971C303.161 88.7321 304.985 89.2146 306.033 89.8062C306.044 89.804 306.056 89.804 306.067 89.8062L309.588 94.8896Z" fill="#FCF9F7"/>
<path d="M311.558 97.7329L314.142 101.466C314.142 101.466 315.397 128.118 308.359 152.639C305.2 163.644 289.528 249.711 298.595 288.629L231.395 287.972C231.374 287.817 242.422 197.769 242.307 197.766C242.169 197.775 242.036 197.824 241.925 197.907C241.925 197.907 252.169 149.54 261.523 122.547C264.59 122.199 308.643 100.352 311.558 97.7329Z" fill="#FFFFFD"/>
<path d="M211.142 392.517C211.975 390.038 212.647 387.224 211.851 384.084C214.281 381.761 220.022 379.808 222.127 381.425C222.169 383.874 222.656 386.295 223.562 388.57C224.631 391.319 210.642 394.013 211.142 392.517Z" fill="#FF9D8C"/>
<path d="M209.046 396.42C209.445 395.225 210.272 393.438 210.832 391.707C210.875 391.577 210.965 391.468 211.084 391.401C211.202 391.334 211.342 391.314 211.475 391.345C215.137 392.109 216.389 388.973 218.367 387.628C219.752 386.689 223.327 386.813 223.898 388.203C225.047 390.997 226.796 393.493 229.137 394.757C231.391 394.808 233.223 394.92 233.571 395.127C235.409 396.201 235.509 399.941 234.289 399.941H210.453C209.137 399.941 208.282 398.708 209.046 396.42Z" fill="#AB483C"/>
<path d="M225.443 393.309C223.978 393.269 221.558 393.401 220.73 393.68" stroke="#260500" stroke-width="2.06" stroke-linecap="round" stroke-linejoin="round"/>
<path d="M223.349 391.218C221.979 391.172 220.61 391.328 219.285 391.681" stroke="#260500" stroke-width="2.06" stroke-linecap="round" stroke-linejoin="round"/>
<path d="M281.195 397.138C281.195 397.138 294.098 390.457 291.206 388.171C287.89 385.555 286.057 381.304 286.057 381.304C286.057 381.304 278.246 381.879 275.822 384.219C276.523 386.293 276.569 389.047 276.417 391.687C276.31 393.571 280.004 397.138 281.195 397.138Z" fill="#FF9D8C"/>
<path d="M276.959 400.064H316.512C317.713 400.064 318.149 396.669 316.53 395.351C316.079 394.986 313.063 394.671 309.611 394.202C309.611 394.202 309.611 394.202 309.58 394.202C303.819 393.453 295.06 390.521 291.709 388.191C291.659 388.158 291.602 388.135 291.543 388.124C291.485 388.113 291.424 388.113 291.365 388.126C291.306 388.138 291.251 388.162 291.201 388.196C291.152 388.23 291.109 388.273 291.077 388.324C289.641 390.265 282.815 393.513 276.546 391.698C276.481 391.681 276.413 391.678 276.347 391.689C276.281 391.701 276.218 391.727 276.163 391.766C276.108 391.804 276.063 391.855 276.03 391.913C275.996 391.971 275.976 392.036 275.971 392.103C275.856 393.855 275.762 395.549 275.549 396.914C275.21 399.019 275.727 400.064 276.959 400.064Z" fill="#AB483C"/>
<path d="M296.425 391.19L295.641 393.2" stroke="#260500" stroke-width="2.06" stroke-linecap="round" stroke-linejoin="round"/>
<path d="M299.436 392.089L298.652 394.099" stroke="#260500" stroke-width="2.06" stroke-linecap="round" stroke-linejoin="round"/>
<path d="M211.289 241.104C227.598 241.555 242.744 242.956 241.371 252.345C237.638 277.98 225.746 369.357 225.84 384.943C225.863 388.608 202.943 386.506 202.719 384.656C201.711 376.327 202.211 333.191 203.242 311.654C204.018 295.551 207.093 240.989 211.289 241.104Z" fill="#6D84BF"/>
<path d="M227.619 289.037C225.968 302.501 220.942 371.706 221.514 385.437" stroke="#C4CDDD" stroke-width="2.06" stroke-linecap="round" stroke-linejoin="round"/>
<path d="M279.512 191.356C279.512 211.954 286.174 366.807 289.342 383.777C290.014 387.379 267.953 390.075 267.562 388.257C264.116 372.2 256.882 338.285 252.686 312.802C251.294 304.339 249.599 292.412 247.982 279.307C246.055 263.689 245.737 252.31 245.757 248.315C245.757 247.425 241.845 216.899 248.393 205.038C258.1 187.493 279.512 187.094 279.512 191.356Z" fill="#6D84BF"/>
<path d="M274.848 222.218C274.848 247.474 281.987 365.242 286.048 381.304" stroke="#C4CDDD" stroke-width="2.06" stroke-linecap="round" stroke-linejoin="round"/>
<path d="M237.592 211.425C237.572 211.27 242.419 197.766 242.31 197.763C242.172 197.772 242.039 197.821 241.928 197.904C241.928 197.904 261.927 116.829 272.036 108.098C280.652 100.668 294.878 92.6897 302.563 89.542L309.631 101.354C309.631 101.354 311.52 134.577 300.096 157.386C296.076 165.428 281.74 208.105 280.795 213.065L237.592 211.425Z" fill="#EAC89F"/>
<path d="M296.906 139.511C296.214 141.346 270.342 192.809 254.228 215.923C249.604 222.56 241.466 290.881 240.842 290.881C237.534 291.05 211.837 287.911 198.228 284.433C193.403 283.21 190.095 281.935 189.848 280.743C187.37 268.916 202.972 206.798 205.112 200.566C209.629 187.355 253.002 120.381 260.078 111.642C269.25 100.309 292.601 91.0297 299.996 88.735C300.283 89.6626 300.513 91.3686 300.696 93.6173C301.567 104.565 301.07 128.469 296.906 139.511Z" fill="#FFFFFD"/>
<path d="M241.316 288.058C242.178 282.845 244.148 271.173 246.112 259.714" stroke="#210602" stroke-width="2.06" stroke-linecap="round" stroke-linejoin="round"/>
<path d="M297.038 89.8206C296.653 91.9085 294.665 107.879 294.706 108.603C294.746 109.327 298.531 110.984 298.496 111.412C298.462 111.84 295.139 111.926 295.05 112.345C294.961 112.765 296.811 126.257 297.006 128.012" stroke="#210602" stroke-width="2.06" stroke-linecap="round" stroke-linejoin="round"/>
<path d="M308.355 140.022C309.832 137.438 314.182 125.304 314.139 123.833C314.096 122.363 312.166 117.311 312.166 117.311C312.166 117.311 314.877 116.268 314.981 115.332C315.038 114.821 314.102 104.473 314.139 103.411" stroke="#210602" stroke-width="2.06" stroke-linecap="round" stroke-linejoin="round"/>
<path d="M279.511 164.535L274.848 162.352" stroke="#210602" stroke-width="2.06" stroke-linecap="round" stroke-linejoin="round"/>
<path d="M266.881 187.255L262.484 185.135" stroke="#210602" stroke-width="2.06" stroke-linecap="round" stroke-linejoin="round"/>
<path d="M252.909 211.247L248.51 209.13" stroke="#210602" stroke-width="2.06" stroke-linecap="round" stroke-linejoin="round"/>
<path d="M312.072 138.296C311.167 141.413 309.588 147.263 309.588 147.263" stroke="#210602" stroke-width="2.06" stroke-linecap="round" stroke-linejoin="round"/>
<path d="M383.089 146.881C383.589 148.658 378.879 156.329 377.205 158.469C375.531 160.609 362.714 164.127 362.714 164.127L359.268 157.808C359.268 157.808 365.815 145.798 367.478 144.698C369.141 143.598 378.678 143.673 378.997 144.236C379.316 144.798 378.873 145.554 378.873 145.554C378.873 145.554 382.756 145.697 383.089 146.881Z" fill="#FFA38C"/>
<path d="M382.249 149.994C381.453 150.479 379.156 151.074 378.938 151.143" stroke="#210602" stroke-width="2.06" stroke-linecap="round" stroke-linejoin="round"/>
<path d="M378.743 156.252C378.43 156.729 376.77 157.381 376.195 157.401" stroke="#210602" stroke-width="2.06" stroke-linecap="round" stroke-linejoin="round"/>
<path d="M380.64 153.11C380.272 153.745 378.42 154.575 377.656 154.463" stroke="#210602" stroke-width="2.06" stroke-linecap="round" stroke-linejoin="round"/>
<path d="M378.861 145.545C378.861 145.545 377.801 146.622 376.896 146.717" stroke="#210602" stroke-width="2.06" stroke-linecap="round" stroke-linejoin="round"/>
<path d="M380.749 135.887C381.851 136.312 384.04 139.468 386.512 140.353C386.848 140.473 386.481 141.329 386.254 141.295C382.609 140.74 379.677 141.074 378.839 140.72C378 140.367 375.904 138.805 375.66 138.345C375.416 137.886 376.332 135.502 376.831 135.335C377.331 135.169 380.438 135.766 380.749 135.887Z" fill="#695B64"/>
<path d="M376.811 135.703C377.201 135.818 376.236 138.09 375.949 138.015C375.662 137.94 376.374 135.574 376.811 135.703Z" fill="#260500"/>
<path d="M374.552 149.155C375.023 148.742 376.806 147.286 377.24 146.78L378.963 143.408L380.522 140.367C380.588 140.247 380.628 140.115 380.642 139.979C380.655 139.843 380.642 139.705 380.601 139.575C380.561 139.444 380.495 139.323 380.407 139.218C380.319 139.113 380.212 139.027 380.09 138.965C379.968 138.902 379.835 138.865 379.699 138.855C379.563 138.844 379.426 138.861 379.296 138.905C379.167 138.948 379.047 139.017 378.944 139.107C378.842 139.198 378.758 139.308 378.699 139.431L375.008 146.611C374.362 148.09 374.423 149.144 374.552 149.155Z" fill="#695B64"/>
<path d="M377.552 143.477L374.783 143.914L372.945 141.524" stroke="#695B64" stroke-width="2.06" stroke-linecap="round" stroke-linejoin="round"/>
<path d="M380.388 141.042C380.472 141.223 379.843 142.679 379.619 142.788C379.395 142.897 377.321 141.892 377.307 141.72C377.293 141.548 377.827 140.129 378.065 140.031C378.303 139.934 380.302 140.853 380.388 141.042Z" fill="#FFFFFD"/>
<path d="M381.012 137.059C381.796 137.576 382.87 138.805 383.849 139.592" stroke="#FFFFFD" stroke-width="2.06" stroke-linecap="round" stroke-linejoin="round"/>
<path d="M378.504 146.737C377.642 146.662 373.909 146.817 373.119 147.188C372.329 147.558 371.508 150.27 371.508 150.27L375.023 151.746L378.969 148.526L378.504 146.737Z" fill="#FFA38C"/>
<path d="M379.417 146.772C378.972 146.732 373.891 146.622 372.723 147.263" stroke="#210602" stroke-width="2.06" stroke-linecap="round" stroke-linejoin="round"/>
<path d="M289.054 116.51C293.967 123.515 313.134 154.061 315.517 155.152C320.399 157.386 359.639 152.068 359.639 152.068L366.288 164.905C366.288 164.905 328.03 185.871 309.024 183.556C294.28 181.755 264.684 139.879 264.684 139.879L289.054 116.51Z" fill="#FFFFFD"/>
<path d="M366.287 164.905L359.639 152.067C359.639 152.067 319.078 156.783 315.517 155.152C311.956 153.521 295.917 126.863 294.705 124.996" stroke="#210602" stroke-width="2.06" stroke-linecap="round" stroke-linejoin="round"/>
<path d="M271.617 149.155C272.996 151.717 290.677 173.616 302.98 181.103" stroke="#210602" stroke-width="2.06" stroke-linecap="round" stroke-linejoin="round"/>
<path d="M306.259 111.642C307.146 111.739 310.544 106.438 311.796 104.729C312.878 103.25 321.606 96.3715 324.612 94.3238L325.543 78.439C325.543 78.439 317.048 78.6199 315.701 79.9296C311.411 84.1111 307.333 88.1347 302.396 90.1193C300.817 95.1366 305.598 111.567 306.259 111.642Z" fill="#FFA38C"/>
<path d="M340.6 101.38C339.521 102.902 336.089 101.667 335.649 101.989C334.28 102.563 330.25 108.93 326.069 107.767C322.66 106.82 319.717 104.531 317.333 101.865C313.649 97.7384 312.247 91.0525 312.081 89.269C311.854 86.848 315.429 77.7008 317.864 75.228C323.016 70.001 346.956 78.1 346.956 78.1C347.777 81.8077 341.06 91.4402 340.514 92.7039C339.693 94.5649 341.399 100.246 340.6 101.38Z" fill="#FFA38C"/>
<path d="M354.771 76.2678C354.331 69.826 347.071 69.6623 344.432 67.1293C342.629 65.4061 341.141 62.9218 338.08 60.383C334.286 57.2382 327.265 56.2991 323.83 59.4985C320.915 58.3669 317.765 58.9011 315.74 60.8511C314.729 61.8247 314.057 64.3147 313.839 65.9288C313.684 67.0776 313.199 67.6204 312.225 68.4188C310.548 69.7944 308.638 81.782 308.141 82.9595C307.174 85.2571 305.919 85.9291 305.27 86.1761C306.542 87.5173 315.252 92.1929 324.993 86.4001C325.932 85.8429 327.087 85.6448 328.184 85.4725C328.956 85.3518 330.194 85.5328 330.788 84.9124C330.734 87.6322 329.611 88.2698 329.137 90.1423C329.045 90.5013 330.111 92.3163 330.286 92.1354C332.227 90.1049 336.509 82.6723 337.115 82.5115C337.856 82.3162 342.284 84.0451 346.592 83.6402C351.316 83.1921 354.989 79.4873 354.771 76.2678Z" fill="#8F3535"/>
<path d="M331.146 84.3608C331.395 81.3625 328.3 80.3401 326.453 82.0632C324.549 83.8668 324.058 89.2431 326.226 90.0128C328.076 90.6705 330.85 87.8818 331.146 84.3608Z" fill="#FFA38C"/>
<path d="M326.07 107.756C323.462 107.225 319.582 104.93 316.389 100.677C317.678 98.6174 319.401 98.0918 320.013 98.1665C320.464 98.2239 321.357 101.326 322.885 103.02C324.668 105.045 327.264 106.998 326.07 107.756Z" fill="#FA8C7A"/>
<path d="M336.274 101.713C336.118 101.228 336.213 100.992 336.621 100.734C337.029 100.475 339.998 101.139 339.889 101.595C339.72 102.29 336.311 101.837 336.274 101.713Z" fill="#FA8C7A"/>
<path d="M328.805 85.0589C328.438 84.0968 326.177 85.9664 326.97 87.5029C327.763 89.0394 329.865 87.8361 328.805 85.0589Z" fill="#FA8C7A"/>
<path d="M328.853 86.989C329.818 84.6914 328.77 83.7609 327.848 84.3382" stroke="#210602" stroke-width="2.06" stroke-linecap="round" stroke-linejoin="round"/>
<path d="M329.648 88.7809C328.542 90.6764 315.774 93.2411 316.389 100.677C316.828 105.978 324.8 111.642 329.547 110.935C333.347 110.361 337.551 103.488 336.56 101.975C335.569 100.461 330.673 97.8621 330.021 96.4462C329.369 95.0303 330.647 91.6845 331.17 91.0297C331.692 90.3748 330.251 87.7441 329.648 88.7809Z" fill="#8F3535"/>
<path d="M354.391 76.1988C354.756 79.5676 350.586 86.6757 342.691 84.7543" stroke="#8F3535" stroke-width="2.06" stroke-linecap="round" stroke-linejoin="round"/>
<path d="M318.369 88.5942C316.213 89.1945 309.72 90.978 305.064 87.2473" stroke="#8F3535" stroke-width="2.06" stroke-linecap="round" stroke-linejoin="round"/>
<path d="M342.712 65.7679C340.681 61.974 336.876 56.503 329.283 56.7844" stroke="#8F3535" stroke-width="2.06" stroke-linecap="round" stroke-linejoin="round"/>
<path d="M338.024 91.7132L336.057 90.3461" stroke="#260500" stroke-width="2.06" stroke-linecap="round" stroke-linejoin="round"/>
<path d="M337.773 91.5351C337.773 91.5351 336.388 93.692 335.963 93.3301C335.538 92.9682 336.856 90.9004 336.856 90.9004L337.773 91.5351Z" fill="#260500"/>
<path d="M341.67 89.4127C341.71 90.056 340.664 90.2743 340.395 90.4667C340.125 90.6591 336.733 87.747 336.566 87.1841C336.4 86.6212 341.627 88.7234 341.67 89.4127Z" fill="#8F3535"/>
<path d="M345.493 83.8383C341.984 82.9595 316.672 68.6169 313.84 65.9287C313.068 66.2159 312.034 68.0367 312.227 68.4187C312.419 68.8007 329.363 80.8457 344.126 86.5121C345.223 86.1215 345.493 83.8383 345.493 83.8383Z" fill="#FFFFFD"/>
<path d="M338.928 80.7681C336.513 85.3862 338.23 88.7693 340.281 89.8722C342.331 90.975 349.387 77.8501 347.34 76.7502C345.292 75.6502 341.286 76.2648 338.928 80.7681Z" fill="#695B64"/>
<path d="M347.528 85.3091C349.477 81.6857 349.396 77.8547 347.347 76.7523C345.298 75.6498 342.057 77.6935 340.108 81.3168C338.158 84.9402 338.239 88.7712 340.288 89.8736C342.337 90.976 345.578 88.9324 347.528 85.3091Z" fill="#FFFFFD"/>
<path d="M343.186 82.9765C342.859 83.5825 342.873 84.2258 343.215 84.4125C343.557 84.5992 344.102 84.2545 344.43 83.6486C344.757 83.0426 344.743 82.3964 344.401 82.2126C344.059 82.0288 343.513 82.3677 343.186 82.9765Z" fill="#210602"/>
<path d="M331.597 102.032C330.736 101.222 329.976 100.311 329.334 99.3181" stroke="#210602" stroke-width="2.06" stroke-linecap="round" stroke-linejoin="round"/>
</svg>
