<svg width="81" height="80" viewBox="0 0 81 80" fill="none" xmlns="http://www.w3.org/2000/svg">
<circle cx="40.5" cy="40" r="40" fill="url(#paint0_linear_301_6904)"/>
<g clip-path="url(#clip0_301_6904)">
<path d="M47.718 43.769C51.9193 37.8363 50.5142 29.6212 44.5815 25.4209C38.6488 21.2205 30.4337 22.6246 26.2334 28.5583C22.033 34.4911 23.4371 42.7051 29.3708 46.9055C33.6053 49.9034 39.2038 50.1343 43.6702 47.4966L53.3747 57.1429C54.4225 58.246 56.1659 58.2901 57.2689 57.2423C58.372 56.1955 58.4161 54.4521 57.3693 53.349C57.3362 53.3139 57.304 53.2818 57.2689 53.2487L47.718 43.769ZM36.9676 44.6683C32.2795 44.6693 28.4786 40.8714 28.4756 36.1832C28.4746 31.4951 32.2725 27.6942 36.9616 27.6922C41.6437 27.6902 45.4426 31.482 45.4517 36.1642C45.4597 40.8533 41.6638 44.6603 36.9737 44.6683C36.9717 44.6683 36.9707 44.6683 36.9676 44.6683Z" fill="white"/>
</g>
<defs>
<linearGradient id="paint0_linear_301_6904" x1="40.5" y1="0" x2="40.5" y2="80" gradientUnits="userSpaceOnUse">
<stop stop-color="#3BB96D"/>
<stop offset="1" stop-color="#279A59"/>
</linearGradient>
<clipPath id="clip0_301_6904">
<rect width="35" height="35" fill="white" transform="translate(23.5 23)"/>
</clipPath>
</defs>
</svg>
