<svg width="21" height="21" viewBox="0 0 21 21" fill="none" xmlns="http://www.w3.org/2000/svg">
<g clip-path="url(#clip0_291_2922)">
<path d="M20.3729 10.111C20.1942 9.86658 15.9371 4.12637 10.4999 4.12637C5.06274 4.12637 0.805391 9.86658 0.626914 10.1108C0.457695 10.3426 0.457695 10.6571 0.626914 10.889C0.805391 11.1334 5.06274 16.8736 10.4999 16.8736C15.9371 16.8736 20.1942 11.1334 20.3729 10.8892C20.5423 10.6574 20.5423 10.3426 20.3729 10.111ZM10.4999 15.555C6.49486 15.555 3.02606 11.7451 1.99922 10.4996C3.02473 9.25295 6.48626 5.44505 10.4999 5.44505C14.5048 5.44505 17.9733 9.25427 19.0006 10.5004C17.9751 11.747 14.5135 15.555 10.4999 15.555Z" fill="#686868"/>
<path d="M10.499 6.54395C8.3177 6.54395 6.54297 8.31868 6.54297 10.5C6.54297 12.6813 8.3177 14.4561 10.499 14.4561C12.6804 14.4561 14.4551 12.6813 14.4551 10.5C14.4551 8.31868 12.6804 6.54395 10.499 6.54395ZM10.499 13.1374C9.04473 13.1374 7.86168 11.9543 7.86168 10.5C7.86168 9.04575 9.04477 7.86266 10.499 7.86266C11.9533 7.86266 13.1364 9.04575 13.1364 10.5C13.1364 11.9543 11.9533 13.1374 10.499 13.1374Z" fill="#686868"/>
</g>
<defs>
<clipPath id="clip0_291_2922">
<rect width="20" height="20" fill="white" transform="translate(0.5 0.5)"/>
</clipPath>
</defs>
</svg>
